<svg width="28" height="28" viewBox="0 0 28 28" fill="none" xmlns="http://www.w3.org/2000/svg">
<path d="M21 12.8333C21 11.7145 20.2067 10.7788 19.1555 10.5537C19.5755 9.8525 19.8334 9.04167 19.8334 8.16667C19.8334 5.593 17.7404 3.5 15.1667 3.5C13.3969 3.5 11.8755 4.49983 11.0834 5.95467C10.2912 4.49983 8.76987 3.5 7.00004 3.5C4.42637 3.5 2.33337 5.593 2.33337 8.16667C2.33337 9.219 2.69737 10.1815 3.28654 10.962C2.99206 11.1773 2.75235 11.4589 2.58677 11.784C2.4212 12.1091 2.33439 12.4685 2.33337 12.8333V22.1667C2.33337 23.4535 3.37987 24.5 4.66671 24.5H18.6667C19.9535 24.5 21 23.4535 21 22.1667V19.089L25.6667 21.4223V13.2557L21 15.589V12.8333ZM15.1667 5.83333C16.4535 5.83333 17.5 6.87983 17.5 8.16667C17.5 9.4535 16.4535 10.5 15.1667 10.5C13.8799 10.5 12.8334 9.4535 12.8334 8.16667C12.8334 6.87983 13.8799 5.83333 15.1667 5.83333ZM7.00004 5.83333C8.28687 5.83333 9.33337 6.87983 9.33337 8.16667C9.33337 9.4535 8.28687 10.5 7.00004 10.5C5.71321 10.5 4.66671 9.4535 4.66671 8.16667C4.66671 6.87983 5.71321 5.83333 7.00004 5.83333ZM4.66671 22.1667V12.8333H18.6667L18.669 22.1667H4.66671Z" fill="#00AB84"/>
</svg>
