<svg width="34" height="34" viewBox="0 0 34 34" fill="none" xmlns="http://www.w3.org/2000/svg">
<path d="M17 22.6666C20.1252 22.6666 22.6667 20.1251 22.6667 17C22.6667 13.8748 20.1252 11.3333 17 11.3333C13.8748 11.3333 11.3333 13.8748 11.3333 17C11.3333 20.1251 13.8748 22.6666 17 22.6666ZM17 14.1666C18.5357 14.1666 19.8333 15.4643 19.8333 17C19.8333 18.5356 18.5357 19.8333 17 19.8333C15.4643 19.8333 14.1667 18.5356 14.1667 17C14.1667 15.4643 15.4643 14.1666 17 14.1666Z" fill="#76C9BA"/>
<path d="M4.03042 22.8593L5.44709 25.3102C6.19934 26.6093 8.00983 27.0966 9.31459 26.3443L10.064 25.9108C10.8836 26.5556 11.7872 27.0856 12.75 27.4862V28.3333C12.75 29.8959 14.0208 31.1667 15.5833 31.1667H18.4167C19.9793 31.1667 21.25 29.8959 21.25 28.3333V27.4862C22.2124 27.0855 23.116 26.556 23.936 25.9123L24.6854 26.3458C25.993 27.0966 27.7993 26.6121 28.5543 25.3102L29.9696 22.8608C30.345 22.2101 30.4468 21.437 30.2527 20.7113C30.0585 19.9856 29.5842 19.3667 28.934 18.9904L28.2186 18.5768C28.3707 17.532 28.3707 16.4708 28.2186 15.4261L28.934 15.0124C29.5839 14.6359 30.058 14.017 30.2521 13.2914C30.4462 12.5658 30.3446 11.7929 29.9696 11.1421L28.5543 8.69268C27.8021 7.38934 25.993 6.90059 24.6854 7.65568L23.936 8.08918C23.1164 7.44446 22.2128 6.91447 21.25 6.51384V5.66668C21.25 4.10409 19.9793 2.83334 18.4167 2.83334H15.5833C14.0208 2.83334 12.75 4.10409 12.75 5.66668V6.51384C11.7876 6.91453 10.884 7.44401 10.064 8.08776L9.31459 7.65426C8.00558 6.90201 6.19792 7.38934 5.44567 8.69126L4.03042 11.1407C3.65498 11.7914 3.55316 12.5644 3.74733 13.2901C3.94151 14.0158 4.41579 14.6348 5.066 15.011L5.78142 15.4247C5.62875 16.4689 5.62875 17.5297 5.78142 18.5739L5.066 18.9876C4.41598 19.3644 3.94192 19.9836 3.74778 20.7094C3.55365 21.4352 3.65529 22.2084 4.03042 22.8593ZM8.74225 18.9522C8.58229 18.3138 8.50094 17.6582 8.5 17C8.5 16.3455 8.58217 15.6882 8.74084 15.0478C8.81555 14.7494 8.79098 14.4347 8.67083 14.1515C8.55069 13.8683 8.34152 13.6319 8.075 13.4782L6.48409 12.5573L7.89792 10.1079L9.52 11.0458C9.78453 11.1988 10.0916 11.262 10.395 11.2257C10.6985 11.1894 10.982 11.0557 11.203 10.8446C12.1614 9.93305 13.3171 9.25483 14.5803 8.86268C14.8705 8.77409 15.1246 8.59468 15.3051 8.35088C15.4857 8.10707 15.5832 7.81173 15.5833 7.50834V5.66668H18.4167V7.50834C18.4168 7.81173 18.5143 8.10707 18.6949 8.35088C18.8754 8.59468 19.1295 8.77409 19.4197 8.86268C20.6826 9.25539 21.8382 9.93354 22.797 10.8446C23.0182 11.0553 23.3017 11.1887 23.6051 11.225C23.9084 11.2613 24.2153 11.1984 24.48 11.0458L26.1007 10.1093L27.5173 12.5588L25.925 13.4782C25.6587 13.6321 25.4496 13.8684 25.3295 14.1516C25.2094 14.4348 25.1847 14.7494 25.2592 15.0478C25.4178 15.6882 25.5 16.3455 25.5 17C25.5 17.6531 25.4178 18.3104 25.2578 18.9522C25.1834 19.2508 25.2083 19.5655 25.3287 19.8487C25.4491 20.1319 25.6584 20.3682 25.925 20.5218L27.5159 21.4413L26.1021 23.8907L24.48 22.9543C24.2155 22.801 23.9084 22.7377 23.6049 22.774C23.3014 22.8103 23.0179 22.9441 22.797 23.1554C21.8386 24.067 20.6829 24.7452 19.4197 25.1373C19.1295 25.2259 18.8754 25.4053 18.6949 25.6491C18.5143 25.893 18.4168 26.1883 18.4167 26.4917L18.4195 28.3333H15.5833V26.4917C15.5832 26.1883 15.4857 25.893 15.3051 25.6491C15.1246 25.4053 14.8705 25.2259 14.5803 25.1373C13.3174 24.7446 12.1618 24.0665 11.203 23.1554C10.9824 22.9435 10.6987 22.8093 10.395 22.7733C10.0913 22.7372 9.78405 22.8013 9.52 22.9557L7.89934 23.8935L6.48267 21.4441L8.075 20.5218C8.34161 20.3682 8.55093 20.1319 8.67132 19.8487C8.7917 19.5655 8.8166 19.2508 8.74225 18.9522Z" fill="#76C9BA"/>
</svg>
