<svg width="534" height="530" viewBox="0 0 534 530" fill="none" xmlns="http://www.w3.org/2000/svg">
<path d="M493.353 441.676C475.882 455.899 454.597 470.306 433.671 477.099C427.639 479.116 421.413 480.403 415.113 480.937C409.222 481.443 403.293 480.952 397.546 479.48C382.443 475.464 368.435 468.432 354.881 460.216C350.452 457.527 346.075 454.715 341.723 451.842C334.62 447.149 327.587 442.292 320.534 437.551C319.479 436.833 318.429 436.128 317.373 435.431H317.367C315.664 434.288 313.958 433.162 312.247 432.051C311.946 431.853 311.646 431.661 311.338 431.463C308.107 429.369 304.819 427.324 301.477 425.326C301.067 425.087 300.658 424.841 300.248 424.601C293.781 420.766 287.134 417.289 280.333 414.182C275.866 412.171 271.342 410.358 266.772 408.812H266.766C265.019 408.224 263.265 407.67 261.506 407.163C256.228 405.616 250.851 404.49 245.417 403.798C237.93 402.829 230.357 402.893 222.885 403.989C222.379 404.064 221.88 404.14 221.374 404.229C201.152 407.69 182.696 419.361 162.384 422.111C161.725 422.2 161.072 422.282 160.413 422.344C160.131 422.371 159.85 422.405 159.568 422.426C153.665 422.966 147.725 422.81 141.854 421.961C125.452 419.648 109.479 412.472 95.0995 403.428C61.483 382.282 34.2211 349.781 17.6464 312.141C14.8002 305.691 12.2732 299.084 10.0758 292.35C3.93228 273.676 0.548999 254.092 0.0478126 234.304C-1.50726 165.647 34.989 96.7645 92.2901 65.713C149.598 34.6615 224.984 44.9299 271.201 92.6325C299.237 121.57 315.46 160.783 336.559 195.816C357.658 230.842 387.646 264.302 426.325 269.405C446.029 272.005 466.648 266.977 485.533 273.517C495.989 277.142 504.91 284.079 512.097 292.918C516.929 298.916 520.972 305.59 524.115 312.757C526.419 317.938 528.288 323.327 529.702 328.861C529.964 329.88 530.208 330.899 530.444 331.919C539.852 372.992 524.819 416.05 493.353 441.676Z" fill="#152E48"/>
<path d="M310.705 513.943H329.141L337.91 447.652L310.702 447.654L310.705 513.943Z" fill="#FFB8B8"/>
<path d="M364.694 529.9L306.755 529.903L306.754 509.034L342.308 509.032C348.245 509.032 353.939 511.23 358.137 515.144C362.335 519.057 364.694 524.366 364.694 529.9L364.694 529.9Z" fill="#2F2E41"/>
<path d="M241.535 513.943H259.97L268.74 447.652L241.532 447.654L241.535 513.943Z" fill="#FFB8B8"/>
<path d="M295.524 529.9L237.585 529.903L237.584 509.034L273.137 509.032C279.074 509.032 284.768 511.23 288.966 515.144C293.165 519.057 295.524 524.366 295.524 529.9L295.524 529.9Z" fill="#2F2E41"/>
<path d="M243.786 316.509C245.772 315.318 247.454 313.736 248.713 311.873C249.973 310.011 250.778 307.913 251.074 305.729C251.37 303.545 251.148 301.327 250.425 299.231C249.701 297.135 248.494 295.213 246.887 293.599L259.026 133.006L224.06 136.167L223.1 293.436C220.371 296.132 218.797 299.667 218.678 303.372C218.558 307.077 219.9 310.695 222.45 313.539C225 316.383 228.58 318.256 232.513 318.804C236.445 319.351 240.456 318.535 243.786 316.509H243.786Z" fill="#FFB8B8"/>
<path d="M311.255 480.556C309.601 480.551 308.006 479.983 306.768 478.96C305.531 477.936 304.737 476.527 304.535 474.996L293.82 391.443C293.669 390.266 293.066 389.18 292.124 388.386C291.181 387.591 289.962 387.141 288.691 387.119C287.42 387.097 286.184 387.505 285.21 388.267C284.237 389.028 283.592 390.093 283.395 391.263L269.896 471.263C269.652 472.751 268.842 474.107 267.615 475.085C266.388 476.063 264.826 476.597 263.211 476.591H241.333C240.44 476.591 239.555 476.426 238.731 476.106C237.907 475.786 237.159 475.317 236.53 474.727C235.901 474.136 235.403 473.435 235.066 472.664C234.729 471.893 234.559 471.068 234.566 470.235L245.008 292.853C245.012 291.343 245.6 289.885 246.664 288.747C247.729 287.609 249.198 286.867 250.802 286.657L331.993 275.67C332.958 275.539 333.941 275.605 334.876 275.862C335.811 276.118 336.676 276.56 337.411 277.157C338.145 277.755 338.733 278.493 339.134 279.321C339.535 280.149 339.739 281.049 339.732 281.957L338.316 473.389C338.304 475.003 337.629 476.551 336.43 477.714C335.231 478.878 333.6 479.569 331.871 479.646L311.576 480.548C311.469 480.553 311.362 480.556 311.255 480.556Z" fill="#E5E5E5"/>
<path d="M269.162 299.555C261.353 299.527 253.607 298.241 246.267 295.754C245.023 295.327 243.942 294.566 243.161 293.567C242.38 292.568 241.934 291.375 241.879 290.14C241.179 275.649 237.081 201.061 225.151 155.564C222.832 146.639 223.399 137.274 226.781 128.649C230.162 120.024 236.207 112.525 244.153 107.097C244.794 106.668 245.449 106.245 246.115 105.831C253.015 101.549 260.975 98.9841 269.239 98.3803C277.502 97.7764 285.794 99.1538 293.325 102.381C301.105 105.627 307.865 110.674 312.962 117.043C318.058 123.413 321.322 130.892 322.442 138.769L341.896 273.418C342.021 274.26 341.961 275.116 341.721 275.936C341.48 276.755 341.063 277.521 340.496 278.186C339.941 278.846 339.248 279.395 338.458 279.798C337.669 280.201 336.8 280.451 335.904 280.531C329.163 281.158 315.183 283.594 297.289 292.862C288.685 297.305 278.999 299.61 269.162 299.555Z" fill="#3F3D56"/>
<path d="M245.379 187.941L213.364 179.849C211.633 179.409 210.16 178.348 209.267 176.897C208.375 175.446 208.136 173.724 208.604 172.11L219.858 133.412C221.064 129.266 223.873 125.684 227.744 123.355C231.614 121.027 236.273 120.116 240.821 120.8C245.369 121.484 249.485 123.714 252.374 127.059C255.263 130.404 256.722 134.628 256.468 138.916L253.906 182.2C253.851 183.139 253.571 184.054 253.087 184.878C252.604 185.703 251.929 186.417 251.111 186.967C250.294 187.517 249.355 187.89 248.363 188.059C247.371 188.227 246.352 188.187 245.379 187.941Z" fill="#3F3D56"/>
<path d="M281.017 84.0984C301.414 84.0984 317.95 68.6831 317.95 49.6675C317.95 30.6519 301.414 15.2366 281.017 15.2366C260.62 15.2366 244.085 30.6519 244.085 49.6675C244.085 68.6831 260.62 84.0984 281.017 84.0984Z" fill="#FFB8B8"/>
<path d="M414.852 117.313C414.667 118.07 414.547 118.839 414.492 119.613L349.897 154.353L334.196 145.927L317.458 166.355L351.047 188.673L424.74 134.474C427.746 135.511 431.019 135.67 434.124 134.93C437.229 134.191 440.019 132.588 442.123 130.334C444.227 128.08 445.545 125.283 445.902 122.313C446.259 119.344 445.637 116.344 444.121 113.712C442.604 111.08 440.264 108.941 437.412 107.579C434.559 106.217 431.329 105.697 428.152 106.088C424.975 106.479 422.001 107.762 419.625 109.767C417.249 111.773 415.584 114.405 414.852 117.313V117.313Z" fill="#FFB8B8"/>
<path d="M344.543 156.029L316.718 172.864C315.212 173.772 313.381 174.087 311.627 173.739C309.872 173.391 308.337 172.408 307.359 171.006L283.946 137.372C281.438 133.77 280.45 129.429 281.171 125.187C281.893 120.945 284.274 117.103 287.855 114.401C291.435 111.698 295.963 110.328 300.563 110.553C305.164 110.778 309.512 112.584 312.769 115.621L345.645 146.277C346.358 146.942 346.903 147.747 347.239 148.633C347.576 149.519 347.696 150.464 347.59 151.398C347.484 152.333 347.156 153.234 346.629 154.035C346.102 154.837 345.389 155.518 344.543 156.029Z" fill="#3F3D56"/>
<path d="M254.882 76.9079C261.772 83.75 274.567 80.077 275.465 70.7297C275.535 70.004 275.53 69.2737 275.45 68.5489C274.986 64.4084 272.42 60.6495 273.035 56.2777C273.174 55.1896 273.609 54.1527 274.298 53.2652C279.789 46.4111 292.677 56.3309 297.859 50.126C301.036 46.3214 297.301 40.3311 299.739 36.0788C302.957 30.4664 312.489 33.235 318.466 30.1614C325.117 26.7416 324.719 17.229 320.341 11.4429C315.002 4.38656 305.641 0.621324 296.397 0.0786678C287.153 -0.463988 277.972 1.86567 269.342 5.00118C259.536 8.56376 249.812 13.4873 243.778 21.5255C236.439 31.3009 235.733 44.4429 239.403 55.8733C241.636 62.8265 249.255 71.3206 254.882 76.9079Z" fill="#2F2E41"/>
<path d="M401.023 530H190.504C190.105 530 189.722 529.852 189.44 529.589C189.158 529.326 189 528.97 189 528.598C189 528.226 189.158 527.87 189.44 527.607C189.722 527.344 190.105 527.196 190.504 527.196H401.023C401.421 527.196 401.804 527.344 402.086 527.607C402.368 527.87 402.526 528.226 402.526 528.598C402.526 528.97 402.368 529.326 402.086 529.589C401.804 529.852 401.421 530 401.023 530Z" fill="#3F3D56"/>
</svg>
