<svg width="135" height="102" viewBox="0 0 135 102" fill="none" xmlns="http://www.w3.org/2000/svg">
<g clip-path="url(#clip0_632_69303)">
<path d="M95.6582 39.4882H84.1268V46.8504H95.6582V39.4882Z" fill="#85E0CB"/>
<path d="M77.6906 51H66.1591V58.3622H77.6906V51Z" fill="#85E0CB"/>
<path d="M129.368 41.8976V26.2362H120.653V16.063H114.753V26.2362H106.037V41.8976H101.21V6.69291H91.4218V3.34646H78.4154V0H65.5431V3.34646H53.3412V6.69291H42.7483V41.7638H37.1167V26.1024H28.4011V15.9291H22.5013V26.1024H13.7856V41.7638H8.15399V97.315H21.0263V77.6378H29.876V97.315H64.4704V74.4252H79.4881V97.315H100.406V97.4488H113.278V77.7717H122.128V97.4488H135V41.8976H129.368ZM12.78 48.5905H17.8753V52.6063H12.78V48.5905ZM12.847 59.8346H17.9423V63.8504H12.847V59.8346ZM18.0094 75.0945H12.9141V71.0787H18.0094V75.0945ZM31.351 38.8189H19.5514V36.4094H31.351V38.8189ZM31.351 35.3386H19.5514V32.9291H31.351V35.3386ZM31.351 31.8583H19.5514V29.4488H31.351V31.8583ZM33.0271 48.5905H38.1224V52.6063H33.0271V48.5905ZM33.0941 59.8346H38.1894V63.8504H33.0941V59.8346ZM38.2564 75.0945H33.1612V71.0787H38.2564V75.0945ZM59.1069 68.4016H49.7209V64.252H59.1069V68.4016ZM59.1069 56.4882H49.7209V52.3386H59.1069V56.4882ZM59.1069 44.5748H49.7209V40.4252H59.1069V44.5748ZM59.1069 32.6614H49.7209V28.5118H59.1069V32.6614ZM59.1069 20.748H49.7209V16.5984H59.1069V20.748ZM76.6723 68.4016H67.2862V64.252H76.6723V68.4016ZM76.6723 56.4882H67.2862V52.3386H76.6723V56.4882ZM76.6723 44.5748H67.2862V40.4252H76.6723V44.5748ZM76.6723 32.6614H67.2862V28.5118H76.6723V32.6614ZM76.6723 20.748H67.2862V16.5984H76.6723V20.748ZM94.2376 68.4016H84.8516V64.252H94.2376V68.4016ZM94.2376 56.4882H84.8516V52.3386H94.2376V56.4882ZM94.2376 44.5748H84.8516V40.4252H94.2376V44.5748ZM94.2376 32.6614H84.8516V28.5118H94.2376V32.6614ZM94.2376 20.748H84.8516V16.5984H94.2376V20.748ZM105.032 48.7244H110.127V52.7402H105.032V48.7244ZM105.099 59.9685H110.194V63.9842H105.099V59.9685ZM110.261 75.2283H105.166V71.2126H110.261V75.2283ZM123.603 38.9528H111.803V36.5433H123.603V38.9528ZM123.603 35.4724H111.803V33.063H123.603V35.4724ZM123.603 31.9921H111.803V29.5827H123.603V31.9921ZM125.279 48.7244H130.374V52.7402H125.279V48.7244ZM125.346 59.9685H130.441V63.9842H125.346V59.9685ZM130.508 75.2283H125.413V71.2126H130.508V75.2283Z" fill="#F2F2F2"/>
<path d="M16.0904 83.7564C16.0529 84.2859 15.9942 84.8782 15.9034 85.5006L17.5427 83.6856L17.5518 83.716C17.4515 83.2792 17.2901 82.8587 17.0723 82.4669L17.0828 82.4957L16.0904 83.7564Z" fill="#85E0CB"/>
<path d="M16.0968 83.6635L17.0581 82.4423C16.8536 82.0697 16.5577 81.755 16.1983 81.5276C16.1807 81.5171 16.163 81.5073 16.1453 81.4975C16.1505 81.6417 16.1757 82.4885 16.0968 83.6635Z" fill="#85E0CB"/>
<path d="M15.2295 88.4512C15.1873 88.5796 15.1437 88.7057 15.0987 88.8295L17.5129 87.4164L17.5163 87.4518C17.5667 87.2321 17.6087 87.0124 17.6423 86.7927L15.2317 88.4674L15.2295 88.4512Z" fill="#85E0CB"/>
<path d="M15.5653 87.2652L17.7396 85.4751L17.7458 85.5086C17.7535 84.9167 17.6909 84.3259 17.5594 83.7487L15.8888 85.5982C15.8011 86.1812 15.6932 86.7368 15.5653 87.2652Z" fill="#85E0CB"/>
<path d="M15.8516 85.563L13.2499 82.6651L13.2638 82.6323C13.0192 82.9761 12.8101 83.3436 12.6395 83.7293L15.6085 86.8849C15.7102 86.4244 15.7896 85.9785 15.8516 85.563Z" fill="#85E0CB"/>
<path d="M12.6115 83.7956L12.6116 83.7957C12.6164 83.7846 12.6206 83.7726 12.6255 83.7616L12.6115 83.7956Z" fill="#85E0CB"/>
<path d="M12.4671 84.1501L12.4533 84.1842C12.4577 84.1724 12.4628 84.1618 12.4672 84.1501L12.4671 84.1501Z" fill="#85E0CB"/>
<path d="M15.5913 86.9618L12.6115 83.7947C12.5612 83.9099 12.5129 84.0284 12.4667 84.1502L15.5122 87.2968C15.54 87.1845 15.5663 87.0729 15.5913 86.9618Z" fill="#85E0CB"/>
<path d="M17.6487 86.7504C17.708 86.352 17.7403 85.9501 17.7455 85.5474L15.5418 87.3617C15.4544 87.7136 15.3584 88.0518 15.2535 88.3765L17.644 86.7158L17.6487 86.7504Z" fill="#85E0CB"/>
<path d="M12.0716 86.9762L14.4836 90.1177C14.6818 89.7353 14.8568 89.3414 15.0077 88.9381L12.0646 85.8521C12.0354 86.2379 12.0322 86.6252 12.0549 87.0114L12.0716 86.9762Z" fill="#85E0CB"/>
<path d="M16.1012 81.4948L16.1228 81.4852C15.5946 81.2035 15.0227 81.2337 14.4746 81.5193L16.0543 83.6614C16.1394 82.39 16.1018 81.5075 16.1012 81.4948Z" fill="#85E0CB"/>
<path d="M15.0205 89.0397C14.882 89.4025 14.7239 89.7576 14.5468 90.1033L16.973 88.8502L16.9754 88.885C17.1582 88.5767 17.3011 88.2466 17.4008 87.9024C17.4394 87.767 17.4745 87.6313 17.5063 87.4951L15.0634 88.9251C15.0491 88.9633 15.035 89.0018 15.0205 89.0397Z" fill="#85E0CB"/>
<path d="M16.0478 83.7561L14.4319 81.5649L14.447 81.5337C13.9845 81.8008 13.587 82.167 13.2832 82.6058L15.8637 85.4801C15.953 84.8648 16.0108 84.2794 16.0478 83.7561Z" fill="#85E0CB"/>
<path d="M15.0342 88.8673C15.2141 88.3774 15.3674 87.8782 15.4936 87.3718L12.4405 84.2173C12.3678 84.4143 12.301 84.6193 12.2402 84.8321C12.1558 85.1373 12.0995 85.4496 12.0719 85.765L15.0319 88.8686L15.0342 88.8673Z" fill="#85E0CB"/>
<path d="M18.1701 92.2706C17.8029 92.6545 17.3793 93.0733 16.9117 93.4948L19.3339 93.1408L19.3214 93.1699C19.5233 92.7697 19.6676 92.3431 19.7502 91.9026L19.7399 91.9314L18.1701 92.2706Z" fill="#85E0CB"/>
<path d="M19.6772 90.6226C19.6704 90.6034 19.663 90.5845 19.6556 90.5657C19.5675 90.6801 19.0459 91.3483 18.2344 92.2031L19.7551 91.8746C19.8356 91.4574 19.8088 91.0267 19.6772 90.6226Z" fill="#85E0CB"/>
<path d="M14.5076 95.3384C14.393 95.4104 14.2788 95.4797 14.1651 95.5464L16.9273 95.9952L16.9073 96.0247C17.0865 95.8876 17.2592 95.7451 17.4255 95.5972L14.4989 95.3522L14.5076 95.3384Z" fill="#85E0CB"/>
<path d="M15.5239 94.6387L18.3423 94.6444L18.3256 94.6741C18.7097 94.2231 19.0389 93.7283 19.3064 93.2L16.8381 93.5608C16.3981 93.9539 15.96 94.3132 15.5239 94.6387Z" fill="#85E0CB"/>
<path d="M14.5738 95.2961L17.476 95.5391L17.4575 95.5687C17.7577 95.2997 18.0393 95.0107 18.3006 94.7038L15.4441 94.6981C15.1521 94.9134 14.862 95.1128 14.5738 95.2961Z" fill="#85E0CB"/>
<path d="M11.0191 96.7298C11.0397 96.7091 11.0614 96.6865 11.0829 96.6645C11.6747 96.5704 12.2529 96.4055 12.8052 96.1733L12.8841 94.0852C12.9075 94.0321 12.9302 93.9786 12.9523 93.9247L12.8684 96.1468C13.2653 95.9785 13.6518 95.7866 14.0257 95.5721L13.7562 91.6904C13.777 91.6796 13.7979 91.6687 13.8194 91.6573L14.0886 95.5339L14.0912 95.5344C14.5428 95.2716 14.9799 94.9848 15.4005 94.6751L15.107 90.8553C15.1278 90.8401 15.1485 90.8252 15.1694 90.8097L15.4628 94.6292C15.5559 94.5604 15.6476 94.4912 15.7378 94.4216L15.4957 90.5548C15.5164 90.5378 15.5371 90.5208 15.5578 90.5036L15.8001 94.3733C16.1727 94.0833 16.5187 93.7905 16.8319 93.5099L16.6796 89.6214L16.7112 89.605C16.6031 89.6332 16.4932 89.6666 16.3823 89.703C16.5908 89.4653 16.7783 89.2101 16.9428 88.9402L14.4933 90.2054C14.3238 90.5269 14.1331 90.837 13.9225 91.1334C13.8787 91.1746 13.8349 91.2158 13.7918 91.2589L13.795 91.3053C13.775 91.3316 13.7551 91.3581 13.7349 91.3839L13.7305 91.3213C13.6996 91.353 13.6695 91.3864 13.6389 91.419C13.9491 91.0324 14.2213 90.6169 14.4518 90.1782L12.0575 87.0597C12.0738 87.3384 12.1011 87.619 12.1362 87.8973C11.9139 87.5365 11.6439 87.2072 11.3336 86.9184L11.3524 86.9424L10.799 88.4477C10.9273 88.9628 11.0549 89.5442 11.1613 90.1641L12.1446 87.9629C12.1491 87.9972 12.1539 88.0314 12.1586 88.0656L11.1776 90.2615C11.2747 90.843 11.3442 91.4047 11.3861 91.9467L12.5635 90.1004C12.5702 90.1269 12.577 90.1534 12.5837 90.1796L11.3936 92.0458C11.4195 92.4073 11.4328 92.7587 11.4337 93.0998L12.8729 91.2041C12.8806 91.229 12.8881 91.2532 12.8956 91.2772L11.4411 93.1929L11.434 93.1782C11.4336 93.3134 11.4311 93.4468 11.4267 93.5783L13.0502 91.7536C13.0588 91.779 13.0668 91.8024 13.0742 91.8238L11.4226 93.6802C11.4209 93.7209 11.4194 93.7619 11.4173 93.8024C11.398 94.1902 11.3575 94.5767 11.2961 94.9601L11.4528 94.8017C11.4231 94.8632 11.3942 94.9238 11.3661 94.9835L11.2769 95.0737C11.2667 95.1322 11.255 95.1895 11.2438 95.2471C11.2109 95.3193 11.1792 95.3896 11.1487 95.4582C11.1782 95.3266 11.2056 95.1942 11.2291 95.0606L7.98639 92.8336C8.83238 94.9944 10.4255 97.0497 10.5275 97.1801C10.6102 97.0258 10.6855 96.8669 10.7545 96.7047C10.7746 96.7028 10.7947 96.701 10.8147 96.6989C10.8064 96.7188 10.7978 96.7384 10.7894 96.7581C10.7793 96.7592 10.769 96.7608 10.7589 96.7618C10.7668 96.764 10.7762 96.7666 10.7848 96.7689C10.7361 96.8822 10.6857 96.9936 10.6316 97.1011C10.7024 97.0376 10.8102 96.9372 10.9391 96.8098C11.7016 97.0041 13.7558 97.4197 15.5146 96.8058L12.8198 96.2206C12.2431 96.4644 11.6382 96.6354 11.0191 96.7298ZM12.9128 93.3257L12.9774 93.2604L12.9737 93.3583L12.9091 93.4236L12.9128 93.3257Z" fill="#85E0CB"/>
<path d="M19.6234 90.5356L19.6462 90.542C19.4193 89.9886 18.9596 89.6478 18.3549 89.5188L18.2031 92.1744C19.0808 91.2494 19.6157 90.5457 19.6234 90.5356Z" fill="#85E0CB"/>
<path d="M13.9705 95.6584C13.632 95.8497 13.2834 96.0225 12.9261 96.176L15.5954 96.7557L15.575 96.7841C15.9127 96.663 16.2338 96.4998 16.5304 96.2982C16.6466 96.2184 16.7604 96.1362 16.8719 96.0516L14.0768 95.5974C14.0413 95.6179 14.0059 95.6385 13.9705 95.6584Z" fill="#85E0CB"/>
<path d="M16.8942 93.4538C17.3561 93.0367 17.7746 92.6227 18.1375 92.2432L18.2929 89.5266L18.3245 89.5123C17.7976 89.4235 17.2575 89.4524 16.7432 89.5969L16.8942 93.4538Z" fill="#85E0CB"/>
<path d="M11.3124 86.8993C11.0026 86.6081 10.6238 86.4001 10.2115 86.2947C10.1916 86.2902 10.1717 86.2863 10.1518 86.2825C10.2014 86.418 10.4876 87.2155 10.7764 88.3573L11.3124 86.8993Z" fill="#85E0CB"/>
<path d="M11.1312 90.2395L7.75965 88.2863L7.76274 88.2509C7.63659 88.6532 7.55149 89.0673 7.50873 89.4868L11.3093 91.5717C11.2635 91.1023 11.2009 90.6537 11.1312 90.2395Z" fill="#85E0CB"/>
<path d="M7.50226 89.5586L7.5024 89.5586C7.50357 89.5466 7.50382 89.5339 7.50505 89.5219L7.50226 89.5586Z" fill="#85E0CB"/>
<path d="M7.47471 89.9402L7.47217 89.9769C7.47271 89.9644 7.47422 89.9527 7.47481 89.9403L7.47471 89.9402Z" fill="#85E0CB"/>
<path d="M11.3169 91.6501L7.50237 89.5576C7.49013 89.6827 7.48092 89.8102 7.47473 89.9403L11.3454 91.9931C11.337 91.8778 11.3275 91.7634 11.3169 91.6501Z" fill="#85E0CB"/>
<path d="M11.3738 93.7097L7.61926 91.683C7.71098 92.0589 7.82782 92.4282 7.96901 92.7885L7.97394 92.7498L11.2405 94.9932C11.3106 94.5684 11.3551 94.1398 11.3738 93.7097Z" fill="#85E0CB"/>
<path d="M10.1091 86.2935L10.1266 86.2777C9.53703 86.1727 9.00253 86.378 8.5697 86.8187L10.7353 88.3684C10.4225 87.1331 10.1135 86.3054 10.1091 86.2935Z" fill="#85E0CB"/>
<path d="M10.7584 88.4605L8.54313 86.8753L8.54789 86.8409C8.19073 87.2377 7.9261 87.7085 7.77301 88.2196L11.1171 90.1569C11.0115 89.5442 10.8853 88.9696 10.7584 88.4605Z" fill="#85E0CB"/>
<path d="M11.377 93.6342C11.3964 93.1128 11.3877 92.5907 11.3508 92.0702L7.47053 90.0123C7.46241 90.2221 7.46238 90.4376 7.47044 90.6588C7.48467 90.9751 7.52778 91.2895 7.59922 91.5979L11.3752 93.6362L11.377 93.6342Z" fill="#85E0CB"/>
<path d="M130.869 83.3548C130.831 83.8844 130.772 84.4766 130.682 85.099L132.321 83.2841L132.33 83.3144C132.23 82.8777 132.068 82.4572 131.85 82.0654L131.861 82.0941L130.869 83.3548Z" fill="#85E0CB"/>
<path d="M130.875 83.2619L131.836 82.0407C131.632 81.6681 131.336 81.3534 130.976 81.126C130.959 81.1155 130.941 81.1057 130.923 81.0959C130.929 81.2402 130.954 82.0869 130.875 83.2619Z" fill="#85E0CB"/>
<path d="M130.008 88.0497C129.966 88.1781 129.922 88.3042 129.877 88.4279L132.291 87.0148L132.294 87.0503C132.345 86.8305 132.387 86.6108 132.42 86.3911L130.01 88.0658L130.008 88.0497Z" fill="#85E0CB"/>
<path d="M130.344 86.8636L132.518 85.0735L132.524 85.107C132.532 84.5151 132.469 83.9243 132.338 83.3471L130.667 85.1967C130.579 85.7796 130.471 86.3352 130.344 86.8636Z" fill="#85E0CB"/>
<path d="M130.63 85.1615L128.028 82.2635L128.042 82.2308C127.797 82.5745 127.588 82.9421 127.418 83.3278L130.387 86.4834C130.488 86.0228 130.568 85.5769 130.63 85.1615Z" fill="#85E0CB"/>
<path d="M127.39 83.394L127.39 83.3941C127.395 83.383 127.399 83.371 127.404 83.36L127.39 83.394Z" fill="#85E0CB"/>
<path d="M130.37 86.5602L127.39 83.3931C127.339 83.5083 127.291 83.6268 127.245 83.7486L130.29 86.8953C130.318 86.7829 130.345 86.6713 130.37 86.5602Z" fill="#85E0CB"/>
<path d="M127.245 83.7485L127.231 83.7826C127.236 83.7709 127.241 83.7602 127.245 83.7485L127.245 83.7485Z" fill="#85E0CB"/>
<path d="M132.427 86.3488C132.486 85.9505 132.519 85.5486 132.524 85.1459L130.32 86.9602C130.233 87.312 130.137 87.6503 130.032 87.975L132.422 86.3142L132.427 86.3488Z" fill="#85E0CB"/>
<path d="M126.85 86.5746L129.262 89.7161C129.46 89.3337 129.635 88.9398 129.786 88.5365L126.843 85.4505C126.814 85.8363 126.81 86.2236 126.833 86.6098L126.85 86.5746Z" fill="#85E0CB"/>
<path d="M130.879 81.0933L130.901 81.0836C130.373 80.8019 129.801 80.8322 129.253 81.1178L130.833 83.2598C130.918 81.9885 130.88 81.106 130.879 81.0933Z" fill="#85E0CB"/>
<path d="M129.799 88.6381C129.66 89.001 129.502 89.3561 129.325 89.7018L131.751 88.4486L131.754 88.4835C131.936 88.1752 132.079 87.845 132.179 87.5009C132.217 87.3655 132.253 87.2297 132.284 87.0936L129.841 88.5235C129.827 88.5618 129.813 88.6003 129.799 88.6381Z" fill="#85E0CB"/>
<path d="M130.826 83.3545L129.21 81.1633L129.225 81.1321C128.763 81.3993 128.365 81.7654 128.061 82.2042L130.642 85.0785C130.731 84.4632 130.789 83.8779 130.826 83.3545Z" fill="#85E0CB"/>
<path d="M129.812 88.4657C129.992 87.9758 130.146 87.4766 130.272 86.9703L127.219 83.8157C127.146 84.0128 127.079 84.2177 127.018 84.4306C126.934 84.7358 126.878 85.048 126.85 85.3635L129.81 88.4671L129.812 88.4657Z" fill="#85E0CB"/>
<path d="M132.948 91.869C132.581 92.2529 132.157 92.6717 131.69 93.0933L134.112 92.7392L134.1 92.7684C134.302 92.3681 134.446 91.9415 134.528 91.501L134.518 91.5298L132.948 91.869Z" fill="#85E0CB"/>
<path d="M134.455 90.2211C134.449 90.2018 134.441 90.1829 134.434 90.1641C134.346 90.2786 133.824 90.9467 133.013 91.8015L134.533 91.473C134.614 91.0558 134.587 90.6251 134.455 90.2211Z" fill="#85E0CB"/>
<path d="M129.286 94.9368C129.171 95.0088 129.057 95.0781 128.943 95.1448L131.706 95.5936L131.685 95.6231C131.865 95.486 132.037 95.3435 132.204 95.1956L129.277 94.9506L129.286 94.9368Z" fill="#85E0CB"/>
<path d="M130.302 94.2371L133.12 94.2428L133.104 94.2725C133.488 93.8215 133.817 93.3267 134.085 92.7984L131.616 93.1592C131.176 93.5523 130.738 93.9116 130.302 94.2371Z" fill="#85E0CB"/>
<path d="M129.352 94.8945L132.254 95.1375L132.236 95.1672C132.536 94.8981 132.817 94.6092 133.079 94.3023L130.222 94.2965C129.93 94.5119 129.64 94.7112 129.352 94.8945Z" fill="#85E0CB"/>
<path d="M125.797 96.3283C125.818 96.3075 125.84 96.285 125.861 96.2629C126.453 96.1688 127.031 96.0039 127.583 95.7717L127.662 93.6836C127.686 93.6305 127.708 93.577 127.73 93.5231L127.647 95.7452C128.043 95.5769 128.43 95.385 128.804 95.1705L128.534 91.2888C128.555 91.278 128.576 91.2671 128.598 91.2557L128.867 95.1324L128.869 95.1328C129.321 94.87 129.758 94.5832 130.179 94.2735L129.885 90.4537C129.906 90.4385 129.927 90.4236 129.948 90.4081L130.241 94.2277C130.334 94.1588 130.426 94.0896 130.516 94.02L130.274 90.1532C130.295 90.1362 130.315 90.1192 130.336 90.102L130.578 93.9717C130.951 93.6817 131.297 93.3889 131.61 93.1083L131.458 89.2198L131.489 89.2034C131.381 89.2316 131.271 89.265 131.16 89.3014C131.369 89.0637 131.556 88.8085 131.721 88.5386L129.272 89.8038C129.102 90.1254 128.911 90.4354 128.701 90.7318C128.657 90.773 128.613 90.8142 128.57 90.8573L128.573 90.9037C128.553 90.93 128.533 90.9565 128.513 90.9823L128.509 90.9197C128.478 90.9514 128.448 90.9849 128.417 91.0174C128.727 90.6308 129 90.2153 129.23 89.7766L126.836 86.6581C126.852 86.9369 126.879 87.2175 126.914 87.4958C126.692 87.1349 126.422 86.8056 126.112 86.5168L126.131 86.5409L125.577 88.0461C125.706 88.5612 125.833 89.1426 125.939 89.7625L126.923 87.5613C126.927 87.5956 126.932 87.6298 126.937 87.664L125.956 89.8599C126.053 90.4414 126.122 91.0031 126.164 91.5451L127.342 89.6988C127.348 89.7253 127.355 89.7519 127.362 89.778L126.172 91.6442C126.198 92.0057 126.211 92.3571 126.212 92.6982L127.651 90.8025C127.659 90.8275 127.666 90.8516 127.674 90.8756L126.219 92.7913L126.212 92.7767C126.212 92.9118 126.209 93.0452 126.205 93.1768L127.828 91.352C127.837 91.3774 127.845 91.4008 127.852 91.4222L126.201 93.2786C126.199 93.3194 126.198 93.3603 126.196 93.4008C126.176 93.7886 126.136 94.1751 126.074 94.5585L126.231 94.4001C126.201 94.4616 126.172 94.5222 126.144 94.5819L126.055 94.6721C126.045 94.7307 126.033 94.7879 126.022 94.8455C125.989 94.9177 125.957 94.988 125.927 95.0567C125.956 94.925 125.984 94.7926 126.007 94.659L122.765 92.4321C123.611 94.5928 125.204 96.6481 125.306 96.7786C125.388 96.6242 125.464 96.4653 125.533 96.3031C125.553 96.3013 125.573 96.2994 125.593 96.2973C125.585 96.3172 125.576 96.3368 125.568 96.3565C125.557 96.3576 125.547 96.3592 125.537 96.3602C125.545 96.3624 125.554 96.365 125.563 96.3673C125.514 96.4806 125.464 96.592 125.41 96.6995C125.481 96.636 125.588 96.5356 125.717 96.4082C126.48 96.6025 128.534 97.0181 130.293 96.4042L127.598 95.819C127.021 96.0628 126.416 96.2339 125.797 96.3283ZM127.691 92.9241L127.756 92.8588L127.752 92.9567L127.687 93.022L127.691 92.9241Z" fill="#85E0CB"/>
<path d="M134.401 90.1341L134.424 90.1404C134.197 89.587 133.738 89.2462 133.133 89.1172L132.981 91.7728C133.859 90.8478 134.394 90.1442 134.401 90.1341Z" fill="#85E0CB"/>
<path d="M128.749 95.2568C128.41 95.4482 128.062 95.6209 127.704 95.7744L130.374 96.3541L130.353 96.3825C130.691 96.2614 131.012 96.0982 131.309 95.8966C131.425 95.8168 131.539 95.7347 131.65 95.65L128.855 95.1959C128.82 95.2163 128.784 95.2369 128.749 95.2568Z" fill="#85E0CB"/>
<path d="M131.672 93.0523C132.134 92.6352 132.553 92.2212 132.916 91.8416L133.071 89.1251L133.103 89.1107C132.576 89.022 132.036 89.0509 131.521 89.1954L131.672 93.0523Z" fill="#85E0CB"/>
<path d="M126.091 86.4977C125.781 86.2065 125.402 85.9985 124.99 85.8931C124.97 85.8886 124.95 85.8847 124.93 85.8809C124.98 86.0164 125.266 86.8139 125.555 87.9558L126.091 86.4977Z" fill="#85E0CB"/>
<path d="M125.909 89.838L122.538 87.8848L122.541 87.8493C122.415 88.2517 122.33 88.6658 122.287 89.0852L126.088 91.1702C126.042 90.7008 125.979 90.2522 125.909 89.838Z" fill="#85E0CB"/>
<path d="M122.253 89.5387L122.25 89.5753C122.251 89.5629 122.252 89.5512 122.253 89.5387L122.253 89.5387Z" fill="#85E0CB"/>
<path d="M122.28 89.157L122.281 89.1571C122.282 89.145 122.282 89.1323 122.283 89.1203L122.28 89.157Z" fill="#85E0CB"/>
<path d="M126.095 91.2486L122.281 89.156C122.268 89.2811 122.259 89.4087 122.253 89.5387L126.124 91.5916C126.115 91.4762 126.106 91.3619 126.095 91.2486Z" fill="#85E0CB"/>
<path d="M126.152 93.3081L122.397 91.2814C122.489 91.6573 122.606 92.0266 122.747 92.3869L122.752 92.3482L126.019 94.5917C126.089 94.1668 126.133 93.7382 126.152 93.3081Z" fill="#85E0CB"/>
<path d="M124.887 85.892L124.905 85.8761C124.315 85.7712 123.781 85.9764 123.348 86.4172L125.514 87.9668C125.201 86.7315 124.892 85.9038 124.887 85.892Z" fill="#85E0CB"/>
<path d="M125.537 88.0589L123.321 86.4737L123.326 86.4393C122.969 86.8361 122.704 87.307 122.551 87.818L125.895 89.7554C125.79 89.1426 125.663 88.5681 125.537 88.0589Z" fill="#85E0CB"/>
<path d="M126.155 93.2326C126.175 92.7112 126.166 92.1891 126.129 91.6686L122.249 89.6107C122.241 89.8205 122.241 90.036 122.249 90.2572C122.263 90.5735 122.306 90.8879 122.377 91.1964L126.153 93.2346L126.155 93.2326Z" fill="#85E0CB"/>
<path d="M8.15399 97.315H135V99.1268C135 99.8888 134.697 100.62 134.157 101.158C133.617 101.697 132.885 102 132.122 102H11.0321C10.2688 102 9.53672 101.697 8.99697 101.158C8.45722 100.62 8.15399 99.8888 8.15399 99.1268V97.315Z" fill="#2F2E41"/>
<path d="M135 95.8425H8.15399V98.3858H135V95.8425Z" fill="#3F3D56"/>
<path d="M106.459 8.83115L107.916 9.75341L107.031 8.14797C107.282 7.94842 107.592 7.83796 107.912 7.83407C107.92 7.83407 107.928 7.83414 107.935 7.83427C108.037 7.8359 108.138 7.82843 108.238 7.81196L108.731 8.1245L108.52 7.74035C108.87 7.61857 109.172 7.38955 109.383 7.08599L110.267 7.6454L109.709 6.63217C110.226 6.01292 110.922 5.63321 111.689 5.63321C112.608 5.63321 113.426 6.17877 113.955 7.0288C114.111 7.28314 114.332 7.49168 114.595 7.63327C114.858 7.77486 115.154 7.84445 115.452 7.83498C115.469 7.83437 115.485 7.83407 115.502 7.83407C116.516 7.83407 117.338 8.98229 117.338 10.3987C117.338 11.8151 116.516 12.9633 115.502 12.9633C115.279 12.9625 115.059 12.9076 114.862 12.8034C114.517 12.6359 114.139 12.5452 113.755 12.5378C113.371 12.5303 112.99 12.6061 112.639 12.76C112.342 12.8933 112.02 12.9626 111.694 12.9633C111.368 12.9641 111.046 12.8963 110.749 12.7644C110.4 12.6134 110.022 12.5391 109.642 12.5464C109.262 12.5537 108.888 12.6426 108.545 12.8069C108.35 12.9089 108.133 12.9626 107.912 12.9633C106.898 12.9633 106.075 11.8151 106.075 10.3987C106.069 9.85234 106.201 9.31328 106.459 8.83115Z" fill="#F2F2F2"/>
<path d="M32.3413 16.3634L33.268 16.95L32.7053 15.9288C32.8647 15.8018 33.0619 15.7316 33.2657 15.7291C33.2707 15.7291 33.2757 15.7291 33.2806 15.7292C33.345 15.7303 33.4094 15.7255 33.4729 15.715L33.787 15.9138L33.6523 15.6695C33.8749 15.592 34.0672 15.4463 34.2018 15.2532L34.7639 15.6091L34.4088 14.9645C34.5583 14.772 34.7489 14.6151 34.9667 14.5051C35.1845 14.3952 35.4241 14.3351 35.6681 14.3291C36.2527 14.3291 36.7734 14.6761 37.1095 15.2168C37.2089 15.3786 37.3494 15.5113 37.5167 15.6014C37.684 15.6914 37.8722 15.7357 38.0623 15.7297C38.0727 15.7293 38.0832 15.7291 38.0937 15.7291C38.739 15.7291 39.2621 16.4595 39.2621 17.3605C39.2621 18.2615 38.739 18.9919 38.0937 18.9919C37.9518 18.9914 37.8121 18.9565 37.6867 18.8902C37.467 18.7836 37.2268 18.726 36.9826 18.7212C36.7384 18.7164 36.4961 18.7647 36.2725 18.8626C36.0835 18.9474 35.8788 18.9915 35.6716 18.9919C35.4644 18.9924 35.2595 18.9493 35.0701 18.8654C34.8482 18.7693 34.6082 18.722 34.3663 18.7267C34.1245 18.7314 33.8865 18.7879 33.6684 18.8924C33.5441 18.9573 33.406 18.9914 33.2657 18.9919C32.6204 18.9919 32.0973 18.2615 32.0973 17.3605C32.0935 17.013 32.1774 16.67 32.3413 16.3634Z" fill="#F2F2F2"/>
<path d="M7.40115 19.5083L8.32786 20.095L7.76521 19.0737C7.92455 18.9468 8.12175 18.8765 8.3256 18.874C8.33058 18.874 8.33555 18.8741 8.34051 18.8742C8.4049 18.8752 8.46926 18.8704 8.53279 18.86L8.84684 19.0588L8.71222 18.8144C8.93473 18.7369 9.12703 18.5913 9.26164 18.3982L9.82375 18.754L9.46863 18.1095C9.61818 17.9169 9.80877 17.76 10.0266 17.6501C10.2444 17.5402 10.484 17.48 10.728 17.474C11.3125 17.474 11.8332 17.821 12.1694 18.3618C12.2688 18.5236 12.4092 18.6562 12.5766 18.7463C12.7439 18.8364 12.9321 18.8806 13.1221 18.8746C13.1326 18.8742 13.1431 18.874 13.1536 18.874C13.7989 18.874 14.322 19.6044 14.322 20.5054C14.322 21.4065 13.7989 22.1369 13.1536 22.1369C13.0117 22.1363 12.872 22.1014 12.7466 22.0351C12.5269 21.9286 12.2867 21.8709 12.0425 21.8661C11.7983 21.8614 11.556 21.9096 11.3323 22.0075C11.1434 22.0923 10.9386 22.1364 10.7315 22.1369C10.5243 22.1373 10.3194 22.0942 10.13 22.0103C9.90807 21.9143 9.66804 21.867 9.42619 21.8716C9.18434 21.8763 8.94633 21.9328 8.72828 22.0374C8.60397 22.1022 8.46587 22.1364 8.3256 22.1369C7.68029 22.1369 7.15716 21.4065 7.15716 20.5054C7.15341 20.1579 7.23731 19.815 7.40115 19.5083Z" fill="#F2F2F2"/>
<path d="M40.8589 79.8951L40.697 80.0567C40.697 80.0567 40.751 81.8341 40.8049 82.2112C40.8589 82.5882 41.0747 83.2345 40.9128 83.7193C40.751 84.204 40.697 84.581 40.751 84.6349C40.8049 84.6887 40.697 84.9042 40.697 84.9042L41.1286 84.6349L41.83 83.0191L41.5063 81.2955L40.8589 79.8951Z" fill="#85E0CB"/>
<path opacity="0.1" d="M40.8589 79.8951L40.697 80.0567C40.697 80.0567 40.751 81.8341 40.8049 82.2112C40.8589 82.5882 41.0747 83.2345 40.9128 83.7193C40.751 84.204 40.697 84.581 40.751 84.6349C40.8049 84.6887 40.697 84.9042 40.697 84.9042L41.1286 84.6349L41.83 83.0191L41.5063 81.2955L40.8589 79.8951Z" fill="black"/>
<path d="M43.7184 96.6458C43.7184 96.6458 43.7184 96.0533 43.6105 95.9456C43.5025 95.8379 43.3407 95.4609 43.1249 95.4609C42.9091 95.4609 42.1537 95.6763 42.1537 95.7302C42.1599 95.8983 42.1227 96.0652 42.0458 96.2149C41.9379 96.3765 41.3444 97.0228 41.9379 97.1305C42.1352 97.1629 42.337 97.1558 42.5315 97.1095C42.726 97.0633 42.9094 96.9789 43.0709 96.8612C43.1249 96.8074 43.3407 96.7535 43.3946 96.8074C43.4486 96.8612 43.7184 96.6458 43.7184 96.6458Z" fill="#85E0CB"/>
<path d="M45.2291 95.6763L45.5528 96.2688C45.5528 96.2688 45.6607 96.8074 45.8225 96.8613H45.9844C45.9844 96.8613 46.1463 97.4537 46.5239 97.3999C46.9016 97.346 47.3332 97.1306 47.3332 97.0228C47.3332 96.9151 47.3332 96.5919 47.1714 96.4842C46.9444 96.2992 46.7282 96.1014 46.5239 95.8918L46.2542 95.6225L45.2291 95.6763Z" fill="#85E0CB"/>
<path d="M41.0884 75.9468C40.9846 75.9997 40.895 76.0767 40.8272 76.1713C40.7593 76.266 40.7153 76.3755 40.6987 76.4907C40.6687 76.8753 41.0494 77.2376 40.9269 77.6034C40.8574 77.8111 40.6408 77.9457 40.5784 78.1556C40.5456 78.3231 40.5702 78.4967 40.6483 78.6485C40.7335 78.8566 40.8372 79.0567 40.9582 79.2464C41.1856 79.6029 41.4816 79.9411 41.5424 80.3593C41.5593 80.4325 41.5585 80.5086 41.5402 80.5814C41.5219 80.6541 41.4866 80.7216 41.4371 80.7781C41.5466 80.6954 41.6719 80.6359 41.8052 80.6033C42.3567 80.4194 42.869 80.1345 43.3159 79.7634C43.4784 79.6494 43.6006 79.4871 43.6653 79.2998C43.7476 78.9688 43.496 78.6378 43.5202 78.2977C43.5356 78.0801 43.6614 77.888 43.7326 77.6818C43.7945 77.4765 43.8142 77.2609 43.7906 77.0478C43.7669 76.8347 43.7004 76.6286 43.595 76.4419C43.5076 76.2612 43.3844 76.1002 43.2328 75.9685C43.0812 75.8369 42.9044 75.7374 42.713 75.6761C42.4187 75.6077 42.1117 75.6166 41.8218 75.7018C41.5685 75.7543 41.3223 75.8365 41.0884 75.9468Z" fill="#2F2E41"/>
<path d="M41.3922 78.9335C41.511 78.7131 41.6869 78.5287 41.9015 78.3994C42.1162 78.2701 42.3617 78.2007 42.6123 78.1985C43.4756 78.1985 43.3137 78.1447 43.3137 78.1447L43.0439 79.2219L42.5044 79.7605L41.3922 78.9335Z" fill="#85E0CB"/>
<path d="M41.6143 77.7946C41.6143 77.7946 42.0998 78.6025 41.7761 78.9257C41.4524 79.2488 41.6143 79.572 41.6682 79.6259C41.7222 79.6797 43.2328 79.7874 43.2328 79.7874L43.2868 79.0334L43.4486 78.3871C43.4486 78.3871 42.5854 78.2255 42.6933 77.8485C42.8012 77.4714 41.6143 77.7946 41.6143 77.7946Z" fill="#FBBEBE"/>
<path opacity="0.1" d="M41.6143 77.7946C41.6143 77.7946 42.0998 78.6025 41.7761 78.9257C41.4524 79.2488 41.6143 79.572 41.6682 79.6259C41.7222 79.6797 43.2328 79.7874 43.2328 79.7874L43.2868 79.0334L43.4486 78.3871C43.4486 78.3871 42.5854 78.2255 42.6933 77.8485C42.8012 77.4714 41.6143 77.7946 41.6143 77.7946Z" fill="black"/>
<path d="M45.3909 85.4428C45.3332 85.6277 45.261 85.8078 45.1751 85.9814C45.1211 86.0353 44.9593 85.6044 44.9593 85.6044L45.1211 85.2274L45.3909 85.4428Z" fill="#FBBEBE"/>
<path d="M44.7705 82.9921L44.9862 84.231H41.7491L41.9109 82.9921H44.7705Z" fill="#FBBEBE"/>
<path d="M42.2077 78.2255C42.7739 78.2255 43.2328 77.7673 43.2328 77.2021C43.2328 76.6369 42.7739 76.1788 42.2077 76.1788C41.6416 76.1788 41.1826 76.6369 41.1826 77.2021C41.1826 77.7673 41.6416 78.2255 42.2077 78.2255Z" fill="#FBBEBE"/>
<path d="M42.4235 79.3027C42.4235 79.3027 41.83 79.3565 41.83 79.2488C41.83 79.1411 41.7761 78.8179 41.6682 78.8718C41.5603 78.9257 40.8589 78.9795 40.9128 79.1411C40.9668 79.3027 41.0747 79.6258 40.9668 79.6258C40.9201 79.6354 40.8759 79.6542 40.8368 79.6813C40.7977 79.7085 40.7645 79.7432 40.7393 79.7835C40.7141 79.8238 40.6973 79.8688 40.69 79.9158C40.6828 79.9628 40.6851 80.0107 40.697 80.0567C40.751 80.326 41.3444 81.9419 41.3444 81.9419C41.3444 81.9419 41.3984 82.4805 41.5603 82.6421C41.6261 82.7268 41.6618 82.831 41.6618 82.9383C41.6618 83.0455 41.6261 83.1498 41.5603 83.2345C41.4523 83.3422 41.83 83.45 41.9919 83.6654C42.1537 83.8809 43.3946 83.7193 43.4486 83.6654C43.5025 83.6115 44.7974 83.6116 44.9053 83.5038C45.0132 83.3961 44.8514 83.0729 44.8514 83.0729C44.8514 83.0729 44.7974 82.5882 44.8514 82.4266C44.9053 82.265 44.6355 79.6259 44.4737 79.4643C44.3118 79.3027 44.9593 78.818 44.9593 78.818C44.9593 78.818 44.8514 78.3871 44.15 78.3332C44.15 78.3332 43.9342 78.01 43.7184 78.01C43.5025 78.01 43.034 78.2606 43.034 78.2606C43.034 78.2606 42.9091 78.9795 42.7472 79.0334C42.6193 79.096 42.5082 79.1883 42.4235 79.3027Z" fill="#85E0CB"/>
<path d="M44.5816 78.6564L44.9593 78.818C44.9593 78.818 46.0384 82.1573 45.9304 82.8036C45.8225 83.45 45.5528 85.6583 45.3909 85.6583C45.2291 85.6583 44.9054 85.3351 44.9054 85.3351V84.7965C44.9054 84.6888 44.7435 84.3656 44.8514 84.3656C44.9593 84.3656 45.1212 84.2579 45.0133 84.1502C44.9054 84.0424 44.7974 83.8809 44.9054 83.7193C45.0133 83.5577 45.0672 83.5038 45.0133 83.3422C44.9593 83.1807 44.8514 83.0191 44.9593 82.9113C45.0672 82.8036 44.6895 82.265 44.6895 82.265L44.0961 79.8952L44.204 78.9257L44.5816 78.6564Z" fill="#85E0CB"/>
<path d="M44.7974 83.7731C44.7974 83.7731 42.7473 83.6115 42.4775 83.6115C42.2077 83.6115 41.6025 83.3579 41.6025 83.3579C41.6025 83.3579 40.0496 84.9042 40.5892 87.4356C41.1287 89.9671 41.2366 93.091 41.5603 94.0066C41.7803 94.6594 41.9605 95.3249 42.0998 95.9995C42.0998 95.9995 42.6393 95.03 43.6644 96.1072C43.6644 96.1072 43.7723 95.2993 43.6105 94.9761C43.4486 94.653 43.2328 92.9294 43.2328 92.9294C43.2328 92.9294 42.8552 90.1825 42.8552 89.8594C42.8552 89.5362 42.6393 86.7893 42.6933 86.7354C42.7473 86.6816 43.017 88.836 43.071 89.213C43.1249 89.59 43.2868 92.4985 43.4486 92.8217C43.6105 93.1448 44.3658 95.7302 44.7974 95.8917C45.2291 96.0533 46.6858 95.8379 46.6318 95.7302C46.5779 95.6224 46.2002 95.03 46.0923 94.8684L45.6607 94.2221L44.6356 90.7211L45.1212 86.4661C45.1212 86.4661 45.3909 83.7193 44.7974 83.7731Z" fill="#2F2E41"/>
<path d="M42.8322 77.0675H41.5176C41.4618 77.0675 41.4079 77.0476 41.3655 77.0114C41.3231 76.9753 41.295 76.9252 41.2863 76.8702L41.1556 76.0441H43.2058L43.0225 76.9133C43.0134 76.9569 42.9894 76.996 42.9547 77.0241C42.9201 77.0522 42.8768 77.0675 42.8322 77.0675Z" fill="#2F2E41"/>
<path d="M110.583 76.8125H112.657V79.7705C112.385 79.7705 112.115 79.7169 111.864 79.6129C111.612 79.5088 111.383 79.3563 111.191 79.164C110.998 78.9717 110.845 78.7435 110.741 78.4923C110.637 78.2411 110.583 77.9718 110.583 77.6999V76.8125Z" fill="#2F2E41"/>
<path d="M109.373 94.1414L109.225 94.881H110.262L110.312 94.1414H109.373Z" fill="#A0616A"/>
<path d="M109.373 94.7331C109.373 94.7331 109.176 94.5852 109.077 94.6838C108.978 94.7824 108.633 96.7051 108.583 96.7544C108.534 96.8037 107.052 97.5432 107.398 97.5925C107.744 97.6418 109.077 97.6911 109.275 97.5925C109.472 97.4939 110.015 96.5572 110.015 96.5572V97.3953H110.114C110.114 97.3953 110.213 96.5079 110.46 96.2614C110.707 96.0149 110.262 95.1768 110.262 95.1768C110.262 95.1768 110.361 94.6345 110.312 94.6345C110.262 94.6345 109.373 94.7331 109.373 94.7331Z" fill="#85E0CB"/>
<path d="M112.435 93.6238L112.287 94.3634H113.324L113.373 93.6238H112.435Z" fill="#A0616A"/>
<path d="M111.25 88.8171C111.25 88.8171 111.744 90.2961 111.843 90.444C111.941 90.5919 112.287 93.3527 112.287 93.3527C112.287 93.3527 111.941 93.895 112.386 93.9443C112.83 93.9936 112.633 93.8457 112.929 93.9443C113.01 93.9747 113.096 93.9861 113.182 93.9775C113.267 93.969 113.35 93.9407 113.423 93.895C113.423 93.895 113.571 93.5992 113.472 93.5006C113.374 93.402 113.571 90.8384 113.571 90.8384L113.275 89.951L113.028 87.1409C113.028 87.1409 113.324 86.4014 113.176 86.2042C113.028 86.007 112.534 86.3521 112.534 86.3521L111.25 88.8171Z" fill="#2F2E41"/>
<path d="M110.608 84.9717C110.608 84.9717 110.46 86.5493 110.361 86.6479C110.262 86.7465 109.176 89.5073 109.176 89.5073C109.176 89.5073 108.88 89.8524 108.978 91.1342C109.077 92.416 109.324 93.6978 109.324 93.6978C109.324 93.6978 109.126 94.4373 109.472 94.4373C109.818 94.4373 109.966 94.2401 110.114 94.388C110.262 94.5359 110.361 94.388 110.41 94.2894C110.46 94.1908 110.657 93.8457 110.657 93.7471C110.657 93.6485 110.855 91.1342 110.855 91.1342C110.855 91.1342 112.485 87.5353 112.633 87.3381C112.781 87.1409 113.62 86.0563 113.571 85.3168L110.608 84.9717Z" fill="#2F2E41"/>
<path d="M111.843 78.3161C112.415 78.3161 112.88 77.8526 112.88 77.2808C112.88 76.709 112.415 76.2455 111.843 76.2455C111.27 76.2455 110.806 76.709 110.806 77.2808C110.806 77.8526 111.27 78.3161 111.843 78.3161Z" fill="#A0616A"/>
<path d="M111.645 78.1682C111.645 78.1682 112.04 79.0556 112.089 79.3021C112.139 79.5486 113.077 78.8091 113.077 78.8091C113.077 78.8091 112.583 77.971 112.731 77.5766L111.645 78.1682Z" fill="#A0616A"/>
<path d="M113.225 78.6612C113.225 78.6612 112.485 78.1189 111.941 79.2528C111.398 80.3867 111.25 80.3374 111.25 80.3374C111.25 80.3374 110.608 80.5346 110.805 81.915C111.003 83.2955 110.163 85.1196 110.509 85.2182C110.855 85.3168 114.065 85.8591 114.065 85.4647C114.065 85.0703 113.769 83.542 114.015 82.6053C114.262 81.6685 113.67 78.4147 113.225 78.6612Z" fill="#3F3D56"/>
<path d="M112.485 78.9077C112.485 78.9077 111.892 79.7951 111.941 80.4853C111.991 81.1755 111.991 81.6192 111.991 81.6192C111.991 81.6192 111.003 86.3521 111.201 86.3521C111.398 86.3521 111.991 86.5986 112.04 86.4507C112.09 86.3028 113.324 83.2955 113.324 83.2955C113.324 83.2955 113.62 80.2881 113.275 79.5979C112.929 78.9077 112.485 78.9077 112.485 78.9077Z" fill="#3F3D56"/>
<path d="M111.299 86.2042C111.299 86.2042 110.806 87.8804 111.497 87.9297C112.188 87.979 111.793 86.3028 111.793 86.3028L111.299 86.2042Z" fill="#A0616A"/>
<path d="M112.614 93.9794C112.614 93.9794 112.441 93.8498 112.354 93.9362C112.268 94.0225 111.965 95.7063 111.922 95.7495C111.879 95.7926 110.581 96.4402 110.884 96.4834C111.187 96.5266 112.354 96.5698 112.527 96.4834C112.7 96.3971 113.176 95.5768 113.176 95.5768V96.3107H113.262C113.262 96.3107 113.349 95.5336 113.565 95.3177C113.781 95.1019 113.392 94.3679 113.392 94.3679C113.392 94.3679 113.479 93.893 113.435 93.893C113.392 93.893 112.614 93.9794 112.614 93.9794Z" fill="#85E0CB"/>
<path d="M111.33 76.6024C111.363 76.5623 111.406 76.5318 111.455 76.5141C111.501 76.5059 111.548 76.5099 111.591 76.5258C111.901 76.616 112.169 76.811 112.351 77.0773C112.386 77.1451 112.439 77.2022 112.504 77.2426C112.546 77.2553 112.588 77.271 112.628 77.2897C112.743 77.3659 112.674 77.5425 112.608 77.6637C112.438 77.9755 112.359 78.3288 112.381 78.683C112.38 78.7447 112.398 78.8051 112.433 78.8558C112.489 78.9075 112.562 78.9366 112.639 78.9376C112.878 78.9676 113.12 78.9805 113.361 78.9762C113.598 78.9719 113.86 78.9385 114.013 78.7587C114.178 78.5654 114.152 78.2694 114.045 78.0393C113.938 77.8092 113.764 77.6169 113.64 77.3953C113.522 77.1611 113.43 76.9154 113.363 76.6621C113.278 76.3388 113.14 76.0316 112.955 75.7527C112.862 75.6138 112.741 75.4955 112.6 75.4052C112.459 75.315 112.301 75.2546 112.135 75.228C111.687 75.178 111.273 75.4538 110.912 75.7249C110.507 76.0293 110.077 76.4059 110.044 76.9109C110.018 77.32 110.264 77.6901 110.392 78.0794C110.591 78.6805 110.508 79.3334 110.422 79.9605C110.788 79.7418 111.202 79.4382 111.178 79.0133C111.162 78.7267 110.945 78.4979 110.81 78.2444C110.439 77.5471 110.862 77.0797 111.33 76.6024Z" fill="#2F2E41"/>
<path d="M125.914 81.6413C126.228 81.0944 126.39 80.4739 126.384 79.8437C126.384 78.2192 125.376 76.9022 124.133 76.9022C122.89 76.9022 121.882 78.2192 121.882 79.8437C121.876 80.4739 122.038 81.0944 122.352 81.6413C122.044 82.1905 121.882 82.8094 121.882 83.4388C121.882 84.0683 122.044 84.6872 122.352 85.2364C122.044 85.7856 121.882 86.4045 121.882 87.034C121.882 87.6634 122.044 88.2823 122.352 88.8315C122.044 89.3808 121.882 89.9997 121.882 90.6291C121.882 91.2586 122.044 91.8775 122.352 92.4267C122.038 92.9735 121.876 93.594 121.882 94.2243C121.882 95.8488 122.89 97.1657 124.133 97.1657C125.376 97.1657 126.384 95.8488 126.384 94.2243C126.39 93.594 126.228 92.9735 125.914 92.4267C126.222 91.8775 126.384 91.2586 126.384 90.6291C126.384 89.9997 126.222 89.3808 125.914 88.8315C126.222 88.2823 126.384 87.6634 126.384 87.034C126.384 86.4045 126.222 85.7856 125.914 85.2364C126.222 84.6872 126.384 84.0683 126.384 83.4388C126.384 82.8094 126.222 82.1905 125.914 81.6413Z" fill="#3F3D56"/>
<path d="M124.133 79.19C125.376 79.19 126.384 77.8731 126.384 76.2486C126.384 74.624 125.376 73.3071 124.133 73.3071C122.89 73.3071 121.882 74.624 121.882 76.2486C121.882 77.8731 122.89 79.19 124.133 79.19Z" fill="#3F3D56"/>
<path d="M124.133 75.5949C125.376 75.5949 126.384 74.278 126.384 72.6534C126.384 71.0289 125.376 69.7119 124.133 69.7119C122.89 69.7119 121.882 71.0289 121.882 72.6534C121.882 74.278 122.89 75.5949 124.133 75.5949Z" fill="#3F3D56"/>
<path d="M132.559 48.0508C132.866 47.66 133.146 47.2484 133.397 46.819L127.483 45.8494L133.879 45.8968C134.493 44.5641 134.827 43.1203 134.863 41.654C134.898 40.1876 134.633 38.7294 134.085 37.3687L125.504 41.8127L133.418 36.0052C132.676 34.7262 131.679 33.6132 130.488 32.7357C129.297 31.8582 127.937 31.235 126.494 30.9048C125.052 30.5746 123.556 30.5446 122.101 30.8166C120.646 31.0885 119.263 31.6567 118.037 32.4857C116.812 33.3147 115.77 34.3867 114.978 35.6349C114.186 36.8832 113.659 38.281 113.431 39.7412C113.204 41.2014 113.28 42.6927 113.655 44.1224C114.03 45.552 114.695 46.8892 115.61 48.0508C115.131 48.659 114.719 49.3171 114.381 50.0136L122.058 53.9952L113.872 51.2526C113.297 52.9488 113.155 54.7613 113.459 56.526C113.762 58.2908 114.502 59.9522 115.61 61.3598C114.36 62.9474 113.582 64.8543 113.365 66.8626C113.149 68.8708 113.503 70.8993 114.387 72.7162C115.271 74.5331 116.649 76.0649 118.364 77.1367C120.079 78.2085 122.061 78.7768 124.085 78.7768C126.108 78.7768 128.09 78.2085 129.805 77.1367C131.52 76.0649 132.899 74.5331 133.782 72.7162C134.666 70.8993 135.02 68.8708 134.804 66.8626C134.588 64.8543 133.81 62.9474 132.559 61.3598C134.053 59.4626 134.866 57.119 134.866 54.7053C134.866 52.2916 134.053 49.948 132.559 48.0508V48.0508Z" fill="#F2F2F2"/>
<path d="M113.303 54.7053C113.3 57.1196 114.113 59.4644 115.61 61.3598C114.36 62.9474 113.582 64.8543 113.365 66.8626C113.149 68.8708 113.503 70.8993 114.387 72.7162C115.271 74.5331 116.649 76.0649 118.364 77.1367C120.079 78.2084 122.061 78.7768 124.085 78.7768C126.108 78.7768 128.09 78.2084 129.805 77.1367C131.52 76.0649 132.898 74.5331 133.782 72.7162C134.666 70.8993 135.02 68.8708 134.804 66.8626C134.588 64.8543 133.809 62.9474 132.559 61.3598C134.004 59.5285 113.303 53.4973 113.303 54.7053Z" fill="#F2F2F2"/>
<path d="M132.559 48.0508C132.866 47.66 133.146 47.2484 133.397 46.819L127.483 45.8494L133.879 45.8968C134.493 44.5641 134.827 43.1203 134.863 41.654C134.898 40.1876 134.633 38.7294 134.085 37.3687L125.504 41.8127L133.418 36.0052C132.676 34.7262 131.679 33.6132 130.488 32.7357C129.297 31.8582 127.937 31.235 126.494 30.9048C125.052 30.5746 123.556 30.5446 122.101 30.8166C120.646 31.0885 119.263 31.6567 118.037 32.4857C116.812 33.3147 115.77 34.3867 114.978 35.6349C114.186 36.8832 113.659 38.281 113.431 39.7412C113.204 41.2014 113.28 42.6927 113.655 44.1224C114.03 45.552 114.695 46.8892 115.61 48.0508C115.131 48.659 114.719 49.3171 114.381 50.0136L122.058 53.9952L113.872 51.2526C113.297 52.9488 113.155 54.7613 113.459 56.526C113.762 58.2908 114.502 59.9522 115.61 61.3598C114.36 62.9474 113.582 64.8543 113.365 66.8626C113.149 68.8708 113.503 70.8993 114.387 72.7162C115.271 74.5331 116.649 76.0649 118.364 77.1367C120.079 78.2085 122.061 78.7768 124.085 78.7768C126.108 78.7768 128.09 78.2085 129.805 77.1367C131.52 76.0649 132.899 74.5331 133.782 72.7162C134.666 70.8993 135.02 68.8708 134.804 66.8626C134.588 64.8543 133.81 62.9474 132.559 61.3598C134.053 59.4626 134.866 57.119 134.866 54.7053C134.866 52.2916 134.053 49.948 132.559 48.0508V48.0508Z" fill="#57B894"/>
<path opacity="0.1" d="M113.303 54.7053C113.3 57.1196 114.113 59.4644 115.61 61.3598C114.36 62.9474 113.582 64.8543 113.365 66.8626C113.149 68.8708 113.503 70.8993 114.387 72.7162C115.271 74.5331 116.649 76.0649 118.364 77.1367C120.079 78.2084 122.061 78.7768 124.085 78.7768C126.108 78.7768 128.09 78.2084 129.805 77.1367C131.52 76.0649 132.898 74.5331 133.782 72.7162C134.666 70.8993 135.02 68.8708 134.804 66.8626C134.588 64.8543 133.809 62.9474 132.559 61.3598C134.004 59.5285 113.303 53.4973 113.303 54.7053Z" fill="black"/>
<path d="M12.6106 81.6413C12.9244 81.0944 13.0866 80.4739 13.0804 79.8437C13.0804 78.2192 12.0727 76.9022 10.8296 76.9022C9.5865 76.9022 8.57879 78.2192 8.57879 79.8437C8.57258 80.4739 8.73474 81.0944 9.04857 81.6413C8.74054 82.1905 8.57879 82.8094 8.57879 83.4388C8.57879 84.0683 8.74054 84.6872 9.04857 85.2364C8.74054 85.7856 8.57879 86.4045 8.57879 87.034C8.57879 87.6634 8.74054 88.2823 9.04857 88.8315C8.74054 89.3808 8.57879 89.9997 8.57879 90.6291C8.57879 91.2586 8.74054 91.8775 9.04857 92.4267C8.73474 92.9735 8.57258 93.594 8.57879 94.2243C8.57879 95.8488 9.5865 97.1657 10.8296 97.1657C12.0727 97.1657 13.0804 95.8488 13.0804 94.2243C13.0866 93.594 12.9244 92.9735 12.6106 92.4267C12.9186 91.8775 13.0804 91.2586 13.0804 90.6291C13.0804 89.9997 12.9186 89.3808 12.6106 88.8315C12.9186 88.2823 13.0804 87.6634 13.0804 87.034C13.0804 86.4045 12.9186 85.7856 12.6106 85.2364C12.9186 84.6872 13.0804 84.0683 13.0804 83.4388C13.0804 82.8094 12.9186 82.1905 12.6106 81.6413Z" fill="#3F3D56"/>
<path d="M10.8296 79.19C12.0727 79.19 13.0804 77.8731 13.0804 76.2486C13.0804 74.624 12.0727 73.3071 10.8296 73.3071C9.58651 73.3071 8.5788 74.624 8.5788 76.2486C8.5788 77.8731 9.58651 79.19 10.8296 79.19Z" fill="#3F3D56"/>
<path d="M10.8296 75.5949C12.0727 75.5949 13.0804 74.278 13.0804 72.6534C13.0804 71.0289 12.0727 69.7119 10.8296 69.7119C9.58651 69.7119 8.5788 71.0289 8.5788 72.6534C8.5788 74.278 9.58651 75.5949 10.8296 75.5949Z" fill="#3F3D56"/>
<path d="M19.2554 48.0508C19.5629 47.66 19.843 47.2484 20.0936 46.819L14.1795 45.8494L20.5758 45.8968C21.1894 44.5641 21.5241 43.1203 21.5595 41.654C21.5949 40.1876 21.3303 38.7294 20.7817 37.3687L12.2003 41.8127L20.1143 36.0052C19.3729 34.7262 18.3756 33.6132 17.1845 32.7357C15.9934 31.8582 14.6341 31.235 13.1912 30.9048C11.7483 30.5746 10.2528 30.5446 8.79773 30.8166C7.34271 31.0885 5.95937 31.6567 4.73389 32.4857C3.50842 33.3147 2.46706 34.3867 1.67469 35.6349C0.882321 36.8832 0.355916 38.281 0.128266 39.7412C-0.0993831 41.2014 -0.0233994 42.6927 0.351485 44.1224C0.726369 45.552 1.39212 46.8892 2.30727 48.0508C1.82795 48.659 1.41572 49.3171 1.0777 50.0136L8.75468 53.9952L0.568873 51.2526C-0.0058935 52.9488 -0.147937 54.7613 0.155597 56.526C0.45913 58.2908 1.19866 59.9522 2.30727 61.3598C1.05641 62.9474 0.278283 64.8543 0.0618613 66.8626C-0.15456 68.8708 0.199455 70.8993 1.08343 72.7162C1.96741 74.5331 3.34567 76.0649 5.06064 77.1367C6.77561 78.2085 8.75806 78.7768 10.7813 78.7768C12.8046 78.7768 14.7871 78.2085 16.5021 77.1367C18.217 76.0649 19.5953 74.5331 20.4793 72.7162C21.3632 70.8993 21.7173 68.8708 21.5008 66.8626C21.2844 64.8543 20.5063 62.9474 19.2554 61.3598C20.7501 59.4626 21.5627 57.119 21.5627 54.7053C21.5627 52.2916 20.7501 49.948 19.2554 48.0508L19.2554 48.0508Z" fill="#F2F2F2"/>
<path d="M1.27266e-05 54.7053C-0.00370978 57.1196 0.809289 59.4644 2.30727 61.3598C1.05641 62.9474 0.278287 64.8543 0.0618654 66.8626C-0.154556 68.8708 0.199459 70.8993 1.08344 72.7162C1.96741 74.5331 3.34568 76.0649 5.06064 77.1367C6.77561 78.2084 8.75807 78.7768 10.7814 78.7768C12.8046 78.7768 14.7871 78.2084 16.5021 77.1367C18.217 76.0649 19.5953 74.5331 20.4793 72.7162C21.3632 70.8993 21.7173 68.8708 21.5008 66.8626C21.2844 64.8543 20.5063 62.9474 19.2554 61.3598C20.7005 59.5285 1.27266e-05 53.4973 1.27266e-05 54.7053Z" fill="#F2F2F2"/>
<path d="M19.2554 48.0508C19.5629 47.66 19.843 47.2484 20.0936 46.819L14.1795 45.8494L20.5758 45.8968C21.1894 44.5641 21.5241 43.1203 21.5595 41.654C21.5949 40.1876 21.3303 38.7294 20.7817 37.3687L12.2003 41.8127L20.1143 36.0052C19.3729 34.7262 18.3756 33.6132 17.1845 32.7357C15.9934 31.8582 14.6341 31.235 13.1912 30.9048C11.7483 30.5746 10.2528 30.5446 8.79773 30.8166C7.34271 31.0885 5.95937 31.6567 4.73389 32.4857C3.50842 33.3147 2.46706 34.3867 1.67469 35.6349C0.882321 36.8832 0.355916 38.281 0.128266 39.7412C-0.0993831 41.2014 -0.0233994 42.6927 0.351485 44.1224C0.726369 45.552 1.39212 46.8892 2.30727 48.0508C1.82795 48.659 1.41572 49.3171 1.0777 50.0136L8.75468 53.9952L0.568873 51.2526C-0.0058935 52.9488 -0.147937 54.7613 0.155597 56.526C0.45913 58.2908 1.19866 59.9522 2.30727 61.3598C1.05641 62.9474 0.278283 64.8543 0.0618613 66.8626C-0.15456 68.8708 0.199455 70.8993 1.08343 72.7162C1.96741 74.5331 3.34567 76.0649 5.06064 77.1367C6.77561 78.2085 8.75806 78.7768 10.7813 78.7768C12.8046 78.7768 14.7871 78.2085 16.5021 77.1367C18.217 76.0649 19.5953 74.5331 20.4793 72.7162C21.3632 70.8993 21.7173 68.8708 21.5008 66.8626C21.2844 64.8543 20.5063 62.9474 19.2554 61.3598C20.7501 59.4626 21.5627 57.119 21.5627 54.7053C21.5627 52.2916 20.7501 49.948 19.2554 48.0508L19.2554 48.0508Z" fill="#57B894"/>
<path opacity="0.1" d="M1.27266e-05 54.7053C-0.00370978 57.1196 0.809289 59.4644 2.30727 61.3598C1.05641 62.9474 0.278287 64.8543 0.0618654 66.8626C-0.154556 68.8708 0.199459 70.8993 1.08344 72.7162C1.96741 74.5331 3.34568 76.0649 5.06064 77.1367C6.77561 78.2084 8.75807 78.7768 10.7814 78.7768C12.8046 78.7768 14.7871 78.2084 16.5021 77.1367C18.217 76.0649 19.5953 74.5331 20.4793 72.7162C21.3632 70.8993 21.7173 68.8708 21.5008 66.8626C21.2844 64.8543 20.5063 62.9474 19.2554 61.3598C20.7005 59.5285 1.27266e-05 53.4973 1.27266e-05 54.7053Z" fill="black"/>
<path d="M77.6968 47.4603L72.3473 52.8007L69.8126 50.2705L68.8259 51.2555L72.3439 54.7676L78.6837 48.4453L77.6968 47.4603Z" fill="#57B894"/>
<path d="M94.7258 35.2791L89.3762 40.6196L86.8416 38.0894L85.8549 39.0744L89.3729 42.5865L95.7126 36.2642L94.7258 35.2791Z" fill="#57B894"/>
</g>
<defs>
<clipPath id="clip0_632_69303">
<rect width="135" height="102" fill="white"/>
</clipPath>
</defs>
</svg>
