<svg width="100" height="100" viewBox="0 0 100 100" fill="none" xmlns="http://www.w3.org/2000/svg">
<path d="M50.1313 98.122C49.6829 98.1183 49.2292 98.1151 48.7838 98.1007L48.7976 97.6314C49.2385 97.6456 49.6893 97.6521 50.1314 97.6525C50.5755 97.6525 51.028 97.645 51.4769 97.6298L51.4914 98.0988C51.0375 98.1142 50.5801 98.122 50.1313 98.122ZM46.0821 97.9237C45.1874 97.8352 44.2838 97.7153 43.3965 97.5675L43.4674 97.1039C44.3452 97.2502 45.2392 97.3689 46.1244 97.4565L46.0821 97.9237ZM54.1927 97.9187L54.1499 97.4515C55.0349 97.363 55.9287 97.2431 56.8065 97.0955L56.878 97.559C55.9907 97.7082 55.0872 97.8293 54.1927 97.9187H54.1927ZM40.7382 97.0317C39.8622 96.8243 38.9807 96.584 38.1185 96.3179L38.2459 95.8676C39.0989 96.131 39.9709 96.3685 40.8376 96.5737L40.7382 97.0317ZM59.5356 97.02L59.4358 96.5625C60.3045 96.3555 61.1762 96.1168 62.0267 95.853L62.1547 96.3032C61.295 96.5698 60.4137 96.811 59.5356 97.02H59.5356ZM35.5479 95.4293C34.7026 95.105 33.8568 94.7478 33.0341 94.3675L33.216 93.9384C34.0299 94.3143 34.8665 94.6678 35.7029 94.9887L35.5479 95.4293ZM64.7239 95.411L64.5685 94.9704C65.3997 94.6506 66.2335 94.2973 67.0467 93.9205L67.2291 94.3496C66.4069 94.7306 65.5641 95.0878 64.7239 95.411H64.7239ZM30.5919 93.1388C29.7964 92.7051 29.002 92.2374 28.231 91.7491L28.464 91.3475C29.2269 91.831 30.0128 92.2934 30.7999 92.7225L30.5919 93.1388ZM69.6644 93.1216L69.4564 92.7055C70.2416 92.2766 71.0257 91.8142 71.7865 91.3312L72.02 91.7324C71.2508 92.2207 70.4584 92.6879 69.6644 93.1216H69.6644ZM25.9607 90.2045C25.2239 89.6674 24.4937 89.0977 23.7901 88.5118L24.0704 88.1446C24.7665 88.7245 25.489 89.288 26.2179 89.8194L25.9607 90.2045ZM74.2865 90.1878L74.0289 89.8031C74.7577 89.271 75.4792 88.7076 76.1736 88.1283L76.4541 88.4951C75.7522 89.0806 75.023 89.65 74.2865 90.1878ZM21.7276 86.6777C21.0616 86.0461 20.4067 85.3843 19.7816 84.711L20.1042 84.3841C20.7227 85.0503 21.3707 85.705 22.0298 86.3301L21.7276 86.6777ZM78.5145 86.6614L78.2121 86.3139C78.8696 85.6901 79.517 85.0349 80.1365 84.3671L80.4591 84.6936C79.8332 85.3687 79.1788 86.0307 78.5145 86.6614ZM17.9597 82.6194C17.3765 81.9051 16.8079 81.1621 16.2695 80.4111L16.6293 80.1296C17.162 80.8728 17.7246 81.608 18.3016 82.3145L17.9597 82.6194ZM82.2805 82.5999L81.9386 82.2955C82.5155 81.5883 83.0782 80.8522 83.6108 80.1081L83.9707 80.3891C83.4324 81.1413 82.8638 81.8852 82.2805 82.5999V82.5999ZM14.7179 78.0949C14.2262 77.3084 13.753 76.4962 13.3115 75.6808L13.7028 75.4497C14.1395 76.2564 14.6077 77.0601 15.0942 77.8382L14.7179 78.0949ZM85.5229 78.0695L85.1463 77.8132C85.6331 77.0335 86.1012 76.2284 86.5381 75.4199L86.9296 75.6505C86.4881 76.468 86.0147 77.2818 85.5229 78.0695ZM12.0564 73.1779C11.6654 72.333 11.2959 71.4646 10.9584 70.5967L11.3747 70.4202C11.7087 71.2785 12.0742 72.1376 12.4611 72.9735L12.0564 73.1779ZM88.1851 73.1413L87.7804 72.9372C88.1671 72.1001 88.5327 71.2386 88.8672 70.3762L89.2837 70.5522C88.9457 71.424 88.5762 72.2951 88.1851 73.1413ZM10.0203 67.9437C9.73596 67.052 9.47623 66.1398 9.24822 65.2325L9.68296 65.1133C9.90845 66.0108 10.1654 66.9133 10.4467 67.7952L10.0203 67.9437ZM90.2201 67.894L89.7935 67.7463C90.073 66.8654 90.3291 65.9626 90.5541 65.0633L90.989 65.1821C90.7615 66.0912 90.5027 67.0036 90.2201 67.894ZM8.64528 62.4757C8.47356 61.5546 8.32828 60.6154 8.2134 59.684L8.6591 59.6239C8.77278 60.5455 8.91652 61.4746 9.08638 62.3858L8.64528 62.4757ZM91.5888 62.4241L91.1477 62.3351C91.3162 61.4241 91.4591 60.4946 91.5717 59.5723L92.0176 59.6319C91.9037 60.564 91.7593 61.5034 91.5888 62.4241V62.4241ZM7.95356 56.8694C7.89596 55.9336 7.86622 54.9825 7.86523 54.0424L8.31467 54.0419C8.31566 54.9721 8.34507 55.9132 8.40212 56.8391L7.95356 56.8694ZM92.2744 56.8169L91.8258 56.7871C91.8818 55.8621 91.9101 54.921 91.9101 53.9906L91.9099 53.8876H92.3593L92.3595 53.989C92.3595 54.9309 92.3308 55.8818 92.2744 56.8169ZM8.39587 51.2452L7.94731 51.2163C8.00304 50.2787 8.08831 49.3315 8.20078 48.4008L8.6467 48.4595C8.53533 49.3805 8.45095 50.3177 8.39587 51.2452ZM91.8197 51.0911C91.7613 50.1632 91.6737 49.2263 91.5594 48.3066L92.0049 48.246C92.1205 49.1756 92.2092 50.1224 92.2682 51.0604L91.8197 51.0911ZM9.06762 45.6967L8.6263 45.6079C8.79583 44.6865 8.99664 43.7584 9.22288 42.8495L9.65784 42.9676C9.43399 43.8669 9.23539 44.785 9.06762 45.6967ZM91.1286 45.5453C90.9574 44.6331 90.7555 43.7157 90.5291 42.8183L90.9636 42.6987C91.1927 43.6057 91.3966 44.5329 91.5697 45.4549L91.1286 45.5453ZM10.4156 40.2838L9.98876 40.1367C10.2709 39.2446 10.5849 38.3497 10.9223 37.4769L11.3391 37.6527C11.0053 38.5162 10.6946 39.4014 10.4156 40.2838ZM89.7627 40.1375C89.4805 39.2563 89.1674 38.3736 88.8318 37.5138L89.2479 37.3366C89.5872 38.2057 89.9038 39.0979 90.1889 39.9885L89.7627 40.1375ZM12.4231 35.0898L12.018 34.8863C12.4079 34.0397 12.8295 33.1949 13.2709 32.3756L13.6626 32.606C13.2258 33.4165 12.8088 34.2522 12.4231 35.0898ZM87.7427 34.9618C87.3556 34.1282 86.9371 33.2956 86.4982 32.4872L86.8892 32.2556C87.3327 33.0726 87.7558 33.9143 88.1469 34.7571L87.7427 34.9618ZM15.0517 30.2108L14.6749 29.9548C15.1651 29.1678 15.6864 28.3866 16.2243 27.6332L16.5846 27.9138C16.0525 28.6593 15.5366 29.4321 15.0517 30.2108ZM85.104 30.1003C84.6177 29.3245 84.1004 28.5541 83.5663 27.8107L83.9257 27.5289C84.4656 28.2804 84.9885 29.059 85.4801 29.8431L85.104 30.1003ZM18.2544 25.7245L17.9121 25.4205C18.4942 24.7052 19.1061 24 19.7309 23.3248L20.0542 23.651C19.436 24.3191 18.8305 25.0168 18.2544 25.7245ZM81.8914 25.6277C81.3136 24.922 80.7062 24.2264 80.0864 23.5602L80.4086 23.2331C81.0351 23.9063 81.6489 24.6093 82.2329 25.3226L81.8914 25.6277ZM21.9762 21.7017L21.6736 21.3546C22.3387 20.7218 23.0313 20.1039 23.732 19.5182L24.0129 19.8847C23.3195 20.4642 22.6343 21.0756 21.9762 21.7017ZM78.1585 21.6165C77.4995 20.9933 76.8124 20.3838 76.1159 19.8049L76.3959 19.4375C77.0997 20.0226 77.7943 20.6386 78.4601 21.2685L78.1585 21.6165ZM26.1557 18.2072L25.8979 17.8228C26.6332 17.2844 27.3952 16.7639 28.1625 16.2757L28.3963 16.6766C27.6372 17.1597 26.8833 17.6747 26.1557 18.2072ZM73.9666 18.1325C73.2349 17.6006 72.4787 17.0873 71.7187 16.6069L71.9513 16.2053C72.7194 16.6907 73.484 17.2095 74.2233 17.7472L73.9666 18.1325ZM30.7251 15.2993L30.5164 14.8835C31.311 14.4482 32.13 14.0339 32.9504 13.6524L33.1332 14.0813C32.3214 14.4587 31.5113 14.8686 30.7251 15.2993ZM69.3813 15.2349C68.5921 14.8058 67.7788 14.3978 66.9638 14.0224L67.1453 13.5928C67.9689 13.9723 68.7911 14.3847 69.5889 14.8184L69.3813 15.2349ZM35.6102 13.0281L35.4542 12.5878C36.2969 12.2621 37.161 11.9609 38.0226 11.6926L38.151 12.1426C37.2986 12.4079 36.4438 12.7059 35.6103 13.0281H35.6102ZM64.4758 12.9748C63.6405 12.6556 62.7846 12.3608 61.932 12.0988L62.0589 11.6483C62.9207 11.9132 63.7858 12.2112 64.6303 12.534L64.4758 12.9748ZM40.7411 11.4302L40.6408 10.9727C41.5152 10.7634 42.4091 10.581 43.2978 10.4303L43.3698 10.8938C42.4905 11.0428 41.6061 11.2232 40.7411 11.4302ZM59.3394 11.3961C58.4728 11.192 57.5877 11.0148 56.7088 10.8693L56.7793 10.4055C57.6676 10.5527 58.5622 10.7318 59.4382 10.938L59.3394 11.3961ZM46.026 10.5345L45.9826 10.0673C46.8749 9.97684 47.7837 9.91506 48.6838 9.88377L48.6987 10.353C47.8081 10.384 46.9089 10.4451 46.026 10.5345ZM54.0514 10.5199C53.1672 10.4336 52.2677 10.3758 51.3781 10.3482L51.3915 9.87897C52.2905 9.90693 53.1996 9.96527 54.0932 10.0525L54.0514 10.5199Z" fill="#D0CDE1"/>
<path d="M48.5394 22.0657C54.3725 22.0657 59.1012 17.1261 59.1012 11.0329C59.1012 4.93958 54.3725 0 48.5394 0C42.7063 0 37.9776 4.93958 37.9776 11.0329C37.9776 17.1261 42.7063 22.0657 48.5394 22.0657Z" fill="#85E0CB"/>
<path d="M89.4383 52.1127C95.2714 52.1127 100 47.1731 100 41.0798C100 34.9865 95.2714 30.0469 89.4383 30.0469C83.6051 30.0469 78.8765 34.9865 78.8765 41.0798C78.8765 47.1731 83.6051 52.1127 89.4383 52.1127Z" fill="#85E0CB"/>
<path d="M76.6292 98.1221C82.4623 98.1221 87.191 93.1825 87.191 87.0893C87.191 80.996 82.4623 76.0564 76.6292 76.0564C70.7961 76.0564 66.0674 80.996 66.0674 87.0893C66.0674 93.1825 70.7961 98.1221 76.6292 98.1221Z" fill="#85E0CB"/>
<path d="M25.8428 100C31.6759 100 36.4046 95.0605 36.4046 88.9672C36.4046 82.8739 31.6759 77.9343 25.8428 77.9343C20.0097 77.9343 15.281 82.8739 15.281 88.9672C15.281 95.0605 20.0097 100 25.8428 100Z" fill="#85E0CB"/>
<path d="M10.5618 52.1127C16.3949 52.1127 21.1236 47.1731 21.1236 41.0798C21.1236 34.9865 16.3949 30.0469 10.5618 30.0469C4.72868 30.0469 0 34.9865 0 41.0798C0 47.1731 4.72868 52.1127 10.5618 52.1127Z" fill="#85E0CB"/>
<path d="M14.5443 34.1328H6.76719C6.05235 34.1328 5.47101 34.74 5.47101 35.4867V46.9951C5.47101 47.1746 5.53929 47.3468 5.66083 47.4738C5.78237 47.6007 5.94721 47.6721 6.1191 47.6721H15.1924C15.3643 47.6721 15.5291 47.6007 15.6506 47.4738C15.7722 47.3468 15.8405 47.1746 15.8405 46.9951V35.4867C15.8405 34.74 15.2591 34.1328 14.5443 34.1328ZM14.5443 46.3181H6.76719V35.4867H14.5443V46.3181Z" fill="#F2F2F2"/>
<path d="M8.06342 36.8406H10.0077V38.1945H8.06342V36.8406ZM11.3039 36.8406H13.2481V38.1945H11.3039V36.8406ZM8.06342 39.5484H10.0077V40.9024H8.06342V39.5484ZM11.3039 39.5694H13.2481V40.9024H11.3039V39.5694ZM8.06342 42.2563H10.0077V43.6102H8.06342V42.2563ZM11.3039 42.2563H13.2481V43.6102H11.3039V42.2563Z" fill="#F2F2F2"/>
<path d="M53.0653 10.1533H49.3813C49.0463 10.1533 48.7251 10.0143 48.4882 9.76685C48.2513 9.51941 48.1183 9.18381 48.1183 8.83388V4.98556C48.1183 4.97112 48.1155 4.95682 48.1102 4.94348C48.1049 4.93014 48.0972 4.91802 48.0874 4.90781C48.0776 4.8976 48.066 4.8895 48.0533 4.88398C48.0405 4.87845 48.0268 4.87561 48.013 4.87561H45.5921C45.1454 4.87561 44.7171 5.06095 44.4012 5.39087C44.0854 5.72079 43.908 6.16826 43.908 6.63484V15.431C43.908 15.8976 44.0854 16.345 44.4012 16.6749C44.7171 17.0049 45.1454 17.1902 45.5921 17.1902H51.4865C51.9332 17.1902 52.3615 17.0049 52.6773 16.6749C52.9932 16.345 53.1706 15.8976 53.1706 15.431V10.2632C53.1706 10.2488 53.1679 10.2345 53.1626 10.2212C53.1573 10.2078 53.1495 10.1957 53.1398 10.1855C53.13 10.1753 53.1184 10.1672 53.1056 10.1617C53.0929 10.1561 53.0792 10.1533 53.0653 10.1533ZM50.6444 14.5514H46.4341C46.3225 14.5514 46.2154 14.505 46.1364 14.4226C46.0575 14.3401 46.0131 14.2282 46.0131 14.1116C46.0131 13.9949 46.0575 13.883 46.1364 13.8006C46.2154 13.7181 46.3225 13.6718 46.4341 13.6718H50.6444C50.7561 13.6718 50.8632 13.7181 50.9421 13.8006C51.0211 13.883 51.0655 13.9949 51.0655 14.1116C51.0655 14.2282 51.0211 14.3401 50.9421 14.4226C50.8632 14.505 50.7561 14.5514 50.6444 14.5514ZM50.6444 12.3523H46.4341C46.3225 12.3523 46.2154 12.306 46.1364 12.2235C46.0575 12.141 46.0131 12.0292 46.0131 11.9125C46.0131 11.7959 46.0575 11.684 46.1364 11.6015C46.2154 11.5191 46.3225 11.4727 46.4341 11.4727H50.6444C50.7561 11.4727 50.8632 11.5191 50.9421 11.6015C51.0211 11.684 51.0655 11.7959 51.0655 11.9125C51.0655 12.0292 51.0211 12.141 50.9421 12.2235C50.8632 12.306 50.7561 12.3523 50.6444 12.3523Z" fill="#F2F2F2"/>
<path d="M52.8342 9.17991L49.0499 5.22686C49.0426 5.21922 49.0332 5.21402 49.023 5.21192C49.0129 5.20982 49.0023 5.21091 48.9927 5.21505C48.9831 5.21919 48.9749 5.2262 48.9691 5.2352C48.9634 5.2442 48.9602 5.25478 48.9602 5.26562V8.83383C48.9602 8.95048 49.0046 9.06234 49.0835 9.14482C49.1625 9.2273 49.2696 9.27364 49.3812 9.27364H52.7971C52.8075 9.27359 52.8176 9.27034 52.8262 9.2643C52.8348 9.25826 52.8415 9.24969 52.8455 9.23967C52.8495 9.22965 52.8505 9.21864 52.8485 9.208C52.8465 9.19737 52.8415 9.18759 52.8342 9.1799L52.8342 9.17991Z" fill="#F2F2F2"/>
<path d="M22.2078 94.9624H21.4426C21.2904 94.9624 21.1444 94.8992 21.0368 94.7868C20.9291 94.6743 20.8687 94.5218 20.8687 94.3628V90.7657C20.8687 90.6067 20.9291 90.4542 21.0368 90.3417C21.1444 90.2293 21.2904 90.1661 21.4426 90.1661H22.2078C22.36 90.1661 22.506 90.2293 22.6137 90.3417C22.7213 90.4542 22.7818 90.6067 22.7818 90.7657V94.3628C22.7818 94.5218 22.7213 94.6743 22.6137 94.7868C22.506 94.8992 22.36 94.9624 22.2078 94.9624Z" fill="#F2F2F2"/>
<path d="M27.5645 94.9625H26.7993C26.6471 94.9625 26.5011 94.8993 26.3934 94.7869C26.2858 94.6745 26.2253 94.522 26.2253 94.363V88.3677C26.2253 88.2087 26.2858 88.0562 26.3934 87.9438C26.5011 87.8314 26.6471 87.7682 26.7993 87.7682H27.5645C27.7167 87.7682 27.8627 87.8314 27.9703 87.9438C28.078 88.0562 28.1384 88.2087 28.1384 88.3677V94.363C28.1384 94.522 28.078 94.6745 27.9703 94.7869C27.8627 94.8993 27.7167 94.9625 27.5645 94.9625Z" fill="#F2F2F2"/>
<path d="M30.243 94.9623H29.4777C29.3255 94.9623 29.1795 94.8992 29.0719 94.7867C28.9643 94.6743 28.9038 94.5218 28.9038 94.3628V85.5697C28.9038 85.4107 28.9643 85.2582 29.0719 85.1458C29.1795 85.0334 29.3255 84.9702 29.4777 84.9702H30.243C30.3952 84.9702 30.5412 85.0334 30.6488 85.1458C30.7564 85.2582 30.8169 85.4107 30.8169 85.5697V94.3628C30.8169 94.5218 30.7564 94.6743 30.6488 94.7867C30.5412 94.8992 30.3952 94.9623 30.243 94.9623Z" fill="#F2F2F2"/>
<path d="M24.8863 94.9625H24.121C23.9688 94.9625 23.8229 94.8993 23.7152 94.7869C23.6076 94.6744 23.5471 94.5219 23.5471 94.3629V83.5715C23.5471 83.4124 23.6076 83.26 23.7152 83.1475C23.8229 83.0351 23.9688 82.9719 24.121 82.9719H24.8863C25.0385 82.9719 25.1845 83.0351 25.2921 83.1475C25.3998 83.26 25.4602 83.4124 25.4602 83.5715V94.3629C25.4602 94.4417 25.4454 94.5196 25.4165 94.5924C25.3877 94.6651 25.3454 94.7312 25.2921 94.7869C25.2388 94.8425 25.1755 94.8867 25.1059 94.9168C25.0363 94.947 24.9616 94.9625 24.8863 94.9625Z" fill="#F2F2F2"/>
<path d="M89.9441 40.7909L89.3974 40.2196C89.2722 40.0887 89.1025 40.015 88.9253 40.0145C88.7482 40.014 88.5781 40.0868 88.4522 40.217L84.6511 43.8814C84.5116 44.0104 84.4263 44.1915 84.4135 44.3857C84.4095 44.4822 84.4245 44.5785 84.4577 44.6686C84.4909 44.7587 84.5415 44.8406 84.6063 44.9094L85.423 45.7718L85.4244 45.7734C85.5506 45.9048 85.7214 45.9788 85.8995 45.9794H85.9243C86.0165 45.974 86.1069 45.9496 86.1901 45.9077C86.2734 45.8658 86.3479 45.8071 86.4094 45.7351L89.9418 41.7826C90.068 41.6519 90.1394 41.4742 90.1401 41.2886C90.1409 41.103 90.071 40.9246 89.9459 40.7928L89.9441 40.7909Z" fill="#F2F2F2"/>
<path d="M94.3379 39.6362L94.3314 39.6294L93.6138 38.8875C93.5718 38.8437 93.5219 38.8091 93.4669 38.7856C93.412 38.7621 93.3532 38.7502 93.2939 38.7506C93.1977 38.7507 93.104 38.7824 93.026 38.8411C93.026 38.8317 93.0273 38.8225 93.0279 38.8144C93.0569 38.6229 93.0182 38.4268 92.9191 38.2628C92.761 38.0402 92.5874 37.8301 92.3998 37.6342L92.3981 37.6324C91.8735 37.1067 91.257 36.6913 90.5822 36.4088C90.2296 36.2576 89.852 36.18 89.4708 36.1803C88.9773 36.1756 88.4978 36.3511 88.115 36.6763C88.006 36.7851 87.9066 36.9038 87.818 37.0311C87.7757 37.0921 87.7534 37.1658 87.7544 37.2411C87.7553 37.3165 87.7796 37.3895 87.8234 37.4493C87.8673 37.5091 87.9285 37.5525 87.9979 37.5731C88.0673 37.5937 88.1411 37.5903 88.2086 37.5635C88.2673 37.5406 88.3273 37.5214 88.3882 37.506C88.5151 37.478 88.6453 37.4695 88.7746 37.4808C89.0425 37.51 89.2994 37.6084 89.5219 37.7672C89.6466 37.8769 89.7459 38.0148 89.8121 38.1705C89.8784 38.3262 89.9098 38.4956 89.9042 38.6659C89.8112 38.9426 89.6692 39.1984 89.4854 39.4201C89.4365 39.4875 89.4125 39.5713 89.4181 39.6557C89.4237 39.7402 89.4584 39.8197 89.5158 39.8794L90.2363 40.6321C90.2969 40.6955 90.3784 40.7322 90.4641 40.7347C90.5497 40.7373 90.6331 40.7054 90.697 40.6456C90.9007 40.4556 91.211 40.169 91.3195 40.0988C91.4122 40.034 91.5172 39.9908 91.6273 39.972C91.7093 39.9636 91.7919 39.9817 91.8637 40.024C91.8641 40.0278 91.8637 40.0315 91.8626 40.0351C91.8614 40.0387 91.8596 40.042 91.8572 40.0448L91.8191 40.0826L91.8128 40.0888C91.7282 40.1769 91.6805 40.2965 91.6802 40.4213C91.68 40.5462 91.7273 40.666 91.8116 40.7544L91.8139 40.7568L92.5312 41.4985C92.5733 41.5422 92.6232 41.5768 92.6781 41.6003C92.733 41.6237 92.7919 41.6356 92.8512 41.6352C92.9703 41.6354 93.0848 41.5867 93.1699 41.4996L94.332 40.3005C94.336 40.2963 94.34 40.292 94.3437 40.2876C94.4217 40.1983 94.4644 40.0815 94.4633 39.9607C94.4623 39.8399 94.4174 39.7239 94.3379 39.6362Z" fill="#F2F2F2"/>
<path d="M80.2725 85.7009L80.117 85.9838C80.0601 86.0886 79.9388 86.1322 79.8307 86.0906C79.6069 86.0036 79.4021 85.879 79.222 85.7227C79.1348 85.6475 79.112 85.515 79.1689 85.4121L79.3244 85.1292C79.1936 84.971 79.0912 84.787 79.0229 84.5872H78.71C78.5963 84.5872 78.4976 84.5022 78.4787 84.3835C78.4408 84.1461 78.4389 83.8969 78.4787 83.6496C78.4976 83.5309 78.5963 83.4439 78.71 83.4439H79.0229C79.0912 83.2441 79.1936 83.0601 79.3244 82.9019L79.1689 82.619C79.112 82.5161 79.1329 82.3836 79.222 82.3084C79.4021 82.1522 79.6088 82.0275 79.8307 81.9405C79.9388 81.899 80.0601 81.9425 80.117 82.0473L80.2725 82.3302C80.4716 82.2926 80.6745 82.2926 80.8736 82.3302L81.0291 82.0473C81.086 81.9425 81.2074 81.899 81.3154 81.9405C81.5392 82.0275 81.744 82.1522 81.9241 82.3084C82.0114 82.3836 82.0341 82.5161 81.9772 82.619L81.8217 82.9019C81.9526 83.0601 82.055 83.2441 82.1232 83.4439H82.4361C82.5499 83.4439 82.6485 83.5289 82.6674 83.6476C82.7054 83.885 82.7073 84.1342 82.6674 84.3815C82.6485 84.5002 82.5499 84.5872 82.4361 84.5872H82.1232C82.055 84.787 81.9526 84.971 81.8217 85.1292L81.9772 85.4121C82.0341 85.515 82.0133 85.6475 81.9241 85.7227C81.744 85.879 81.5373 86.0036 81.3154 86.0906C81.2074 86.1322 81.086 86.0886 81.0291 85.9838L80.8736 85.7009C80.6764 85.7385 80.4716 85.7385 80.2725 85.7009ZM80.0734 84.5378C80.8035 85.1233 81.6359 84.2549 81.0746 83.4933C80.3446 82.9058 79.5121 83.7762 80.0734 84.5378ZM77.8871 87.5821L78.5261 87.9144C78.7176 88.0292 78.801 88.2725 78.7252 88.4901C78.5564 88.9688 78.2246 89.4079 77.9174 89.7917C77.7771 89.9677 77.5344 90.0113 77.3428 89.8965L76.791 89.5642C76.4876 89.8352 76.135 90.0508 75.75 90.1913V90.8559C75.75 91.0854 75.5926 91.2832 75.3765 91.3228C74.91 91.4058 74.4208 91.4098 73.9372 91.3228C73.7192 91.2832 73.558 91.0874 73.558 90.8559V90.1913C73.173 90.0488 72.8203 89.8352 72.517 89.5642L71.9652 89.8945C71.7755 90.0093 71.5309 89.9658 71.3906 89.7897C71.0834 89.406 70.7592 88.9668 70.5904 88.4901C70.5145 88.2745 70.598 88.0312 70.7895 87.9144L71.4209 87.5821C71.347 87.1687 71.347 86.7434 71.4209 86.328L70.7895 85.9937C70.598 85.879 70.5126 85.6356 70.5904 85.42C70.7592 84.9413 71.0834 84.5022 71.3906 84.1184C71.5309 83.9424 71.7736 83.8989 71.9652 84.0136L72.517 84.3459C72.8203 84.0749 73.173 83.8593 73.558 83.7188V83.0522C73.558 82.8247 73.7135 82.6269 73.9296 82.5874C74.3961 82.5043 74.8872 82.5003 75.3708 82.5854C75.5888 82.6249 75.75 82.8208 75.75 83.0522V83.7169C76.135 83.8593 76.4876 84.0729 76.791 84.3439L77.3428 84.0116C77.5325 83.8969 77.7771 83.9404 77.9174 84.1164C78.2246 84.5002 78.547 84.9393 78.7157 85.4181C78.7916 85.6337 78.7176 85.877 78.5261 85.9937L77.8871 86.326C77.961 86.7414 77.961 87.1667 77.8871 87.5821ZM75.6571 87.9995C76.7797 86.4763 75.1129 84.7376 73.6528 85.9086C72.5302 87.4318 74.197 89.1706 75.6571 87.9995ZM80.2725 91.6135L80.117 91.8964C80.0601 92.0013 79.9388 92.0448 79.8307 92.0032C79.6069 91.9162 79.4021 91.7916 79.222 91.6353C79.1348 91.5601 79.112 91.4276 79.1689 91.3247L79.3244 91.0419C79.1936 90.8836 79.0912 90.6996 79.0229 90.4999H78.71C78.5963 90.4999 78.4976 90.4148 78.4787 90.2961C78.4408 90.0587 78.4389 89.8095 78.4787 89.5622C78.4976 89.4435 78.5963 89.3565 78.71 89.3565H79.0229C79.0912 89.1567 79.1936 88.9727 79.3244 88.8145L79.1689 88.5316C79.112 88.4288 79.1329 88.2962 79.222 88.2211C79.4021 88.0648 79.6088 87.9402 79.8307 87.8531C79.9388 87.8116 80.0601 87.8551 80.117 87.9599L80.2725 88.2428C80.4716 88.2052 80.6745 88.2052 80.8736 88.2428L81.0291 87.9599C81.086 87.8551 81.2074 87.8116 81.3154 87.8531C81.5392 87.9402 81.744 88.0648 81.9241 88.2211C82.0114 88.2962 82.0341 88.4288 81.9772 88.5316L81.8217 88.8145C81.9526 88.9727 82.055 89.1567 82.1232 89.3565H82.4361C82.5499 89.3565 82.6485 89.4416 82.6674 89.5602C82.7054 89.7976 82.7073 90.0469 82.6674 90.2941C82.6485 90.4128 82.5499 90.4999 82.4361 90.4999H82.1232C82.055 90.6996 81.9526 90.8836 81.8217 91.0419L81.9772 91.3247C82.0341 91.4276 82.0133 91.5601 81.9241 91.6353C81.744 91.7916 81.5373 91.9162 81.3154 92.0032C81.2074 92.0448 81.086 92.0013 81.0291 91.8964L80.8736 91.6135C80.6764 91.6511 80.4716 91.6511 80.2725 91.6135ZM80.0734 90.4484C80.8035 91.0339 81.6359 90.1656 81.0746 89.404C80.3446 88.8184 79.5121 89.6868 80.0734 90.4484Z" fill="#F2F2F2"/>
</svg>
