<svg width="500" height="484" viewBox="0 0 500 484" fill="none" xmlns="http://www.w3.org/2000/svg">
<g clip-path="url(#clip0_669_26547)">
<path d="M456.151 462.54C455.617 462.564 455.088 462.424 454.636 462.138C454.184 461.852 453.831 461.434 453.624 460.94C453.418 460.447 453.368 459.902 453.482 459.379C453.596 458.856 453.868 458.381 454.26 458.018L454.439 457.307C454.416 457.25 454.392 457.193 454.368 457.137C453.83 455.865 452.928 454.781 451.775 454.02C450.623 453.26 449.271 452.857 447.89 452.862C446.509 452.867 445.161 453.28 444.014 454.049C442.867 454.818 441.973 455.909 441.444 457.185C439.33 462.276 436.639 467.375 435.976 472.758C435.685 475.137 435.808 477.549 436.34 479.887C431.376 469.057 428.798 457.286 428.781 445.372C428.78 442.383 428.946 439.396 429.279 436.424C429.553 433.989 429.935 431.571 430.422 429.17C433.083 416.142 438.796 403.932 447.093 393.542C451.108 391.351 454.355 387.982 456.397 383.888C457.136 382.417 457.659 380.846 457.949 379.225C457.496 379.284 456.241 372.386 456.583 371.963C455.951 371.005 454.822 370.529 454.132 369.594C450.703 364.946 445.98 365.757 443.513 372.074C438.245 374.733 438.194 379.143 441.427 383.383C443.483 386.081 443.766 389.732 445.57 392.621C445.385 392.858 445.192 393.089 445.006 393.326C441.613 397.69 438.655 402.376 436.175 407.316C436.778 401.781 436.059 396.182 434.076 390.98C432.066 386.131 428.299 382.048 424.981 377.856C420.996 372.822 412.825 375.019 412.123 381.401C412.116 381.463 412.11 381.525 412.103 381.586C412.596 381.864 413.078 382.159 413.55 382.472C414.143 382.868 414.603 383.434 414.868 384.095C415.134 384.757 415.194 385.483 415.039 386.18C414.885 386.876 414.524 387.509 414.004 387.997C413.484 388.484 412.828 388.803 412.123 388.912L412.051 388.923C412.227 390.699 412.537 392.459 412.979 394.188C408.724 410.646 417.912 416.641 431.031 416.91C431.321 417.059 431.603 417.207 431.892 417.348C429.401 424.408 427.839 431.761 427.244 439.224C426.907 443.627 426.927 448.049 427.303 452.449L427.281 452.293C426.331 447.401 423.721 442.987 419.893 439.796C414.207 435.125 406.174 433.405 400.04 429.651C399.388 429.232 398.63 429.009 397.855 429.007C397.08 429.005 396.321 429.225 395.667 429.64C395.013 430.055 394.492 430.649 394.164 431.351C393.837 432.053 393.717 432.834 393.819 433.602C393.827 433.657 393.835 433.712 393.844 433.766C394.758 434.139 395.648 434.568 396.509 435.051C397.002 435.329 397.485 435.624 397.956 435.936C398.549 436.332 399.009 436.898 399.274 437.56C399.54 438.221 399.6 438.948 399.446 439.644C399.291 440.34 398.93 440.973 398.41 441.461C397.89 441.949 397.234 442.267 396.53 442.376L396.457 442.387C396.405 442.395 396.361 442.402 396.309 442.41C397.871 446.14 400.064 449.574 402.792 452.56C405.453 466.928 416.882 468.291 429.108 464.107H429.115C430.457 469.936 432.4 475.61 434.915 481.037H455.632C455.706 480.807 455.773 480.57 455.84 480.339C453.922 480.46 451.997 480.345 450.107 479.998C451.644 478.112 453.182 476.211 454.719 474.325C454.753 474.289 454.785 474.252 454.815 474.213C455.595 473.248 456.382 472.29 457.162 471.325L457.162 471.324C457.204 468.365 456.864 465.413 456.152 462.54L456.151 462.54Z" fill="#F2F2F2"/>
<path d="M421.63 278.314C427.121 258.378 437.363 241.399 453.9 228.336C454.554 227.326 455.583 226.616 456.76 226.362C457.937 226.109 459.166 226.333 460.179 226.985L497.923 251.355C498.934 252.009 499.644 253.038 499.898 254.215C500.151 255.392 499.927 256.622 499.275 257.634L467.006 307.612C466.351 308.623 465.323 309.333 464.146 309.586C462.969 309.84 461.739 309.616 460.727 308.964L422.982 284.593C421.972 283.939 421.262 282.91 421.008 281.733C420.755 280.556 420.978 279.327 421.63 278.314Z" fill="#F2F2F2"/>
<path d="M434.272 265.088C435.687 254.554 444.401 243.787 455.018 232.958C455.631 232.011 456.594 231.346 457.696 231.109C458.799 230.871 459.95 231.081 460.898 231.691L493.337 252.636C494.283 253.249 494.948 254.212 495.186 255.314C495.423 256.417 495.214 257.568 494.603 258.516L465.888 302.99C465.275 303.937 464.311 304.602 463.209 304.839C462.107 305.076 460.955 304.867 460.007 304.256L439.912 291.281C435.695 288.552 432.733 284.261 431.676 279.351C430.619 274.44 431.553 269.311 434.272 265.088Z" fill="white"/>
<path d="M437.167 308.037C432.377 287.92 433.176 268.107 441.378 248.695C441.464 247.494 442.024 246.377 442.933 245.588C443.843 244.799 445.028 244.403 446.229 244.487L491.045 247.667C492.246 247.753 493.364 248.313 494.153 249.222C494.942 250.132 495.338 251.317 495.254 252.518L491.043 311.859C490.957 313.06 490.397 314.178 489.488 314.967C488.578 315.756 487.393 316.152 486.191 316.068L441.376 312.888C440.175 312.802 439.057 312.242 438.268 311.333C437.479 310.423 437.083 309.238 437.167 308.037Z" fill="#F2F2F2"/>
<path d="M441.876 290.357C438.043 280.444 440.494 266.81 444.583 252.207C444.664 251.082 445.188 250.035 446.04 249.296C446.892 248.558 448.002 248.187 449.127 248.265L487.642 250.998C488.767 251.079 489.814 251.603 490.553 252.455C491.292 253.307 491.663 254.417 491.584 255.542L487.837 308.347C487.756 309.472 487.232 310.519 486.38 311.258C485.529 311.997 484.418 312.368 483.293 312.289L459.434 310.596C454.424 310.235 449.762 307.901 446.47 304.107C443.179 300.313 441.527 295.368 441.876 290.357Z" fill="white"/>
<path d="M441.031 183.853L421.832 112.79C421.01 109.782 419.037 107.217 416.341 105.65C413.645 104.083 410.44 103.639 407.419 104.414C405.857 104.815 404.392 105.53 403.114 106.515C401.837 107.5 400.773 108.735 399.989 110.145C399.204 111.555 398.715 113.11 398.551 114.715C398.387 116.32 398.551 117.941 399.034 119.481L421.241 192.686L432.859 237.738C431.167 239.03 429.914 240.811 429.27 242.84C428.625 244.87 428.621 247.048 429.258 249.08C429.895 251.111 431.142 252.897 432.829 254.196C434.516 255.494 436.563 256.241 438.69 256.336C440.816 256.431 442.921 255.869 444.717 254.726C446.514 253.583 447.915 251.915 448.73 249.948C449.545 247.982 449.735 245.812 449.274 243.733C448.813 241.655 447.723 239.768 446.153 238.331L441.031 183.853Z" fill="#FFB6B6"/>
<path d="M302.567 196.147L322.256 125.218C323.082 122.211 322.691 118.999 321.17 116.277C319.648 113.555 317.117 111.54 314.123 110.667C312.574 110.216 310.95 110.084 309.348 110.281C307.747 110.478 306.203 110.999 304.809 111.812C303.416 112.626 302.203 113.714 301.244 115.012C300.285 116.309 299.6 117.788 299.231 119.359L281.038 193.663L268.079 238.348C265.965 238.597 263.979 239.492 262.39 240.909C260.802 242.327 259.688 244.199 259.201 246.272C258.714 248.344 258.877 250.517 259.667 252.494C260.457 254.47 261.837 256.156 263.619 257.322C265.401 258.487 267.498 259.076 269.626 259.008C271.754 258.94 273.809 258.218 275.513 256.941C277.216 255.664 278.486 253.894 279.148 251.87C279.811 249.847 279.834 247.669 279.215 245.632L302.567 196.147Z" fill="#FFB6B6"/>
<path d="M415.24 468.604L402.693 468.603L396.725 420.21L415.242 420.211L415.24 468.604Z" fill="#FFB6B6"/>
<path d="M415.681 481.693L377.099 481.692V481.204C377.1 477.221 378.682 473.402 381.498 470.585C384.314 467.769 388.134 466.187 392.116 466.187H392.117L399.165 460.84L412.314 466.188L415.682 466.188L415.681 481.693Z" fill="#2F2E41"/>
<path d="M326.948 468.731L314.596 466.527L317.215 417.837L335.445 421.089L326.948 468.731Z" fill="#FFB6B6"/>
<path d="M325.085 481.693L287.103 474.919L287.188 474.439C287.888 470.518 290.116 467.036 293.382 464.758C296.649 462.48 300.687 461.593 304.608 462.291L304.609 462.292L312.485 458.265L324.492 465.837L327.807 466.429L325.085 481.693Z" fill="#2F2E41"/>
<path d="M328.171 246.099C328.171 246.099 316.478 262.661 316.954 268.219C317.431 273.777 321.56 269.343 317.431 273.777C313.302 278.21 310.896 275.236 312.924 280.714C314.953 286.191 315.779 282.644 314.953 286.191C314.128 289.738 315.779 425.41 315.779 425.41H337.281C337.281 425.41 349.407 346.741 347.872 343.068C346.337 339.396 346.372 340.995 348.006 337.091C349.64 333.188 351.178 328.545 351.178 328.545L368.174 280.714L381.284 348.06L396.716 428.086H417.321C417.321 428.086 420.849 310.405 422.409 308.939C423.969 307.473 422.103 304.178 420.146 302.278C418.188 300.379 418.578 298.451 419.209 294.538C419.84 290.625 422.501 288.442 422.409 285.987C422.318 283.531 428.099 244.514 419.014 238.307C409.929 232.1 328.171 246.099 328.171 246.099Z" fill="#2F2E41"/>
<path d="M400.065 81.1299L376.013 74.8974L364.786 59.4126L338.123 62.6904L332.448 83.8118L313.466 94.83C347.492 95.0334 329.168 193.612 334.169 199.972C338.239 205.148 313.856 217.461 321.498 225.315C329.14 233.17 326.314 230.027 324.541 238.578C322.768 247.129 309.841 256.179 324.541 256.089C339.241 256 427.943 254.732 425.409 244.595C422.874 234.458 422.914 237.032 419.093 230.676C415.271 224.32 412.699 227.872 413.985 218.493C415.271 209.114 411.094 201.86 414.004 197.71C418.47 191.339 413.969 145.354 409.758 146.581L400.065 81.1299Z" fill="#85E0CB"/>
<path d="M393.198 81.4585C393.198 81.4585 410.791 73.9842 417.127 87.9231C419.151 92.3751 420.855 103.557 422.497 101.078C424.139 98.598 422.554 104.034 423.571 104.041C424.478 104.047 425.873 102.58 424.818 107.635C424.488 109.293 424.583 111.008 425.095 112.619C425.606 114.23 426.518 115.686 427.744 116.85L397.165 135.164L393.198 81.4585Z" fill="#85E0CB"/>
<path d="M327.095 94.1304C327.095 94.1304 309.501 86.6561 303.165 100.595C301.384 104.515 301.827 113.226 298.357 112.248C294.887 111.27 297.35 114.954 296.893 116.234C296.382 117.661 298.61 121.699 295.481 120.286C292.353 118.873 292.549 129.522 292.549 129.522L323.128 147.836L327.095 94.1304Z" fill="#85E0CB"/>
<path d="M335.437 73.2549L330.368 82.1251C330.368 82.1251 316.429 89.7281 316.429 90.9953C316.429 92.2624 318.963 102.609 316.429 110.741C313.895 118.873 321.267 134.166 322.765 146.751C329.101 199.972 310.259 219.31 306.292 253.193L346.502 264.937C346.502 264.937 353.177 175.896 353.177 155.621C353.177 135.346 335.437 73.2549 335.437 73.2549Z" fill="#2F2E41"/>
<path d="M372.185 69.4531L382.543 75.3449C382.543 75.3449 396.099 78.3337 396.261 79.5905C396.423 80.8473 396.471 94.2046 400.023 101.946C403.575 109.688 402.597 113.804 412.163 136.69C417.052 148.383 428.273 241.936 428.273 241.936L389.893 258.72C389.893 258.72 371.899 171.261 369.309 151.152C366.719 131.044 372.185 69.4531 372.185 69.4531Z" fill="#2F2E41"/>
<path d="M346.283 57.3716C360.754 57.3716 372.485 45.6408 372.485 31.1702C372.485 16.6995 360.754 4.96875 346.283 4.96875C331.813 4.96875 320.082 16.6995 320.082 31.1702C320.082 45.6408 331.813 57.3716 346.283 57.3716Z" fill="#FFB6B6"/>
<path d="M363.527 51.5279C357.333 46.6866 365.8 25.3898 355.572 29.9355C355.572 29.9355 343.071 21.9804 340.559 27.208C337.651 33.2611 327.309 30.5151 320.956 28.3786C321.455 27.218 321.81 26.0005 322.013 24.7534C320.84 25.6773 319.597 26.5094 318.297 27.2422C317.424 26.776 316.652 26.1427 316.024 25.3784C315.404 24.6686 315.016 23.7863 314.913 22.8498C314.809 21.9132 314.994 20.9674 315.444 20.1394C316.501 18.5143 318.683 18.0143 319.967 16.571C320.116 16.368 320.212 16.1321 320.25 15.8834C320.287 15.6348 320.263 15.3808 320.18 15.1433C320.027 14.5626 320.004 13.9553 320.113 13.3647C320.221 12.7741 320.459 12.2146 320.808 11.7262C321.158 11.2378 321.61 10.8325 322.134 10.5391C322.658 10.2458 323.241 10.0715 323.84 10.0289C324.081 10.0363 324.32 9.98421 324.536 9.87732C325.614 9.21746 326.609 8.43157 327.502 7.53625C326.013 7.60444 327.833 -1.50846 342.594 0.217561C346.31 0.0811999 348.25 4.17963 351.91 4.82741C360.78 -0.241275 368.698 7.07034 372.55 14.0594C376.403 21.0485 380.574 43.5728 363.527 51.5279Z" fill="#2F2E41"/>
<path d="M251.728 13.9399H16.858C12.3898 13.9437 8.1054 15.7197 4.94498 18.8784C1.78455 22.0371 0.00618337 26.3204 0 30.7887V242.425C0.0058105 246.894 1.78378 251.179 4.94402 254.339C8.10425 257.499 12.3888 259.277 16.858 259.283H251.728C256.196 259.277 260.479 257.499 263.638 254.338C266.797 251.178 268.573 246.893 268.576 242.425V30.7887C268.572 26.3214 266.796 22.0382 263.637 18.8793C260.478 15.7205 256.195 13.944 251.728 13.9399Z" fill="white"/>
<path d="M144.412 62.514H119.321C118.088 62.514 116.906 62.0244 116.035 61.153C115.163 60.2816 114.674 59.0997 114.674 57.8674C114.674 56.635 115.163 55.4531 116.035 54.5817C116.906 53.7103 118.088 53.2207 119.321 53.2207H144.412C145.645 53.2207 146.827 53.7103 147.698 54.5817C148.57 55.4531 149.059 56.635 149.059 57.8674C149.059 59.0997 148.57 60.2816 147.698 61.153C146.827 62.0244 145.645 62.514 144.412 62.514Z" fill="#85E0CB"/>
<path d="M477.113 276.011H452.021C450.788 276.011 449.606 275.522 448.735 274.65C447.864 273.779 447.374 272.597 447.374 271.364C447.374 270.132 447.864 268.95 448.735 268.079C449.606 267.207 450.788 266.718 452.021 266.718H477.113C478.345 266.718 479.527 267.207 480.398 268.079C481.27 268.95 481.759 270.132 481.759 271.364C481.759 272.597 481.27 273.779 480.398 274.65C479.527 275.522 478.345 276.011 477.113 276.011Z" fill="#85E0CB"/>
<path d="M209.466 159.845H54.2674C53.035 159.845 51.8531 159.356 50.9817 158.484C50.1103 157.613 49.6208 156.431 49.6208 155.198C49.6208 153.966 50.1103 152.784 50.9817 151.913C51.8531 151.041 53.035 150.552 54.2674 150.552H209.466C210.698 150.552 211.88 151.041 212.751 151.913C213.623 152.784 214.112 153.966 214.112 155.198C214.112 156.431 213.623 157.613 212.751 158.484C211.88 159.356 210.698 159.845 209.466 159.845Z" fill="#E6E6E6"/>
<path d="M209.466 190.513H54.2674C53.035 190.513 51.8531 190.023 50.9817 189.152C50.1103 188.28 49.6208 187.098 49.6208 185.866C49.6208 184.634 50.1103 183.452 50.9817 182.58C51.8531 181.709 53.035 181.219 54.2674 181.219H209.466C210.698 181.219 211.88 181.709 212.751 182.58C213.623 183.452 214.112 184.634 214.112 185.866C214.112 187.098 213.623 188.28 212.751 189.152C211.88 190.023 210.698 190.513 209.466 190.513Z" fill="#E6E6E6"/>
<path d="M209.466 221.18H54.2674C53.035 221.18 51.8531 220.691 50.9817 219.82C50.1103 218.948 49.6208 217.766 49.6208 216.534C49.6208 215.301 50.1103 214.12 50.9817 213.248C51.8531 212.377 53.035 211.887 54.2674 211.887H209.466C210.698 211.887 211.88 212.377 212.751 213.248C213.623 214.12 214.112 215.301 214.112 216.534C214.112 217.766 213.623 218.948 212.751 219.82C211.88 220.691 210.698 221.18 209.466 221.18Z" fill="#E6E6E6"/>
<path d="M177.744 76.4561H85.9909C81.5227 76.4598 77.2383 78.2358 74.0779 81.3945C70.9175 84.5532 69.1391 88.8365 69.1329 93.3048V120.934C69.1387 125.403 70.9167 129.688 74.0769 132.848C77.2372 136.008 81.5217 137.786 85.9909 137.792H177.744C182.212 137.786 186.495 136.007 189.654 132.847C192.813 129.686 194.589 125.402 194.592 120.934V93.3048C194.588 88.8375 192.812 84.5543 189.653 81.3954C186.494 78.2366 182.211 76.4601 177.744 76.4561ZM192.734 120.934C192.734 124.912 191.154 128.727 188.341 131.54C185.528 134.353 181.713 135.933 177.734 135.933H111.87C101.029 135.933 90.6309 131.626 82.9646 123.96C75.2984 116.294 70.9916 105.896 70.9916 95.0545V93.3048C70.9979 89.3295 72.5805 85.519 75.3923 82.7089C78.2042 79.8988 82.0156 78.3186 85.9909 78.3147H177.744C181.718 78.3189 185.528 79.8996 188.339 82.7099C191.149 85.5202 192.73 89.3305 192.734 93.3048V120.934Z" fill="#E6E6E6"/>
<path d="M132.894 117.096C141.62 117.096 148.693 110.022 148.693 101.297C148.693 92.5718 141.62 85.4985 132.894 85.4985C124.169 85.4985 117.096 92.5718 117.096 101.297C117.096 110.022 124.169 117.096 132.894 117.096Z" fill="#E6E6E6"/>
<path d="M169.24 137.792L98.509 137.541L120.813 131.965L123.592 122.792L144.976 122.671L151.379 131.742L167.549 135.933L169.017 136.314L169.24 137.792Z" fill="#E6E6E6"/>
<path d="M123.915 111.384C127.306 108.734 122.671 97.0764 128.27 99.5647C128.27 99.5647 135.113 95.2103 136.487 98.0717C138.079 101.385 143.741 99.8819 147.218 98.7125C146.945 98.0772 146.75 97.4107 146.639 96.7281C147.281 97.2338 147.961 97.6893 148.673 98.0904C149.151 97.8352 149.574 97.4886 149.918 97.0702C150.257 96.6817 150.469 96.1987 150.526 95.6861C150.582 95.1735 150.481 94.6558 150.235 94.2025C149.656 93.313 148.462 93.0393 147.759 92.2492C147.678 92.1381 147.625 92.009 147.604 91.8729C147.584 91.7368 147.597 91.5978 147.642 91.4678C147.726 91.1499 147.739 90.8175 147.679 90.4942C147.62 90.1709 147.49 89.8647 147.299 89.5974C147.107 89.33 146.86 89.1081 146.573 88.9475C146.286 88.787 145.967 88.6916 145.639 88.6683C145.508 88.6723 145.377 88.6438 145.258 88.5853C144.668 88.2241 144.123 87.7939 143.635 87.3039C144.45 87.3412 143.453 82.353 135.374 83.2978C133.34 83.2232 132.277 85.4665 130.274 85.8211C125.419 83.0466 121.085 87.0488 118.976 90.8745C116.868 94.7001 114.585 107.029 123.915 111.384Z" fill="#E6E6E6"/>
<path d="M251.728 13.9399H16.858C12.3898 13.9437 8.1054 15.7197 4.94498 18.8784C1.78455 22.0371 0.00618337 26.3204 0 30.7887V242.425C0.0058105 246.894 1.78378 251.179 4.94402 254.339C8.10425 257.499 12.3888 259.277 16.858 259.283H251.728C256.196 259.277 260.479 257.499 263.638 254.338C266.797 251.178 268.573 246.893 268.576 242.425V30.7887C268.572 26.3214 266.796 22.0382 263.637 18.8793C260.478 15.7205 256.195 13.944 251.728 13.9399ZM266.718 242.425C266.718 246.403 265.137 250.218 262.325 253.031C259.512 255.844 255.696 257.425 251.718 257.425H122.858C106.968 257.425 91.234 254.295 76.5537 248.214C61.8733 242.133 48.5344 233.22 37.2986 221.985C26.0627 210.749 17.15 197.41 11.0692 182.729C4.98838 168.049 1.85865 152.315 1.85866 136.425V30.7887C1.86498 26.8134 3.44759 23.0029 6.25942 20.1928C9.07125 17.3827 12.8827 15.8025 16.858 15.7986H251.728C255.702 15.8028 259.512 17.3835 262.323 20.1938C265.133 23.0041 266.714 26.8144 266.718 30.7887V242.425Z" fill="#E6E6E6"/>
<path d="M497.105 483.198L204.034 483.484C203.742 483.482 203.462 483.365 203.255 483.158C203.049 482.951 202.933 482.67 202.933 482.377C202.933 482.085 203.049 481.804 203.255 481.597C203.462 481.39 203.742 481.272 204.034 481.271L497.105 480.985C497.398 480.987 497.678 481.104 497.884 481.311C498.091 481.519 498.206 481.799 498.206 482.092C498.206 482.384 498.091 482.665 497.884 482.872C497.678 483.08 497.398 483.197 497.105 483.198Z" fill="#CACACA"/>
</g>
<defs>
<clipPath id="clip0_669_26547">
<rect width="500" height="483.484" fill="white"/>
</clipPath>
</defs>
</svg>
