<svg width="34" height="34" viewBox="0 0 34 34" fill="none" xmlns="http://www.w3.org/2000/svg">
<path d="M7.08333 31.1666H26.9167C27.6681 31.1666 28.3888 30.8681 28.9201 30.3367C29.4515 29.8054 29.75 29.0847 29.75 28.3333V15.5833C29.7511 15.3968 29.7153 15.212 29.6448 15.0394C29.5743 14.8668 29.4705 14.7098 29.3392 14.5774L18.0058 3.24411C17.7404 2.98025 17.3813 2.83215 17.0071 2.83215C16.6328 2.83215 16.2738 2.98025 16.0083 3.24411L4.675 14.5774C4.54114 14.7086 4.43465 14.8651 4.3617 15.0378C4.28874 15.2104 4.25078 15.3958 4.25 15.5833V28.3333C4.25 29.0847 4.54851 29.8054 5.07986 30.3367C5.61122 30.8681 6.33189 31.1666 7.08333 31.1666ZM14.1667 28.3333V21.2499H19.8333V28.3333H14.1667ZM7.08333 16.1641L17 6.24744L26.9167 16.1641V28.3333H22.6667V21.2499C22.6667 20.4985 22.3682 19.7778 21.8368 19.2465C21.3055 18.7151 20.5848 18.4166 19.8333 18.4166H14.1667C13.4152 18.4166 12.6946 18.7151 12.1632 19.2465C11.6318 19.7778 11.3333 20.4985 11.3333 21.2499V28.3333H7.08333V16.1641Z" fill="#2DB495"/>
</svg>
