<svg width="28" height="28" viewBox="0 0 28 28" fill="none" xmlns="http://www.w3.org/2000/svg">
<path d="M11.1576 14.2472C11.431 14.5207 11.8742 14.5207 12.1476 14.2472L12.6424 13.7524C12.9159 13.479 12.9159 13.0358 12.6424 12.7624L11.0797 11.2L12.642 9.6373C12.9154 9.36386 12.9154 8.92067 12.642 8.64724L12.1472 8.15242C11.8737 7.87899 11.4306 7.87899 11.1571 8.15242L8.60475 10.7048C8.33131 10.9782 8.33131 11.4214 8.60475 11.6949L11.1576 14.2472ZM15.358 13.7529L15.8528 14.2477C16.1262 14.5211 16.5694 14.5211 16.8429 14.2477L19.3953 11.6953C19.6687 11.4219 19.6687 10.9787 19.3953 10.7052L16.8429 8.15286C16.5694 7.87942 16.1262 7.87942 15.8528 8.15286L15.358 8.64767C15.0846 8.92111 15.0846 9.3643 15.358 9.63774L16.9203 11.2L15.358 12.7628C15.0846 13.0362 15.0846 13.4794 15.358 13.7529ZM27.3 21H16.6924C16.66 21.8667 16.0488 22.4 15.26 22.4H12.6C11.7823 22.4 11.1554 21.6357 11.1663 21H0.7C0.315 21 0 21.315 0 21.7V22.4C0 23.94 1.26 25.2 2.8 25.2H25.2C26.74 25.2 28 23.94 28 22.4V21.7C28 21.315 27.685 21 27.3 21ZM25.2 4.90005C25.2 3.74505 24.255 2.80005 23.1 2.80005H4.9C3.745 2.80005 2.8 3.74505 2.8 4.90005V19.6H25.2V4.90005ZM22.4 16.8H5.6V5.60005H22.4V16.8Z" fill="#00AB84"/>
</svg>
