<svg width="34" height="34" viewBox="0 0 34 34" fill="none" xmlns="http://www.w3.org/2000/svg">
<path d="M25.5 12.75C27.8472 12.75 29.75 10.8472 29.75 8.5C29.75 6.15279 27.8472 4.25 25.5 4.25C23.1528 4.25 21.25 6.15279 21.25 8.5C21.25 10.8472 23.1528 12.75 25.5 12.75Z" fill="#85E0CB" fill-opacity="0.87"/>
<path d="M25.5 26.9166H7.08333V8.49996H18.4167C18.4167 7.49129 18.6334 6.53504 19.0145 5.66663H7.08333C5.52075 5.66663 4.25 6.93738 4.25 8.49996V26.9166C4.25 28.4792 5.52075 29.75 7.08333 29.75H25.5C27.0626 29.75 28.3333 28.4792 28.3333 26.9166V14.9855C27.4406 15.3792 26.4757 15.5828 25.5 15.5833V26.9166Z" fill="#85E0CB" fill-opacity="0.87"/>
</svg>
