<svg width="694" height="681" viewBox="0 0 694 681" fill="none" xmlns="http://www.w3.org/2000/svg">
<g clip-path="url(#clip0_154_6707)">
<path d="M442.3 152.622H405.402V469.574C405.402 474.547 404.43 479.471 402.541 484.065C400.653 488.66 397.884 492.834 394.394 496.351C390.904 499.867 386.761 502.656 382.201 504.559C377.642 506.462 372.754 507.442 367.819 507.442H85.7232V507.804C85.7232 512.777 86.6953 517.701 88.584 522.296C90.4728 526.89 93.2411 531.065 96.7311 534.581C100.221 538.097 104.364 540.887 108.924 542.79C113.484 544.693 118.371 545.672 123.307 545.672H442.299C447.235 545.672 452.122 544.693 456.682 542.79C461.242 540.887 465.385 538.097 468.875 534.581C472.365 531.065 475.133 526.89 477.022 522.296C478.911 517.701 479.883 512.777 479.883 507.804V190.49C479.883 180.447 475.923 170.815 468.875 163.713C461.827 156.612 452.267 152.622 442.3 152.622Z" fill="#F2F2F2"/>
<path d="M617.21 656.308C617.863 656.338 618.51 656.165 619.062 655.813C619.615 655.46 620.047 654.945 620.299 654.337C620.551 653.73 620.612 653.058 620.473 652.414C620.334 651.771 620.002 651.186 619.521 650.738L619.303 649.863C619.332 649.793 619.361 649.723 619.39 649.653C620.048 648.087 621.15 646.752 622.559 645.815C623.968 644.878 625.62 644.382 627.308 644.388C628.996 644.394 630.644 644.903 632.046 645.85C633.448 646.798 634.541 648.141 635.187 649.712C637.771 655.982 641.061 662.263 641.871 668.892C642.227 671.823 642.077 674.793 641.426 677.672C647.494 664.334 650.646 649.837 650.666 635.164C650.667 631.482 650.464 627.803 650.058 624.144C649.722 621.144 649.256 618.166 648.66 615.209C645.407 599.165 638.424 584.127 628.283 571.33C623.375 568.631 619.405 564.482 616.91 559.441C616.006 557.629 615.367 555.694 615.013 553.697C615.567 553.771 617.1 545.275 616.683 544.753C617.454 543.574 618.835 542.987 619.678 541.836C623.869 536.111 629.643 537.11 632.658 544.891C639.097 548.165 639.16 553.596 635.208 558.819C632.695 562.142 632.349 566.638 630.144 570.196C630.37 570.488 630.606 570.772 630.833 571.064C634.981 576.439 638.597 582.21 641.627 588.294C640.89 581.478 641.77 574.582 644.194 568.175C646.651 562.203 651.256 557.174 655.311 552.012C656.383 550.625 657.84 549.59 659.496 549.037C661.152 548.484 662.934 548.438 664.616 548.905C666.298 549.373 667.805 550.332 668.946 551.662C670.088 552.992 670.812 554.633 671.028 556.378C671.036 556.454 671.044 556.53 671.052 556.606C670.45 556.948 669.86 557.311 669.283 557.696C668.558 558.184 667.997 558.881 667.672 559.696C667.347 560.511 667.274 561.405 667.463 562.263C667.651 563.12 668.093 563.9 668.729 564.501C669.365 565.101 670.166 565.494 671.027 565.628L671.115 565.641C670.901 567.829 670.521 569.996 669.981 572.125C675.183 592.396 663.952 599.778 647.916 600.11C647.562 600.293 647.217 600.476 646.863 600.65C649.908 609.344 651.818 618.401 652.545 627.592C652.956 633.014 652.932 638.461 652.472 643.88L652.499 643.688C653.661 637.662 656.851 632.226 661.53 628.296C668.481 622.544 678.3 620.425 685.797 615.801C686.594 615.286 687.521 615.011 688.468 615.008C689.415 615.006 690.343 615.277 691.142 615.788C691.941 616.3 692.579 617.031 692.979 617.896C693.38 618.76 693.526 619.722 693.402 620.668L693.371 620.87C692.254 621.329 691.165 621.857 690.113 622.452C689.51 622.795 688.921 623.158 688.344 623.542C687.619 624.03 687.058 624.727 686.733 625.542C686.408 626.357 686.335 627.252 686.524 628.109C686.712 628.966 687.153 629.746 687.789 630.347C688.425 630.947 689.227 631.34 690.088 631.474L690.176 631.488C690.24 631.497 690.294 631.506 690.358 631.515C688.448 636.11 685.768 640.339 682.434 644.017C679.181 661.712 665.211 663.391 650.266 658.238H650.257C648.618 665.417 646.242 672.405 643.168 679.089H617.845C617.754 678.806 617.672 678.513 617.591 678.229C619.935 678.378 622.288 678.237 624.598 677.809C622.719 675.486 620.84 673.145 618.961 670.822C618.919 670.778 618.88 670.733 618.843 670.685C617.89 669.496 616.928 668.316 615.975 667.127L615.974 667.126C615.924 663.481 616.339 659.846 617.209 656.308L617.21 656.308Z" fill="#F2F2F2"/>
<path d="M338.29 109.508C339.214 110.919 340.432 112.111 341.859 113.002C343.286 113.892 344.887 114.46 346.553 114.665C348.219 114.871 349.91 114.709 351.508 114.192C353.105 113.674 354.573 112.813 355.808 111.668L408.457 135.601L418.608 122.556L355.869 94.5907C353.802 92.6393 351.095 91.5199 348.263 91.4446C345.431 91.3692 342.67 92.3432 340.504 94.1819C338.337 96.0206 336.914 98.5963 336.506 101.421C336.098 104.246 336.733 107.123 338.29 109.508H338.29Z" fill="#A0616A"/>
<path d="M564.239 124.431L569.46 154.246C569.704 155.637 569.656 157.063 569.32 158.435C568.984 159.806 568.367 161.091 567.509 162.208C566.651 163.325 565.57 164.249 564.337 164.92C563.104 165.591 561.745 165.995 560.347 166.106L471.618 173.136L367.322 126.105L379.779 102.279L470.318 131.167L564.239 124.431Z" fill="#85E0CB"/>
<path d="M356.576 103.064H37.5834C16.8267 103.064 0 120.018 0 140.932V458.246C0 479.16 16.8267 496.114 37.5834 496.114H356.576C377.333 496.114 394.16 479.16 394.16 458.246V140.932C394.16 120.018 377.333 103.064 356.576 103.064Z" fill="#F2F2F2"/>
<path d="M37.5837 110.852C33.6631 110.852 29.781 111.63 26.1589 113.141C22.5368 114.653 19.2457 116.869 16.4734 119.662C13.7012 122.455 11.5021 125.771 10.0018 129.421C8.50149 133.07 7.72931 136.982 7.72931 140.932V458.247C7.72931 466.225 10.8747 473.876 16.4734 479.517C22.0722 485.158 29.6658 488.327 37.5837 488.327H241.173C260.248 488.327 279.137 484.541 296.76 477.186C314.384 469.831 330.397 459.051 343.885 445.46C357.374 431.869 368.073 415.735 375.373 397.978C382.673 380.221 386.43 361.19 386.43 341.97V140.932C386.43 136.982 385.658 133.07 384.158 129.421C382.657 125.771 380.458 122.455 377.686 119.662C374.914 116.869 371.623 114.653 368.001 113.141C364.379 111.63 360.497 110.852 356.576 110.852H37.5837Z" fill="white"/>
<path d="M286.253 207.151H107.209C105.566 207.151 103.991 206.494 102.829 205.323C101.667 204.153 101.015 202.565 101.015 200.91C101.015 199.255 101.667 197.667 102.829 196.496C103.991 195.326 105.566 194.668 107.209 194.668H286.253C287.896 194.668 289.472 195.326 290.633 196.496C291.795 197.667 292.448 199.255 292.448 200.91C292.448 202.565 291.795 204.153 290.633 205.323C289.472 206.494 287.896 207.151 286.253 207.151Z" fill="#F2F2F2"/>
<path d="M286.253 340.249H107.209C105.566 340.249 103.991 339.592 102.829 338.421C101.667 337.251 101.015 335.663 101.015 334.008C101.015 332.352 101.667 330.765 102.829 329.594C103.991 328.424 105.566 327.766 107.209 327.766H286.253C287.896 327.766 289.472 328.424 290.633 329.594C291.795 330.765 292.448 332.352 292.448 334.008C292.448 335.663 291.795 337.251 290.633 338.421C289.472 339.592 287.896 340.249 286.253 340.249Z" fill="#F2F2F2"/>
<path d="M358.959 273.744H34.5032C32.8603 273.744 31.2847 273.086 30.1229 271.916C28.9612 270.745 28.3086 269.158 28.3086 267.502C28.3086 265.847 28.9612 264.26 30.1229 263.089C31.2847 261.919 32.8603 261.261 34.5032 261.261H358.959C360.602 261.261 362.178 261.919 363.339 263.089C364.501 264.26 365.154 265.847 365.154 267.502C365.154 269.158 364.501 270.745 363.339 271.916C362.178 273.086 360.602 273.744 358.959 273.744Z" fill="#F2F2F2"/>
<path d="M553.028 255.841L520.707 325.222L645.043 312.534L619.089 245.93L553.028 255.841Z" fill="#A0616A"/>
<path d="M581.935 654.615L570.146 654.515L564.928 607.632L582.326 607.78L581.935 654.615Z" fill="#A0616A"/>
<path d="M544.175 673.502C544.164 674.91 544.708 676.265 545.688 677.27C546.668 678.274 548.003 678.846 549.4 678.859L572.839 679.056L576.942 670.676L578.449 679.099L587.293 679.18L585.059 649.138L581.983 648.932L569.432 648.061L565.383 647.787L565.312 656.287L546.484 669.154C545.779 669.637 545.2 670.285 544.798 671.042C544.396 671.799 544.182 672.643 544.175 673.502Z" fill="#2F2E41"/>
<path d="M451.475 654.669L440.235 651.083L448.918 604.725L465.506 610.016L451.475 654.669Z" fill="#A0616A"/>
<path d="M409.873 661.544C409.452 662.887 409.578 664.343 410.221 665.593C410.865 666.843 411.974 667.785 413.306 668.212L435.652 675.339L442.018 668.543L441.002 677.04L449.432 679.736L456.058 650.359L453.177 649.251L441.435 644.703L437.644 643.243L435.098 651.346L413.348 658.072C412.534 658.324 411.792 658.772 411.186 659.377C410.581 659.982 410.13 660.725 409.873 661.544Z" fill="#2F2E41"/>
<path d="M639.38 293.023L526.328 313.895C526.328 313.895 508.195 327.561 513.046 332.456C517.897 337.35 518.649 336.592 515.462 339.803C512.275 343.014 505.385 347.306 505.317 350.116C505.249 352.925 454.658 478.944 454.658 478.944C454.658 478.944 460.279 476.112 456.063 480.36C451.847 484.607 451.847 488.117 451.847 488.117L432.173 621.953L464.125 623.848L495.412 501.833L565.198 387.844C565.198 387.844 572.122 489.493 572.413 496.254C572.703 503.014 576.919 494.519 572.703 503.014C568.487 511.51 565.677 505.846 568.487 511.51C571.298 517.174 558.362 632.48 558.362 632.48H587.527L650.076 393.483C650.076 393.483 672.331 325.156 639.38 293.023Z" fill="#2F2E41"/>
<path d="M606.076 101.855L560.791 97.1136L549.058 112.461L535.39 119.796C529.606 122.9 524.832 127.617 521.638 133.383C518.444 139.149 516.967 145.72 517.381 152.309L533.355 245.93C533.355 245.93 519.862 276.541 529.139 284.16C538.415 291.779 521.967 310.648 541.786 301.151C561.606 291.654 647.184 302.567 647.184 302.567L628.915 250.178L642.562 198.698L644.064 155.532C644.345 147.466 641.969 139.533 637.308 132.97C632.646 126.406 625.96 121.581 618.292 119.246L616.384 118.665L606.076 101.855Z" fill="#85E0CB"/>
<path d="M668.422 66.8749C668.718 79.7358 663.948 92.1889 657.095 103.127C655.059 96.7416 651.399 90.9299 647.581 85.3898C649.505 97.3746 647.456 109.664 641.749 120.357C641.548 120.502 641.34 120.637 641.125 120.761C635.539 124.146 628.457 125.517 622.415 123.072C634.9 109.512 636.489 87.0452 626.021 71.8355C623.058 67.5197 619.225 63.7027 617.389 58.7913C614.491 50.9548 617.277 42.3266 619.035 34.1562C620.678 26.552 620.966 17.503 615.902 11.9301C616.443 11.1513 617.18 10.5314 618.037 10.1338C618.894 9.73631 619.84 9.57548 620.779 9.66781C623.901 10.1121 626.173 12.8461 627.62 15.6619C629.068 18.4777 630.022 21.5985 632.039 24.0306C635.774 28.5828 642.135 29.6591 647.495 32.0582C660.477 37.8842 668.111 52.5641 668.422 66.8749Z" fill="#2F2E41"/>
<path d="M333.97 679.165C333.97 679.386 334.013 679.606 334.096 679.811C334.18 680.015 334.303 680.201 334.459 680.358C334.614 680.514 334.799 680.639 335.002 680.723C335.205 680.807 335.423 680.851 335.643 680.85H691.591C692.034 680.85 692.46 680.672 692.773 680.356C693.087 680.04 693.263 679.612 693.263 679.165C693.263 678.718 693.087 678.29 692.773 677.974C692.46 677.658 692.034 677.48 691.591 677.48H335.643C335.423 677.479 335.205 677.523 335.002 677.607C334.799 677.691 334.614 677.816 334.459 677.972C334.303 678.129 334.18 678.315 334.096 678.519C334.013 678.724 333.97 678.944 333.97 679.165Z" fill="#CCCCCC"/>
<path d="M671.224 364.954C678.21 364.954 683.872 359.249 683.872 352.211C683.872 345.173 678.21 339.467 671.224 339.467C664.239 339.467 658.577 345.173 658.577 352.211C658.577 359.249 664.239 364.954 671.224 364.954Z" fill="#85E0CB"/>
<path d="M559.149 59.5215C559.891 56.9054 554.777 72.8969 557.245 73.1856C568.482 74.4845 583.909 81.2467 591.736 84.4015C592.088 84.3602 592.441 84.319 592.783 84.2674C593.622 84.1746 594.441 84.0406 595.25 83.886C613.475 80.4117 620.483 52.2043 620.483 51.9466C620.483 50.6785 617.463 15.8501 612.704 15.3347C611.455 15.1981 610.198 15.1293 608.941 15.1285H597.133C594.69 14.598 592.214 14.2363 589.721 14.046H589.7C565.929 12.2212 547.186 26.8195 548.938 44.583C548.949 44.6035 548.969 44.6242 548.98 44.6448C549.488 45.4077 549.934 46.1294 550.327 46.8201C550.711 47.4696 551.032 48.0882 551.312 48.6758C553.479 53.2121 547.909 58.9201 551.602 59.9855C556.514 61.4025 538.684 107.977 558.125 107.977C548.669 110.686 557.102 66.7382 559.149 59.5215Z" fill="#2F2E41"/>
<path d="M580.369 86.8492C595.809 86.8492 608.325 74.238 608.325 58.6812C608.325 43.1245 595.809 30.5132 580.369 30.5132C564.929 30.5132 552.413 43.1245 552.413 58.6812C552.413 74.238 564.929 86.8492 580.369 86.8492Z" fill="#A0616A"/>
<path d="M548.938 46.119C549.405 46.3665 549.861 46.5932 550.327 46.8201C550.815 47.0572 551.302 47.2943 551.789 47.5108C561.15 51.7893 568.77 52.2635 573.394 46.119C573.517 42.8859 574.238 39.7044 575.519 36.7373C575.292 40.053 576.16 43.3512 577.986 46.119H587.295C596.885 52.5316 601.809 53.2017 595.153 74.2538C593.298 80.12 585.919 114.255 588.822 119.317C589.662 119.224 598.595 81.8358 599.404 81.6812C617.629 78.2069 629.208 47.9541 627.726 46.2428C627.733 41.3761 626.622 36.5737 624.481 32.2114C621.772 26.6847 617.548 22.0554 612.31 18.8708C609.188 17.3455 605.933 16.1134 602.586 15.1903C602.503 15.1697 602.431 15.149 602.348 15.1285C601.322 14.8501 600.275 14.5923 599.227 14.3758C597.064 13.9156 594.877 13.5817 592.676 13.3758C592.52 13.3655 592.365 13.3552 592.22 13.3552C591.341 13.3572 590.478 13.5957 589.721 14.046C589.711 14.046 589.711 14.0562 589.7 14.0562C589.16 14.3747 588.687 14.7988 588.311 15.3037C587.649 16.1531 587.291 17.203 587.295 18.2831H576.929C576.545 18.2831 576.161 18.2934 575.778 18.314C568.859 18.5523 562.277 21.3834 557.321 26.2534C552.364 31.1233 549.39 37.6816 548.98 44.6448C548.949 45.1396 548.938 45.6241 548.938 46.119Z" fill="#2F2E41"/>
<path d="M610.063 37.1145C620.235 37.1145 628.481 28.8061 628.481 18.5572C628.481 8.30836 620.235 0 610.063 0C599.891 0 591.646 8.30836 591.646 18.5572C591.646 28.8061 599.891 37.1145 610.063 37.1145Z" fill="#2F2E41"/>
<path d="M671.366 357.465C672.265 356.037 672.845 354.429 673.067 352.753C673.288 351.077 673.146 349.372 672.649 347.757C672.152 346.141 671.314 344.654 670.19 343.398C669.067 342.141 667.686 341.145 666.143 340.48L666.234 282.283L650.264 278.3L650.658 347.422C649.738 350.122 649.834 353.068 650.926 355.701C652.019 358.335 654.032 360.473 656.584 361.711C659.137 362.949 662.052 363.201 664.776 362.418C667.501 361.636 669.845 359.874 671.366 357.465V357.465Z" fill="#A0616A"/>
<path d="M592.282 143.685L617.134 126.668C618.293 125.874 619.604 125.333 620.983 125.08C622.363 124.827 623.779 124.867 625.142 125.198C626.504 125.529 627.783 126.144 628.897 127.002C630.01 127.861 630.932 128.944 631.605 130.183L674.331 208.851L674.495 323.981L647.82 322.296L636.869 227.246L592.282 143.685Z" fill="#85E0CB"/>
<path d="M401.417 404.784H135.816C130.039 404.784 124.498 407.096 120.414 411.212C116.329 415.328 114.034 420.91 114.034 426.731C114.034 432.552 116.329 438.134 120.414 442.25C124.498 446.366 130.039 448.678 135.816 448.678H401.417C407.194 448.678 412.735 446.366 416.82 442.25C420.904 438.134 423.199 432.552 423.199 426.731C423.199 420.91 420.904 415.328 416.82 411.212C412.735 407.096 407.194 404.784 401.417 404.784Z" fill="white"/>
<path d="M401.417 450.094H135.816C129.666 450.094 123.768 447.633 119.42 443.251C115.071 438.87 112.628 432.927 112.628 426.731C112.628 420.535 115.071 414.592 119.42 410.211C123.768 405.83 129.666 403.368 135.816 403.368H401.417C407.567 403.368 413.465 405.83 417.813 410.211C422.162 414.592 424.605 420.535 424.605 426.731C424.605 432.927 422.162 438.87 417.813 443.251C413.465 447.633 407.567 450.094 401.417 450.094ZM135.816 406.2C130.412 406.2 125.229 408.363 121.407 412.213C117.586 416.064 115.439 421.286 115.439 426.731C115.439 432.176 117.586 437.398 121.407 441.249C125.229 445.099 130.412 447.262 135.816 447.262H401.417C406.821 447.262 412.004 445.099 415.826 441.249C419.647 437.398 421.794 432.176 421.794 426.731C421.794 421.286 419.647 416.064 415.826 412.213C412.004 408.363 406.821 406.2 401.417 406.2H135.816Z" fill="#85E0CB"/>
<path d="M417.079 500.562H299.868C298.225 500.562 296.649 499.904 295.488 498.734C294.326 497.563 293.673 495.976 293.673 494.32C293.673 492.665 294.326 491.078 295.488 489.907C296.649 488.737 298.225 488.079 299.868 488.079H417.079C418.722 488.079 420.297 488.737 421.459 489.907C422.621 491.078 423.273 492.665 423.273 494.32C423.273 495.976 422.621 497.563 421.459 498.734C420.297 499.904 418.722 500.562 417.079 500.562Z" fill="#85E0CB"/>
</g>
<defs>
<clipPath id="clip0_154_6707">
<rect width="693.46" height="680.85" fill="white"/>
</clipPath>
</defs>
</svg>
