<svg width="557" height="494" viewBox="0 0 557 494" fill="none" xmlns="http://www.w3.org/2000/svg">
<path d="M261 39L487.033 234H34.9674L261 39Z" fill="white"/>
<rect x="30" y="227" width="459" height="267" fill="white"/>
<path d="M556.553 231.87C556.555 251.519 549.14 270.444 535.791 284.862C522.443 299.281 504.144 308.13 484.553 309.64C483.893 309.69 483.223 309.74 482.553 309.77V235.74C482.554 235 482.389 234.27 482.071 233.602C481.753 232.934 481.289 232.346 480.714 231.88C480.647 231.812 480.573 231.752 480.493 231.7C480.421 231.641 480.344 231.588 480.263 231.54C479.561 231.088 478.756 230.819 477.923 230.758C477.09 230.697 476.254 230.845 475.493 231.19L474.663 229.37C475.571 228.957 476.556 228.742 477.553 228.74L420.594 179.67C421.033 179.17 421.493 178.68 421.953 178.19C432.692 166.87 446.578 159.031 461.818 155.685C477.057 152.339 492.951 153.64 507.443 159.42C521.936 165.2 534.363 175.193 543.117 188.108C551.872 201.023 556.552 216.267 556.553 231.87V231.87Z" fill="#F2F2F2"/>
<path d="M482.553 230.84C482.563 231.089 482.477 231.332 482.313 231.52C482.141 231.722 481.896 231.846 481.631 231.867C481.367 231.888 481.105 231.802 480.904 231.63L477.553 228.74L420.594 179.67L260.834 42.0201C259.922 41.24 258.762 40.812 257.562 40.8139C256.362 40.8157 255.203 41.2472 254.294 42.0301L39.1536 228.94L37.2137 230.62C37.1391 230.686 37.0548 230.74 36.9637 230.78C36.8035 230.851 36.6276 230.879 36.4534 230.86C36.2037 230.833 35.9724 230.716 35.8035 230.53C35.7166 230.432 35.6501 230.317 35.6075 230.193C35.565 230.069 35.5474 229.937 35.5558 229.806C35.5641 229.675 35.5982 229.547 35.6562 229.43C35.7141 229.312 35.7947 229.207 35.8934 229.12L36.1634 228.88L252.984 40.5201C254.258 39.4259 255.88 38.8225 257.56 38.8189C259.239 38.8152 260.865 39.4114 262.143 40.5001L421.953 178.19L482.203 230.11C482.309 230.201 482.394 230.313 482.454 230.439C482.515 230.564 482.548 230.701 482.553 230.84V230.84Z" fill="#3F3D56"/>
<path d="M361.084 260.37L358.453 253.13L349.393 228.13L329.873 174.3L308.053 114.13L268.703 5.60042C267.931 3.48399 266.351 1.76001 264.31 0.805998C262.269 -0.148012 259.933 -0.254295 257.813 0.51042L30.3035 83.0004C28.1865 83.7723 26.4619 85.352 25.5077 87.3934C24.5536 89.4348 24.4479 91.7712 25.2137 93.8904L81.0037 247.75L81.9534 250.38L140.513 276.92L156.973 284.38L159.643 285.59L229.334 317.18L232.033 316.2L277.743 299.63L346.694 274.63L355.984 271.26C358.102 270.489 359.828 268.91 360.784 266.869C361.739 264.828 361.847 262.491 361.084 260.37V260.37Z" fill="#E6E6E6"/>
<path d="M265.683 132.21C264.548 129.095 262.225 126.558 259.222 125.154C256.219 123.75 252.781 123.594 249.663 124.72L159.643 157.37L116.174 173.13C114.629 173.688 113.21 174.546 111.997 175.653C110.784 176.76 109.801 178.095 109.104 179.583C108.407 181.07 108.01 182.68 107.936 184.321C107.862 185.961 108.112 187.6 108.672 189.144C109.232 190.688 110.09 192.107 111.199 193.319C112.307 194.531 113.643 195.513 115.131 196.208C116.619 196.903 118.23 197.298 119.87 197.371C121.511 197.443 123.15 197.191 124.694 196.63L159.643 183.96L258.194 148.23C261.308 147.095 263.846 144.771 265.25 141.768C266.654 138.765 266.81 135.328 265.683 132.21V132.21Z" fill="white"/>
<path d="M281.533 175.93C280.399 172.816 278.075 170.278 275.072 168.874C272.069 167.47 268.631 167.314 265.514 168.44L250.264 173.97L159.643 206.83L132.024 216.84C128.909 217.972 126.371 220.295 124.968 223.297C123.565 226.299 123.411 229.736 124.54 232.851C125.669 235.967 127.989 238.507 130.99 239.913C133.991 241.319 137.427 241.477 140.544 240.35L159.643 233.42L274.044 191.94C274.304 191.85 274.553 191.74 274.803 191.63C277.708 190.356 280.02 188.025 281.269 185.109C282.519 182.194 282.613 178.913 281.533 175.93V175.93Z" fill="white"/>
<path d="M297.554 220.11C296.421 216.996 294.099 214.459 291.098 213.054C288.096 211.65 284.66 211.494 281.544 212.62L238.774 228.13L205.663 240.14L159.643 256.82L148.044 261.03C145.363 262.007 143.096 263.869 141.617 266.31C140.139 268.75 139.538 271.622 139.913 274.45C140.028 275.292 140.229 276.12 140.514 276.92L156.974 284.38L159.643 283.41H159.663L243.174 253.13L290.063 236.13C293.18 234.998 295.719 232.674 297.124 229.671C298.528 226.667 298.683 223.228 297.554 220.11H297.554Z" fill="white"/>
<path d="M203.824 89.2301C202.689 86.1154 200.365 83.5778 197.362 82.1737C194.359 80.7696 190.921 80.6137 187.804 81.7401L136.103 100.48C132.989 101.612 130.451 103.934 129.047 106.937C127.644 109.939 127.49 113.375 128.619 116.491C129.748 119.607 132.068 122.147 135.069 123.553C138.07 124.959 141.507 125.116 144.623 123.99L160.984 118.06L171.813 114.13L196.334 105.24C199.448 104.107 201.986 101.786 203.39 98.7841C204.794 95.7826 204.95 92.3466 203.824 89.2301Z" fill="white"/>
<path d="M410.143 114.13H168.143C166.716 114.132 165.312 114.493 164.061 115.179C162.809 115.866 161.751 116.857 160.984 118.06C160.106 119.423 159.641 121.01 159.643 122.63V285.59L229.334 317.18L239.154 321.63L254.663 328.66C255.572 329.071 256.557 329.283 257.554 329.283C258.55 329.283 259.535 329.071 260.444 328.66L275.953 321.63L324.493 299.63L369.734 279.12L418.643 256.96V122.63C418.642 120.376 417.746 118.215 416.152 116.622C414.558 115.028 412.397 114.132 410.143 114.13Z" fill="#85E0CB"/>
<path d="M360.143 228.13H218.143C214.915 228.132 211.812 229.384 209.485 231.623C207.159 233.862 205.789 236.914 205.663 240.14C205.647 240.303 205.64 240.467 205.643 240.63C205.648 243.944 206.966 247.121 209.31 249.464C211.653 251.807 214.83 253.126 218.143 253.13H360.143C363.459 253.13 366.638 251.813 368.982 249.469C371.326 247.125 372.643 243.946 372.643 240.63C372.643 237.315 371.326 234.136 368.982 231.792C366.638 229.447 363.459 228.13 360.143 228.13Z" fill="white"/>
<path d="M368.234 277.61C365.98 275.682 363.11 274.625 360.143 274.63H218.143C214.828 274.63 211.649 275.947 209.305 278.292C206.96 280.636 205.643 283.815 205.643 287.13C205.643 290.446 206.96 293.625 209.305 295.969C211.649 298.313 214.828 299.63 218.143 299.63H324.493L369.734 279.12C369.277 278.576 368.775 278.07 368.234 277.61Z" fill="white"/>
<path d="M239.154 321.63L254.663 328.66C255.572 329.071 256.557 329.283 257.553 329.283C258.55 329.283 259.535 329.071 260.444 328.66L275.953 321.63H239.154Z" fill="white"/>
<path d="M328.384 174.84C327.503 172.434 325.905 170.356 323.806 168.888C321.706 167.419 319.206 166.631 316.643 166.63H261.643C259.242 166.633 256.892 167.326 254.874 168.627C252.856 169.929 251.256 171.784 250.263 173.97C249.523 175.59 249.141 177.35 249.143 179.13C249.148 182.444 250.466 185.621 252.81 187.964C255.153 190.307 258.33 191.626 261.643 191.63H316.643C318.654 191.631 320.636 191.146 322.419 190.217C324.202 189.288 325.735 187.942 326.888 186.294C328.04 184.646 328.778 182.744 329.038 180.75C329.299 178.756 329.074 176.729 328.384 174.84Z" fill="white"/>
<path d="M319.643 299.63L271.103 321.63L259.614 326.84C258.966 327.132 258.264 327.283 257.554 327.283C256.843 327.283 256.141 327.132 255.493 326.84L244.004 321.63H239.154L254.663 328.66C255.572 329.071 256.557 329.283 257.554 329.283C258.55 329.283 259.535 329.071 260.444 328.66L275.953 321.63L324.493 299.63H319.643ZM319.643 299.63L271.103 321.63L259.614 326.84C258.966 327.132 258.264 327.283 257.554 327.283C256.843 327.283 256.141 327.132 255.493 326.84L244.004 321.63H239.154L254.663 328.66C255.572 329.071 256.557 329.283 257.554 329.283C258.55 329.283 259.535 329.071 260.444 328.66L275.953 321.63L324.493 299.63H319.643ZM319.643 299.63L271.103 321.63L259.614 326.84C258.966 327.132 258.264 327.283 257.554 327.283C256.843 327.283 256.141 327.132 255.493 326.84L244.004 321.63H239.154L254.663 328.66C255.572 329.071 256.557 329.283 257.554 329.283C258.55 329.283 259.535 329.071 260.444 328.66L275.953 321.63L324.493 299.63H319.643ZM482.553 230.84C482.185 230.473 481.779 230.145 481.344 229.86C480.361 229.223 479.234 228.845 478.066 228.759C476.899 228.673 475.728 228.884 474.663 229.37L368.234 277.61L319.643 299.63L271.103 321.63L259.614 326.84C258.966 327.132 258.264 327.283 257.553 327.283C256.843 327.283 256.141 327.132 255.493 326.84L244.004 321.63L232.033 316.2L159.663 283.41L159.643 283.4L139.913 274.45L81.0037 247.75L40.4437 229.37C40.031 229.179 39.5983 229.035 39.1537 228.94C38.1741 228.696 37.152 228.675 36.1634 228.88C34.582 229.204 33.1605 230.063 32.1386 231.313C31.1167 232.562 30.5569 234.126 30.5536 235.74V486.87C30.5556 488.726 31.2938 490.506 32.6061 491.818C33.9184 493.13 35.6977 493.868 37.5536 493.87H477.554C479.409 493.868 481.189 493.13 482.501 491.818C483.813 490.506 484.551 488.726 484.554 486.87V235.74C484.557 233.908 483.838 232.147 482.553 230.84V230.84ZM482.553 486.87C482.553 488.196 482.026 489.468 481.088 490.405C480.151 491.343 478.879 491.87 477.553 491.87H37.5535C36.2276 491.87 34.9562 491.343 34.0186 490.405C33.081 489.468 32.5541 488.196 32.5535 486.87V235.74C32.5539 234.905 32.7637 234.082 33.1638 233.349C33.5638 232.615 34.1413 231.993 34.8435 231.54C35.3377 231.224 35.882 230.994 36.4534 230.86C36.6218 230.824 36.7922 230.797 36.9636 230.78C37.1589 230.752 37.3562 230.739 37.5535 230.74C38.2644 230.741 38.9669 230.895 39.6135 231.19L81.9533 250.38L140.513 276.92L156.973 284.38L159.643 285.59L229.334 317.18L239.154 321.63L254.663 328.66C255.572 329.071 256.557 329.283 257.553 329.283C258.55 329.283 259.535 329.071 260.444 328.66L275.953 321.63L324.493 299.63L369.734 279.12L475.493 231.19C476.254 230.845 477.09 230.697 477.923 230.758C478.756 230.819 479.561 231.088 480.263 231.54C480.344 231.588 480.421 231.641 480.493 231.7C480.573 231.752 480.647 231.812 480.714 231.88C481.289 232.346 481.753 232.934 482.071 233.602C482.389 234.27 482.554 235 482.553 235.74L482.553 486.87ZM319.643 299.63L271.103 321.63L259.614 326.84C258.966 327.132 258.264 327.283 257.554 327.283C256.843 327.283 256.141 327.132 255.493 326.84L244.004 321.63H239.154L254.663 328.66C255.572 329.071 256.557 329.283 257.554 329.283C258.55 329.283 259.535 329.071 260.444 328.66L275.953 321.63L324.493 299.63H319.643ZM319.643 299.63L271.103 321.63L259.614 326.84C258.966 327.132 258.264 327.283 257.554 327.283C256.843 327.283 256.141 327.132 255.493 326.84L244.004 321.63H239.154L254.663 328.66C255.572 329.071 256.557 329.283 257.554 329.283C258.55 329.283 259.535 329.071 260.444 328.66L275.953 321.63L324.493 299.63H319.643ZM156.973 284.38L159.643 285.59V283.41L156.973 284.38ZM319.643 299.63L271.103 321.63L259.614 326.84C258.966 327.132 258.264 327.283 257.554 327.283C256.843 327.283 256.141 327.132 255.493 326.84L244.004 321.63H239.154L254.663 328.66C255.572 329.071 256.557 329.283 257.554 329.283C258.55 329.283 259.535 329.071 260.444 328.66L275.953 321.63L324.493 299.63H319.643Z" fill="#3F3D56"/>
</svg>
