<svg width="558" height="463" viewBox="0 0 558 463" fill="none" xmlns="http://www.w3.org/2000/svg">
<path d="M493.353 393.676C475.882 407.899 454.597 422.306 433.671 429.099C427.639 431.116 421.413 432.403 415.113 432.937C409.222 433.443 403.293 432.952 397.546 431.48C382.443 427.464 368.435 420.432 354.881 412.216C350.452 409.527 346.075 406.715 341.723 403.842C334.62 399.149 327.587 394.292 320.534 389.551C319.479 388.833 318.429 388.128 317.373 387.431H317.367C315.664 386.288 313.958 385.162 312.247 384.051C311.946 383.853 311.646 383.661 311.338 383.463C308.107 381.369 304.819 379.324 301.477 377.326C301.067 377.087 300.658 376.841 300.248 376.601C293.781 372.766 287.134 369.289 280.333 366.182C275.866 364.171 271.342 362.358 266.772 360.812H266.766C265.019 360.224 263.265 359.67 261.506 359.163C256.228 357.616 250.851 356.49 245.417 355.798C237.93 354.829 230.357 354.893 222.885 355.989C222.379 356.064 221.88 356.14 221.374 356.229C201.152 359.69 182.696 371.361 162.384 374.111C161.725 374.2 161.072 374.282 160.413 374.344C160.131 374.371 159.85 374.405 159.568 374.426C153.665 374.966 147.725 374.81 141.854 373.961C125.452 371.648 109.479 364.472 95.0995 355.428C61.483 334.282 34.2211 301.781 17.6464 264.141C14.8002 257.691 12.2732 251.084 10.0758 244.35C3.93228 225.676 0.548999 206.092 0.0478126 186.304C-1.50726 117.647 34.989 48.7645 92.2901 17.713C149.598 -13.3385 224.984 -3.07013 271.201 44.6325C299.237 73.5701 315.46 112.783 336.559 147.816C357.658 182.842 387.646 216.302 426.325 221.405C446.029 224.005 466.648 218.977 485.533 225.517C495.989 229.142 504.91 236.079 512.097 244.918C516.929 250.916 520.972 257.59 524.115 264.757C526.419 269.938 528.288 275.327 529.702 280.861C529.964 281.88 530.208 282.899 530.444 283.919C539.852 324.992 524.819 368.05 493.353 393.676Z" fill="#152E48"/>
<path d="M548.201 403.418C545.772 383.868 533.666 364.605 515.036 358.243C522.383 378.366 522.381 400.441 515.031 420.562C512.169 428.312 508.178 436.633 510.871 444.444C512.547 449.304 516.645 453.022 521.227 455.347C525.808 457.672 530.893 458.78 535.914 459.866L536.902 460.684C544.873 442.67 550.63 422.968 548.201 403.418Z" fill="#F0F0F0"/>
<path d="M514.851 358.613C525.7 370.779 532.443 386.057 534.122 402.277C534.546 405.762 534.418 409.292 533.743 412.738C532.977 416.073 531.332 419.141 528.981 421.625C526.834 423.985 524.366 426.151 522.83 428.992C522.066 430.458 521.619 432.069 521.521 433.72C521.422 435.371 521.673 437.023 522.257 438.57C523.613 442.462 526.286 445.635 529.007 448.646C532.028 451.99 535.219 455.415 536.503 459.847C536.659 460.384 537.482 460.111 537.327 459.575C535.093 451.863 527.612 447.482 524.045 440.536C522.38 437.295 521.682 433.532 523.242 430.11C524.607 427.119 527.15 424.883 529.344 422.513C531.674 420.123 533.384 417.199 534.324 413.996C535.172 410.596 535.436 407.076 535.104 403.588C534.482 395.722 532.629 388.004 529.611 380.714C526.214 372.376 521.416 364.681 515.425 357.962C515.054 357.546 514.483 358.2 514.851 358.613H514.851Z" fill="white"/>
<path d="M533.889 397.022C536.57 396.371 538.932 394.787 540.554 392.553C542.175 390.32 542.951 387.582 542.742 384.829C542.698 384.272 541.831 384.314 541.875 384.872C542.074 387.435 541.352 389.986 539.837 392.062C538.323 394.139 536.117 395.606 533.617 396.198C533.074 396.327 533.349 397.151 533.889 397.022Z" fill="white"/>
<path d="M530.226 420.572C525.384 417.679 521.81 413.065 520.216 407.651C520.058 407.115 519.235 407.388 519.392 407.924C521.062 413.554 524.791 418.348 529.836 421.348C530.317 421.633 530.705 420.856 530.226 420.572Z" fill="white"/>
<path d="M525.409 373.199C524.424 373.667 523.338 373.883 522.249 373.828C521.16 373.773 520.102 373.447 519.17 372.882C518.693 372.59 518.306 373.368 518.78 373.657C519.813 374.277 520.982 374.635 522.185 374.699C523.388 374.763 524.588 374.531 525.681 374.023C525.788 373.984 525.876 373.905 525.927 373.804C525.978 373.702 525.989 373.584 525.957 373.475C525.92 373.366 525.842 373.276 525.739 373.224C525.637 373.172 525.518 373.163 525.409 373.199Z" fill="white"/>
<path d="M458.25 393.162C458.543 393.353 458.836 393.543 459.129 393.741C463.052 396.323 466.759 399.22 470.214 402.403C470.485 402.645 470.756 402.894 471.02 403.143C479.261 410.9 485.992 420.122 490.87 430.338C492.807 434.405 494.433 438.614 495.732 442.928C497.526 448.885 498.998 455.488 502.549 460.361C502.914 460.874 503.31 461.363 503.735 461.827H535.829C535.901 461.79 535.975 461.761 536.048 461.724L537.329 461.783C537.278 461.556 537.22 461.321 537.168 461.094C537.139 460.962 537.102 460.83 537.073 460.698C537.051 460.611 537.029 460.523 537.014 460.442C537.007 460.413 537 460.383 536.993 460.361C536.978 460.281 536.956 460.207 536.941 460.134C536.619 458.822 536.287 457.511 535.945 456.199C535.945 456.192 535.945 456.192 535.938 456.184C533.309 446.196 529.824 436.34 524.955 427.326C524.808 427.055 524.662 426.776 524.501 426.505C522.284 422.455 519.739 418.592 516.893 414.956C515.328 412.97 513.664 411.065 511.907 409.248C507.357 404.56 502.099 400.618 496.325 397.566C484.815 391.484 471.488 389.154 459.187 392.869C458.872 392.964 458.564 393.06 458.25 393.162Z" fill="#F0F0F0"/>
<path d="M458.322 393.57C474.303 396.746 488.878 404.882 499.976 416.821C502.411 419.348 504.432 422.244 505.966 425.402C507.361 428.526 507.894 431.967 507.511 435.368C507.217 438.545 506.548 441.762 507.031 444.956C507.303 446.587 507.916 448.142 508.83 449.52C509.744 450.897 510.939 452.066 512.336 452.949C515.76 455.239 519.802 456.162 523.787 456.927C528.21 457.776 532.819 458.588 536.511 461.353C536.958 461.688 537.451 460.974 537.005 460.64C530.581 455.828 521.973 456.838 514.946 453.441C511.667 451.856 508.845 449.273 508.033 445.601C507.323 442.389 508.009 439.072 508.335 435.857C508.757 432.546 508.363 429.181 507.187 426.056C505.819 422.831 503.913 419.862 501.549 417.276C496.321 411.371 490.197 406.325 483.403 402.323C475.674 397.712 467.214 394.459 458.389 392.704C457.842 392.596 457.779 393.462 458.322 393.57H458.322Z" fill="white"/>
<path d="M496.629 412.766C498.377 410.63 499.311 407.942 499.262 405.182C499.213 402.421 498.185 399.768 496.362 397.696C495.992 397.278 495.325 397.834 495.696 398.253C497.397 400.179 498.354 402.651 498.395 405.222C498.435 407.792 497.556 410.293 495.916 412.272C495.56 412.702 496.275 413.194 496.629 412.766Z" fill="white"/>
<path d="M507.872 433.776C502.265 434.383 496.636 432.853 492.106 429.491C491.658 429.158 491.164 429.872 491.612 430.205C496.332 433.695 502.194 435.275 508.027 434.63C508.583 434.569 508.425 433.715 507.872 433.776Z" fill="white"/>
<path d="M475.526 398.854C475.022 399.821 474.285 400.648 473.382 401.26C472.479 401.872 471.439 402.25 470.354 402.36C469.798 402.415 469.956 403.269 470.509 403.215C471.707 403.087 472.856 402.669 473.854 401.995C474.853 401.321 475.672 400.412 476.239 399.348C476.301 399.253 476.324 399.137 476.304 399.025C476.284 398.913 476.221 398.812 476.13 398.744C476.035 398.679 475.918 398.654 475.805 398.675C475.692 398.696 475.592 398.76 475.526 398.854Z" fill="white"/>
<path d="M301.227 39.8908C300.453 40.8565 299.901 41.9802 299.608 43.1828C299.315 44.3854 299.289 45.6376 299.533 46.8513C299.776 48.0649 300.282 49.2104 301.015 50.2072C301.748 51.2039 302.691 52.0277 303.777 52.6203L298.83 82.2981L313.109 75.9557L315.618 48.7456C316.492 46.8541 316.642 44.7074 316.04 42.7124C315.438 40.7174 314.126 39.0126 312.352 37.9211C310.578 36.8296 308.466 36.4273 306.416 36.7903C304.365 37.1534 302.519 38.2565 301.227 39.8908Z" fill="#9E616A"/>
<path d="M429.69 450.473L418.014 450.473L412.459 405.4L429.692 405.401L429.69 450.473Z" fill="#9E616A"/>
<path d="M432.667 461.801L395.019 461.799V461.323C395.019 457.433 396.563 453.703 399.311 450.953C402.059 448.203 405.787 446.657 409.673 446.657H409.674L432.668 446.658L432.667 461.801Z" fill="#2F2E41"/>
<path d="M351.342 450.473L339.666 450.473L334.112 405.4L351.345 405.401L351.342 450.473Z" fill="#9E616A"/>
<path d="M354.32 461.801L316.672 461.799V461.323C316.672 457.433 318.216 453.703 320.964 450.953C323.712 448.203 327.439 446.657 331.326 446.657H331.326L354.321 446.658L354.32 461.801Z" fill="#2F2E41"/>
<path d="M346.475 240.15L342.111 245.895C342.111 245.895 341.716 248.578 335.096 270.434L331.465 434.713H353.431L382.793 303.271L413.267 437.35L432.309 438.474L431.414 286.079C431.414 286.079 433.819 254.727 425.294 248.904C416.768 243.082 346.475 240.15 346.475 240.15Z" fill="#2F2E41"/>
<path d="M375.934 102.101C388.664 102.101 398.984 91.7724 398.984 79.0315C398.984 66.2907 388.664 55.9622 375.934 55.9622C363.203 55.9622 352.883 66.2907 352.883 79.0315C352.883 91.7724 363.203 102.101 375.934 102.101Z" fill="#9E616A"/>
<path d="M399.123 82.6433L398.743 81.8815C398.154 80.7032 393.28 70.9075 392.668 68.3888L386.534 69.1109L370.56 69.1134L372.78 65.7814L366.912 66.5475C364.767 66.8083 362.715 67.582 360.932 68.8032C359.838 69.5307 358.913 70.4853 358.22 71.602C356.123 75.1945 352.921 81.0707 352.889 81.1297L352.582 81.6918L349.921 77.2116C349.886 77.0377 346.588 59.8211 357.626 53.9823C358.195 52.8251 363.046 43.7229 374.511 44.3372C375.771 42.8994 377.547 42.0161 379.453 41.8786C382.071 41.742 384.789 43.1185 387.519 45.9871C391.145 49.7972 396.11 55.0149 399.113 60.8084L399.942 61.9913C401.119 63.6843 401.702 65.7202 401.6 67.7801C402.237 71.0678 402.011 74.4649 400.941 77.6384L399.123 82.6433Z" fill="#2F2E41"/>
<path d="M393.497 106.442L406.252 113.497L431.307 120.518L423.828 186.139L425.189 250.776C425.189 250.776 382.778 279.853 342.111 245.895V164.535L344.517 120.518C344.517 120.518 354.248 117.751 359.148 122.524L368.442 110.442L393.497 106.442Z" fill="#E4E4E4"/>
<path d="M350.136 126.564L344.517 120.518L313.548 117.008L316.454 69.4047L299.57 57.3499L287.166 124.366L344.468 164.535L350.136 126.564Z" fill="#E4E4E4"/>
<path d="M412.912 272.136C412.681 270.92 412.719 269.668 413.024 268.469C413.329 267.269 413.892 266.151 414.676 265.193C415.459 264.235 416.443 263.461 417.557 262.925C418.672 262.388 419.891 262.103 421.127 262.089L430.662 233.555L440.303 245.857L429.771 271.068C429.656 273.149 428.783 275.116 427.317 276.595C425.851 278.075 423.893 278.965 421.815 279.097C419.737 279.228 417.683 278.593 416.042 277.31C414.401 276.027 413.287 274.186 412.912 272.136Z" fill="#9E616A"/>
<path d="M421.894 128.03L431.307 120.518C431.307 120.518 440.932 125.831 443.86 135.358C446.789 144.885 451.915 199.113 451.915 199.113L438.003 268.73L422.444 257.931L429.948 202.777L416.768 162.472L421.894 128.03Z" fill="#E4E4E4"/>
<path d="M303.893 16H66.5062V73.7328H303.893V16Z" fill="#E6E6E6"/>
<path d="M72.7348 67.4989H297.665V22.2339H72.7348V67.4989Z" fill="white"/>
<path d="M115.577 62.1113C125.093 62.1113 132.807 54.3905 132.807 44.8664C132.807 35.3424 125.093 27.6216 115.577 27.6216C106.06 27.6216 98.3458 35.3424 98.3458 44.8664C98.3458 54.3905 106.06 62.1113 115.577 62.1113Z" fill="#85E0CB"/>
<path d="M272.054 38.1184H156.781V41.8673H272.054V38.1184Z" fill="#85E0CB"/>
<path d="M272.054 47.8655H156.781V51.6144H272.054V47.8655Z" fill="#85E0CB"/>
<path d="M62 102L262.858 116.663V169.443L62 165.71V102Z" fill="#E6E6E6"/>
<path d="M68.3273 158.987L258.473 163.641V122.067L68.3273 109.304V158.987Z" fill="white"/>
<path d="M110.06 117.806C112.256 117.948 114.393 118.568 116.325 119.622C118.262 120.681 119.98 122.1 121.389 123.801C122.852 125.561 123.999 127.563 124.777 129.716C125.597 131.982 126.016 134.374 126.014 136.784C126.023 139.158 125.604 141.513 124.777 143.738C124.01 145.804 122.86 147.707 121.389 149.346C119.976 150.922 118.251 152.187 116.325 153.062C114.358 153.946 112.216 154.37 110.06 154.303C107.855 154.233 105.692 153.677 103.725 152.674C101.734 151.655 99.9586 150.258 98.4987 148.562C96.967 146.789 95.7644 144.756 94.9479 142.559C94.0815 140.238 93.6387 137.781 93.6406 135.304C93.631 132.864 94.0743 130.443 94.9479 128.165C95.754 126.061 96.9601 124.133 98.4995 122.489C99.9658 120.922 101.747 119.684 103.726 118.856C105.73 118.027 107.897 117.668 110.06 117.806Z" fill="#E6E6E6"/>
<path d="M147.47 130.866L240.014 135.693V139.201L147.47 134.701V130.866Z" fill="#E6E6E6"/>
<path d="M147.47 140.837L240.014 144.813V148.321L147.47 144.672V140.837Z" fill="#E6E6E6"/>
<path d="M62 209.22L262.858 205.488V258.269L62 272.931V209.22Z" fill="#E6E6E6"/>
<path d="M68.3273 265.627L258.473 252.864V211.294L68.3273 215.948V265.627Z" fill="white"/>
<path d="M93.6544 238.786C93.752 236.311 94.2937 233.873 95.2537 231.59C96.1552 229.439 97.4368 227.467 99.037 225.771C100.56 224.15 102.386 222.844 104.412 221.926C106.415 221.024 108.594 220.578 110.791 220.622C112.946 220.666 115.064 221.2 116.984 222.182C118.871 223.157 120.538 224.51 121.882 226.156C123.284 227.87 124.353 229.831 125.037 231.938C125.773 234.203 126.097 236.581 125.995 238.959C125.903 241.367 125.391 243.74 124.481 245.971C123.621 248.086 122.397 250.034 120.864 251.725C119.392 253.357 117.62 254.69 115.645 255.653C113.673 256.61 111.514 257.122 109.322 257.15C107.152 257.176 105.004 256.704 103.044 255.771C101.102 254.838 99.3766 253.508 97.9803 251.866C96.5118 250.14 95.3878 248.149 94.6689 245.999C93.8905 243.678 93.5466 241.233 93.6544 238.786Z" fill="#E6E6E6"/>
<path d="M147.47 234.259L240.014 230.61V234.118L147.47 238.094V234.259Z" fill="#E6E6E6"/>
<path d="M147.47 240.23L240.014 235.731V239.239L147.47 244.065V240.23Z" fill="#E6E6E6"/>
<path d="M557.268 462.56H278.293C278.098 462.56 277.912 462.482 277.775 462.345C277.637 462.208 277.56 462.021 277.56 461.827C277.56 461.632 277.637 461.446 277.775 461.309C277.912 461.171 278.098 461.094 278.293 461.094H557.268C557.462 461.094 557.648 461.171 557.786 461.309C557.923 461.446 558 461.632 558 461.827C558 462.021 557.923 462.208 557.786 462.345C557.648 462.482 557.462 462.56 557.268 462.56Z" fill="#CACACA"/>
</svg>
