<svg width="348" height="300" viewBox="0 0 348 300" fill="none" xmlns="http://www.w3.org/2000/svg">
<g clip-path="url(#clip0_632_55013)">
<path d="M137.346 79.6188C137.186 79.9814 137.052 80.3574 136.946 80.7434L105.656 91.1804L99.8631 85.1728L90.5282 93.6642L99.8504 105.403C100.603 106.351 101.614 107.003 102.731 107.262C103.847 107.52 105.01 107.371 106.043 106.836L139.722 89.4057C140.893 90.2642 142.272 90.7078 143.677 90.6775C145.081 90.6471 146.444 90.1443 147.584 89.2359C148.724 88.3274 149.586 87.0565 150.058 85.592C150.529 84.1275 150.586 82.5389 150.222 81.0376C149.857 79.5362 149.089 78.1932 148.018 77.1872C146.947 76.1812 145.625 75.5599 144.227 75.4058C142.829 75.2518 141.422 75.5724 140.193 76.325C138.964 77.0775 137.971 78.2264 137.346 79.6188L137.346 79.6188Z" fill="#FFB6B6"/>
<path d="M104.618 91.6028L93.1064 102.205C92.7789 102.507 92.3964 102.727 91.9852 102.85C91.5739 102.974 91.1434 102.997 90.723 102.92C90.3027 102.843 89.9024 102.666 89.5493 102.402C89.1962 102.138 88.8987 101.793 88.6771 101.39L80.9111 87.2763C79.5272 85.4128 78.8672 83.018 79.0758 80.6169C79.2844 78.2158 80.3445 76.0041 82.0239 74.4666C83.7033 72.929 85.865 72.1909 88.0352 72.4141C90.2054 72.6373 92.2071 73.8035 93.6018 75.6572L104.698 86.6341C105.016 86.9485 105.268 87.335 105.439 87.7672C105.609 88.1994 105.694 88.6672 105.686 89.1387C105.678 89.6102 105.579 90.0744 105.395 90.4996C105.21 90.9248 104.945 91.3011 104.618 91.6028Z" fill="#3F3D56"/>
<path d="M135.531 268.132L140.541 264.6C140.771 261.498 140.843 258.385 140.756 255.275L138.157 256.01L140.723 254.201C140.581 250.356 140.267 247.82 140.267 247.82C140.267 247.82 130.137 255.103 123.676 264.974L124.777 273.323L122.15 267.484C121.478 268.675 120.874 269.911 120.342 271.186C115.019 284.056 114.501 296.414 119.187 298.788C123.872 301.162 131.986 292.652 137.309 279.781C138.915 275.642 139.938 271.254 140.342 266.772L135.531 268.132Z" fill="#E6E6E6"/>
<path d="M145.823 280.556L151.762 280.398C153.407 277.875 154.923 275.251 156.302 272.539L153.733 271.681L156.774 271.6C158.449 268.228 159.365 265.877 159.365 265.877C159.365 265.877 147.291 266.316 137.149 271.07L134.193 278.847L134.671 272.346C133.54 272.981 132.445 273.694 131.395 274.481C120.826 282.453 114.612 292.736 117.514 297.449C120.416 302.161 131.336 299.518 141.905 291.545C145.213 288.92 148.137 285.749 150.577 282.144L145.823 280.556Z" fill="#E6E6E6"/>
<path d="M110.721 292.163L117.205 292.163L119.637 264.25L110.72 264.484L110.721 292.163Z" fill="#FFB6B6"/>
<path d="M109.067 289.82L121.836 289.819H121.837C123.995 289.819 126.065 290.768 127.591 292.457C129.117 294.146 129.975 296.437 129.975 298.825V299.118L109.068 299.119L109.067 289.82Z" fill="#2F2E41"/>
<path d="M34.225 271.448L38.4778 276.865L59.3803 261.289L53.1035 253.293L34.225 271.448Z" fill="#FFB6B6"/>
<path d="M34.7384 268.529L43.1137 279.197L43.114 279.198C44.5294 281.001 45.2397 283.352 45.0886 285.735C44.9375 288.118 43.9374 290.336 42.3083 291.903L42.1087 292.095L28.396 274.628L34.7384 268.529Z" fill="#2F2E41"/>
<path d="M0.629735 300H177.432C177.599 300 177.759 299.926 177.877 299.796C177.995 299.665 178.062 299.488 178.062 299.303C178.062 299.118 177.995 298.941 177.877 298.81C177.759 298.679 177.599 298.606 177.432 298.606H0.629735C0.546884 298.606 0.464795 298.624 0.388181 298.658C0.311567 298.693 0.241935 298.745 0.183265 298.809C0.124595 298.874 0.0780443 298.951 0.0462829 299.036C0.0145216 299.12 -0.00183105 299.211 -0.00183105 299.303C-0.00183105 299.395 0.0145216 299.485 0.0462829 299.57C0.0780443 299.655 0.124595 299.732 0.183265 299.796C0.241935 299.861 0.311567 299.912 0.388181 299.947C0.464795 299.982 0.546884 300 0.629735 300Z" fill="#CACACA"/>
<path d="M96.4754 226.46L110.118 282.396H120.695L118.372 221.22L112.24 161.619L89.9656 160.309L96.4754 226.46Z" fill="#85E0CB"/>
<path d="M72.8033 161.618C72.8033 161.618 71.6197 170.133 76.3541 179.302C81.0885 188.472 78.1295 219.255 78.1295 219.255L38.1896 263.665C38.1896 263.665 44.3968 275.582 47.3558 274.927C50.3148 274.272 97.0672 232.355 97.0672 232.355L112.24 164.238L72.8033 161.618Z" fill="#85E0CB"/>
<path d="M94.8258 62.4683C102.343 62.4683 108.437 55.7238 108.437 47.4041C108.437 39.0843 102.343 32.3398 94.8258 32.3398C87.3084 32.3398 81.2144 39.0843 81.2144 47.4041C81.2144 55.7238 87.3084 62.4683 94.8258 62.4683Z" fill="#FFB6B6"/>
<path d="M94.2512 71.0913C94.2512 71.0913 78.3847 64.4437 78.3847 66.4086C78.3847 68.3735 62.7427 84.9875 66.2935 106.601C69.8443 128.215 73.9869 138.695 72.2115 150.484C70.4361 162.274 71.6197 164.893 71.6197 164.893C71.6197 164.893 112.832 168.823 113.423 164.238C114.015 159.654 111.704 152.661 111.704 150.696C111.704 148.731 95.3516 76.1477 94.2512 71.0913Z" fill="#3F3D56"/>
<path d="M88.6651 56.4559C89.767 55.8111 91.047 55.6781 92.2397 55.2774C96.5069 53.8434 99.3655 48.5048 98.4529 43.6737C98.2842 43.0541 98.2085 42.4081 98.2287 41.7613C98.3883 40.3305 99.7112 39.4073 100.98 39.0795C102.248 38.7516 103.598 38.7992 104.81 38.2721C106.682 37.4581 107.926 35.329 108.195 33.1231C108.389 30.8899 107.94 28.6461 106.912 26.7125L106.453 28.1718C105.755 27.5171 105.236 26.6585 104.956 25.6936C104.435 25.7905 103.946 26.0337 103.534 26.3999C103.123 26.7661 102.803 27.2431 102.606 27.7852C101.871 28.2652 101.765 26.294 100.952 26.0032C100.595 25.9539 100.234 26.0525 99.9383 26.28C98.3013 27.125 96.3994 26.4026 94.6433 25.9342C91.6026 25.1269 88.4329 25.1228 85.3904 25.9221C83.3691 26.4557 81.3684 27.3849 79.922 29.0361C78.7907 30.4575 77.9217 32.1102 77.3639 33.901C75.8125 38.2219 74.7877 42.8972 75.2998 47.512C75.7263 51.2884 77.1538 54.8404 79.4023 57.7198C80.5736 59.2134 84.3951 64.4241 86.4905 63.5357C89.1234 62.4194 85.5629 58.2712 88.6651 56.4559Z" fill="#2F2E41"/>
<path opacity="0.2" d="M111.755 187.126L96.1821 232.316L96.9689 232.648L112.542 187.458L111.755 187.126Z" fill="black"/>
<path d="M145.374 72.8477C144.383 72.8489 143.433 73.2851 142.733 74.0604C142.032 74.8356 141.638 75.8868 141.637 76.9832V122.956C141.638 124.053 142.032 125.104 142.733 125.879C143.433 126.654 144.383 127.091 145.374 127.092H344.263C345.254 127.091 346.204 126.654 346.904 125.879C347.605 125.104 347.999 124.053 348 122.956V76.9832C347.999 75.8868 347.605 74.8357 346.904 74.0604C346.204 73.2851 345.254 72.849 344.263 72.8477L145.374 72.8477Z" fill="#E6E6E6"/>
<path d="M146.717 76.0723C146.143 76.0729 145.592 76.3257 145.186 76.7752C144.779 77.2247 144.551 77.8342 144.55 78.47V121.469C144.551 122.105 144.78 122.714 145.186 123.164C145.592 123.613 146.143 123.866 146.717 123.867H342.92C343.494 123.866 344.045 123.613 344.451 123.164C344.857 122.714 345.085 122.105 345.086 121.469V78.47C345.085 77.8343 344.857 77.2249 344.451 76.7753C344.045 76.3258 343.494 76.073 342.92 76.0723H146.717Z" fill="white"/>
<path d="M330.601 112.076C331.532 112.073 332.425 111.663 333.083 110.933C333.741 110.204 334.111 109.216 334.112 108.185C334.114 107.155 333.746 106.165 333.089 105.434C332.433 104.703 331.542 104.29 330.61 104.284C330.607 104.284 330.604 104.284 330.601 104.284H164.648C163.717 104.288 162.825 104.701 162.168 105.431C161.511 106.161 161.142 107.15 161.142 108.18C161.142 109.211 161.511 110.199 162.168 110.929C162.825 111.66 163.717 112.072 164.648 112.076H330.601Z" fill="#E6E6E6"/>
<path d="M236.058 95.1502C236.521 95.1509 236.979 95.0506 237.407 94.8551C237.834 94.6596 238.223 94.3727 238.55 94.0108C238.877 93.649 239.137 93.2193 239.314 92.7463C239.491 92.2733 239.583 91.7664 239.583 91.2543C239.583 90.7423 239.491 90.2353 239.314 89.7623C239.137 89.2893 238.877 88.8596 238.55 88.4978C238.223 88.136 237.834 87.8491 237.407 87.6536C236.979 87.4581 236.521 87.3578 236.058 87.3584H164.648C164.186 87.3578 163.727 87.4581 163.3 87.6536C162.872 87.8491 162.484 88.136 162.156 88.4978C161.829 88.8596 161.569 89.2893 161.392 89.7623C161.215 90.2353 161.124 90.7423 161.124 91.2543C161.124 91.7664 161.215 92.2733 161.392 92.7463C161.569 93.2193 161.829 93.649 162.156 94.0108C162.484 94.3727 162.872 94.6596 163.3 94.8551C163.727 95.0506 164.186 95.1509 164.648 95.1502H236.058Z" fill="#85E0CB"/>
<path d="M174.443 161.551C173.742 161.552 173.07 161.861 172.574 162.409C172.078 162.958 171.799 163.702 171.798 164.478V197.012C171.799 197.788 172.078 198.532 172.574 199.081C173.07 199.63 173.742 199.938 174.443 199.939H315.194C315.895 199.938 316.567 199.63 317.063 199.081C317.559 198.532 317.838 197.788 317.839 197.012V164.478C317.838 163.702 317.559 162.958 317.063 162.409C316.567 161.861 315.895 161.552 315.194 161.551H174.443Z" fill="#E6E6E6"/>
<path d="M175.394 163.833C174.987 163.834 174.597 164.013 174.31 164.331C174.022 164.649 173.861 165.08 173.86 165.53V195.96C173.861 196.41 174.022 196.841 174.31 197.159C174.597 197.478 174.987 197.656 175.394 197.657H314.243C314.65 197.656 315.039 197.478 315.327 197.159C315.614 196.841 315.776 196.41 315.776 195.96V165.53C315.776 165.08 315.614 164.649 315.327 164.331C315.039 164.013 314.65 163.834 314.243 163.833H175.394Z" fill="white"/>
<path d="M305.525 189.313C306.186 189.314 306.82 189.024 307.287 188.508C307.755 187.991 308.018 187.291 308.019 186.56C308.02 185.829 307.758 185.127 307.292 184.61C306.826 184.092 306.193 183.8 305.532 183.799C305.53 183.799 305.528 183.799 305.525 183.799H188.083C187.423 183.8 186.79 184.091 186.324 184.608C185.857 185.125 185.595 185.825 185.595 186.556C185.595 187.286 185.857 187.987 186.324 188.504C186.79 189.021 187.423 189.312 188.083 189.313H305.525Z" fill="#E6E6E6"/>
<path d="M238.619 177.335C238.946 177.335 239.271 177.264 239.573 177.126C239.876 176.987 240.151 176.784 240.383 176.528C240.614 176.272 240.798 175.968 240.924 175.633C241.049 175.299 241.114 174.94 241.114 174.577C241.114 174.215 241.049 173.856 240.924 173.521C240.798 173.187 240.614 172.883 240.383 172.626C240.151 172.37 239.876 172.167 239.573 172.029C239.271 171.891 238.946 171.82 238.619 171.82H188.083C187.756 171.82 187.431 171.891 187.129 172.029C186.826 172.167 186.551 172.37 186.319 172.626C186.087 172.883 185.904 173.187 185.778 173.521C185.653 173.856 185.588 174.215 185.588 174.577C185.588 174.94 185.653 175.299 185.778 175.633C185.904 175.968 186.087 176.272 186.319 176.528C186.551 176.784 186.826 176.987 187.129 177.126C187.431 177.264 187.756 177.335 188.083 177.335H238.619Z" fill="#E4E4E4"/>
<path d="M174.443 0C173.742 0.000910874 173.07 0.309548 172.574 0.858205C172.078 1.40686 171.799 2.15074 171.798 2.92666V35.4611C171.799 36.2371 172.078 36.9809 172.574 37.5296C173.07 38.0782 173.742 38.3869 174.443 38.3878H315.194C315.895 38.3869 316.567 38.0782 317.063 37.5296C317.559 36.9809 317.838 36.2371 317.839 35.4611V2.92666C317.838 2.15074 317.559 1.40686 317.063 0.858205C316.567 0.309548 315.895 0.000910874 315.194 0H174.443Z" fill="#E6E6E6"/>
<path d="M175.394 2.28223C174.987 2.28268 174.597 2.46158 174.31 2.77969C174.022 3.0978 173.861 3.52914 173.86 3.97906V34.4089C173.861 34.8588 174.022 35.2901 174.31 35.6082C174.597 35.9263 174.987 36.1052 175.394 36.1057H314.243C314.65 36.1052 315.039 35.9263 315.327 35.6082C315.614 35.29 315.776 34.8587 315.776 34.4089V3.97906C315.776 3.52921 315.614 3.09789 315.327 2.77977C315.039 2.46165 314.65 2.28272 314.243 2.28223H175.394Z" fill="white"/>
<path d="M305.525 27.7613C306.186 27.7619 306.82 27.4721 307.287 26.9558C307.755 26.4395 308.018 25.7389 308.019 25.0079C308.02 24.2769 307.758 23.5755 307.292 23.0578C306.826 22.5401 306.193 22.2485 305.532 22.2471C305.53 22.2471 305.528 22.2471 305.525 22.2471H188.083C187.423 22.2481 186.79 22.5391 186.324 23.056C185.857 23.573 185.595 24.2736 185.595 25.0042C185.595 25.7347 185.857 26.4354 186.324 26.9523C186.79 27.4692 187.423 27.7602 188.083 27.7613H305.525Z" fill="#E6E6E6"/>
<path d="M238.619 15.7832C238.946 15.7838 239.271 15.7128 239.573 15.5745C239.876 15.4362 240.151 15.2332 240.383 14.9771C240.614 14.7211 240.798 14.4169 240.924 14.0822C241.049 13.7474 241.114 13.3885 241.114 13.0261C241.114 12.6637 241.049 12.3049 240.924 11.9701C240.798 11.6353 240.614 11.3312 240.383 11.0752C240.151 10.8191 239.876 10.6161 239.573 10.4778C239.271 10.3394 238.946 10.2685 238.619 10.269H188.083C187.756 10.2685 187.431 10.3394 187.129 10.4778C186.826 10.6161 186.551 10.8191 186.319 11.0752C186.087 11.3312 185.904 11.6353 185.778 11.9701C185.653 12.3049 185.588 12.6637 185.588 13.0261C185.588 13.3885 185.653 13.7474 185.778 14.0822C185.904 14.4169 186.087 14.7211 186.319 14.9771C186.551 15.2332 186.826 15.4362 187.129 15.5745C187.431 15.7128 187.756 15.7838 188.083 15.7832H238.619Z" fill="#E4E4E4"/>
<path d="M132.991 106.012C132.728 106.291 132.485 106.593 132.265 106.914L99.6432 104.754L96.0801 96.9023L84.6703 101.305L89.7576 115.883C90.1686 117.061 90.9137 118.06 91.881 118.729C92.8484 119.398 93.9857 119.702 95.1224 119.595L132.168 116.104C132.999 117.358 134.155 118.301 135.483 118.809C136.81 119.317 138.246 119.366 139.599 118.949C140.952 118.532 142.159 117.669 143.058 116.474C143.957 115.28 144.506 113.811 144.633 112.263C144.759 110.714 144.456 109.16 143.765 107.807C143.074 106.454 142.027 105.365 140.763 104.687C139.499 104.008 138.079 103.771 136.69 104.008C135.302 104.245 134.012 104.944 132.991 106.012L132.991 106.012Z" fill="#FFB6B6"/>
<path d="M98.5367 104.753L84.4256 110.306C84.0241 110.464 83.5966 110.524 83.1721 110.483C82.7476 110.441 82.3362 110.299 81.9658 110.066C81.5955 109.833 81.2749 109.514 81.0259 109.131C80.7769 108.748 80.6054 108.311 80.523 107.848L77.6371 91.6349C76.9199 89.3573 77.0477 86.8579 77.9926 84.6844C78.9374 82.5108 80.6222 80.8404 82.6778 80.0391C84.7333 79.2379 86.9921 79.371 88.9592 80.4094C90.9262 81.4479 92.4411 83.3069 93.172 85.5792L100.162 100.121C100.362 100.537 100.478 100.997 100.503 101.467C100.529 101.938 100.462 102.409 100.308 102.849C100.153 103.289 99.9154 103.686 99.6098 104.015C99.3042 104.344 98.9382 104.595 98.5367 104.753H98.5367Z" fill="#3F3D56"/>
<path d="M147.025 87.5761C151.99 87.5761 156.016 83.121 156.016 77.6255C156.016 72.1299 151.99 67.6748 147.025 67.6748C142.059 67.6748 138.034 72.1299 138.034 77.6255C138.034 83.121 142.059 87.5761 147.025 87.5761Z" fill="#85E0CB"/>
</g>
<defs>
<clipPath id="clip0_632_55013">
<rect width="348" height="300" fill="white"/>
</clipPath>
</defs>
</svg>
